<svg viewBox="0 0 1593 1011" fill="none" xmlns="http://www.w3.org/2000/svg">
<path fill-rule="evenodd" clip-rule="evenodd" d="M1328.27 227.73H1316.27V234.73H1328.27V227.73ZM1340.27 227.73H1352.27V234.73H1340.27V227.73ZM1376.27 227.73H1364.27V234.73H1376.27V227.73ZM1388.27 227.73H1400.27V234.73H1388.27V227.73ZM1424.27 227.73H1412.27V234.73H1424.27V227.73ZM1436.27 227.73H1448.27V234.73H1436.27V227.73ZM1472.27 227.73H1460.27V234.73H1472.27V227.73ZM1484.27 227.73H1496.27V234.73H1484.27V227.73ZM1520.27 227.73H1508.27V234.73H1520.27V227.73ZM1532.27 227.73H1544.27V234.73H1532.27V227.73ZM1556.27 227.73H1568.27V234.73H1556.27V227.73ZM1315.97 239.42H1322.97V251.42H1315.97V239.42ZM1322.97 263.42H1315.97V275.42H1322.97V263.42ZM1315.97 287.42H1322.97V299.42H1315.97V287.42ZM1322.97 311.42H1315.97V323.42H1322.97V311.42ZM1315.97 335.42H1322.97V347.42H1315.97V335.42ZM1322.97 359.42H1315.97V371.42H1322.97V359.42ZM1315.97 383.42H1322.97V395.42H1315.97V383.42ZM1322.97 407.42H1315.97V419.42H1322.97V407.42ZM1315.97 431.42H1322.97V443.42H1315.97V431.42ZM1322.97 455.42H1315.97V467.42H1322.97V455.42ZM1315.97 479.42H1322.97V491.42H1315.97V479.42ZM1322.97 503.42H1315.97V515.42H1322.97V503.42ZM1315.97 527.42H1322.97V539.42H1315.97V527.42ZM1322.97 551.42H1315.97V563.42H1322.97V551.42ZM1315.97 575.42H1322.97V587.42H1315.97V575.42ZM1322.97 599.42H1315.97V611.42H1322.97V599.42ZM1315.97 623.42H1322.97V635.42H1315.97V623.42ZM1322.97 647.42H1315.97V659.42H1322.97V647.42ZM1315.97 664.68H1327.71V671.68H1315.97V671.42V664.68ZM1351.71 664.68H1339.71V671.68H1351.71V664.68ZM1363.71 664.68H1375.71V671.68H1363.71V664.68ZM1399.71 664.68H1387.71V671.68H1399.71V664.68ZM1411.71 664.68H1423.71V671.68H1411.71V664.68ZM1447.71 664.68H1435.71V671.68H1447.71V664.68ZM1459.71 664.68H1471.71V671.68H1459.71V664.68ZM1495.71 664.68H1483.71V671.68H1495.71V664.68ZM1507.71 664.68H1519.71V671.68H1507.71V664.68ZM1543.71 664.68H1531.71V671.68H1543.71V664.68ZM1555.71 664.68H1567.71V671.68H1555.71V664.68ZM1591.71 664.68H1579.71V671.68H1591.71V664.68ZM1585.27 648.25H1592.27V660.25H1585.27V648.25ZM1592.27 624.25H1585.27V636.25H1592.27V624.25ZM1585.27 600.25H1592.27V612.25H1585.27V600.25ZM1592.27 576.25H1585.27V588.25H1592.27V576.25ZM1585.27 552.25H1592.27V564.25H1585.27V552.25ZM1592.27 528.25H1585.27V540.25H1592.27V528.25ZM1585.27 504.25H1592.27V516.25H1585.27V504.25ZM1592.27 480.25H1585.27V492.25H1592.27V480.25ZM1585.27 456.25H1592.27V468.25H1585.27V456.25ZM1592.27 432.25H1585.27V444.25H1592.27V432.25ZM1585.27 408.25H1592.27V420.25H1585.27V408.25ZM1592.27 384.25H1585.27V396.25H1592.27V384.25ZM1585.27 360.25H1592.27V372.25H1585.27V360.25ZM1592.27 336.25H1585.27V348.25H1592.27V336.25ZM1585.27 312.25H1592.27V324.25H1585.27V312.25ZM1592.27 288.25H1585.27V300.25H1592.27V288.25ZM1585.27 264.25H1592.27V276.25H1585.27V264.25ZM1592.27 240.25H1585.27V252.25H1592.27V240.25ZM1580.27 227.73H1592.27V234.73H1580.27V227.73Z" fill="#E0E7EA"/>
<path fill-rule="evenodd" clip-rule="evenodd" d="M630.97 0H623.97V7V10.65H630.97V0ZM637.32 0H649.32V7H637.32V0ZM673.32 0H661.32V7H673.32V0ZM685.32 0H697.32V7H685.32V0ZM721.32 0H709.32V7H721.32V0ZM733.32 0H745.32V7H733.32V0ZM769.32 0H757.32V7H769.32V0ZM781.32 0H793.32V7H781.32V0ZM817.32 0H805.32V7H817.32V0ZM829.32 0H841.32V7H829.32V0ZM865.32 0H853.32V7H865.32V0ZM877.32 0H889.32V7H877.32V0ZM913.32 0H901.32V7H913.32V0ZM925.32 0H937.32V7H925.32V0ZM961.32 0H949.32V7H961.32V0ZM973.32 0H985.32V7H973.32V0ZM997.32 0H1009.32V7H997.32V0ZM623.97 22.65H630.97V34.65H623.97V22.65ZM630.97 46.65H623.97V58.65H630.97V46.65ZM623.97 70.65H630.97V82.65H623.97V70.65ZM630.97 94.65H623.97V106.65H630.97V94.65ZM623.97 118.65H630.97V130.65H623.97V118.65ZM630.97 142.65H623.97V154.65H630.97V142.65ZM623.97 166.65H630.97V178.65H623.97V166.65ZM630.97 190.65H623.97V202.65H630.97V190.65ZM623.97 214.65H630.97V226.65H623.97V214.65ZM630.97 238.65H623.97V250.65H630.97V238.65ZM631.84 247.77H643.84V254.77H631.84V247.77ZM667.84 247.77H655.84V254.77H667.84V247.77ZM679.84 247.77H691.84V254.77H679.84V247.77ZM715.84 247.77H703.84V254.77H715.84V247.77ZM727.84 247.77H739.84V254.77H727.84V247.77ZM763.84 247.77H751.84V254.77H763.84V247.77ZM775.84 247.77H787.84V254.77H775.84V247.77ZM811.84 247.77H799.84V254.77H811.84V247.77ZM823.84 247.77H835.84V254.77H823.84V247.77ZM859.84 247.77H847.84V254.77H859.84V247.77ZM871.84 247.77H883.84V254.77H871.84V247.77ZM907.84 247.77H895.84V254.77H907.84V247.77ZM919.84 247.77H931.84V254.77H919.84V247.77ZM955.84 247.77H943.84V254.77H955.84V247.77ZM967.84 247.77H979.84V254.77H967.84V247.77ZM1003.84 247.77H991.84V254.77H1003.84V247.77ZM1026.32 236.25H1033.32V248.25H1027.84V254.77H1015.84V247.77H1026.32V236.25ZM1033.32 212.25H1026.32V224.25H1033.32V212.25ZM1026.32 188.25H1033.32V200.25H1026.32V188.25ZM1033.32 164.25H1026.32V176.25H1033.32V164.25ZM1026.32 140.25H1033.32V152.25H1026.32V140.25ZM1033.32 116.25H1026.32V128.25H1033.32V116.25ZM1026.32 92.25H1033.32V104.25H1026.32V92.25ZM1033.32 68.25H1026.32V80.25H1033.32V68.25ZM1026.32 44.25H1033.32V56.25H1026.32V44.25ZM1033.32 20.25H1026.32V32.25H1033.32V20.25ZM1021.32 0H1033.32V8.25H1026.32V7H1021.32V0Z" fill="#EFF6F9"/>
<path fill-rule="evenodd" clip-rule="evenodd" d="M496.05 191.35H507.88V198.35H500.23L496.05 191.35ZM531.88 191.35H519.88V198.35H531.88V191.35ZM543.88 191.35H555.88V198.35H543.88V191.35ZM579.88 191.35H567.88V198.35H579.88V191.35ZM591.88 191.35H603.88V198.35H591.88V191.35ZM627.88 191.35H615.88V198.35H627.88V191.35ZM639.88 191.35H651.88V198.35H639.88V191.35ZM675.88 191.35H663.88V198.35H675.88V191.35ZM687.88 191.35H699.88V198.35H687.88V191.35ZM723.88 191.35H711.88V198.35H723.88V191.35ZM735.88 191.35H747.88V198.35H735.88V191.35ZM759.88 191.35H771.87L767.69 198.35H763.92L766.7 200.01L760.55 210.31L754.55 206.72L759.88 197.79V191.35ZM508.3 198.21L508.292 198.214L508.29 198.21H508.3ZM508.292 198.214L514.44 208.51L508.44 212.1L502.3 201.79L508.292 198.214ZM514.6 222.4L520.6 218.82L520.59 218.8L526.73 229.1L520.73 232.69L517.27 226.88L514.6 222.4ZM532.89 239.43L526.89 243.01L533.04 253.32L539.04 249.73L532.89 239.43ZM545.188 260.031L545.19 260.03L545.17 260L545.188 260.031ZM545.188 260.031L539.19 263.62L543.84 271.41L545.32 273.9L551.32 270.31L545.188 260.031ZM557.49 280.64L557.482 280.645L557.48 280.64H557.49ZM557.482 280.645L563.63 290.95L557.63 294.54L551.49 284.23L557.482 280.645ZM569.782 301.255L569.79 301.25L569.72 301.15L569.782 301.255ZM569.782 301.255L563.79 304.84L569.28 314.04L569.87 315.04L575.87 311.46L569.782 301.255ZM582.09 321.86L582.026 321.898L581.95 321.77L582.09 321.86ZM582.026 321.898L588.1 332.08L582.1 335.66L577.5 327.96L577.44 327.86V327.8V327.72L577.37 327.59L576.09 325.45L582.026 321.898ZM594.366 342.484L594.39 342.47L594.34 342.44L594.366 342.484ZM594.366 342.484L588.39 346.06L590.82 350.13V350.19L590.9 350.33L594.49 356.33L600.49 352.75L594.366 342.484ZM606.69 363.08L606.629 363.116L606.56 363L606.69 363.08ZM606.629 363.116L612.71 373.3L606.71 376.89L606.51 376.56V376.5V376.42L600.69 366.67L606.629 363.116ZM618.98 383.696L618.99 383.69L618.81 383.41L618.98 383.696ZM618.98 383.696L612.99 387.28L613.8 388.65L613.88 388.79L618.96 397.3L624.96 393.71L618.98 383.696ZM637.71 402.54L637.545 402.817L637.45 402.76L637.71 402.54ZM637.545 402.817L643.45 406.35L642.99 407.13L642.9 407.28L637.5 416.28L635.93 415.34L631.35 418.07L628.05 412.54L625.29 407.92L631.29 404.33L633.97 408.82L637.545 402.817ZM649.95 382.03L650.01 381.93L649.95 382.03L649.95 382.03ZM649.95 382.03L643.86 392.23L649.86 395.82L650.46 394.82L655.95 385.62L649.95 382.03ZM662.31 361.32L662.244 361.431L662.21 361.41L662.31 361.32ZM662.244 361.431L668.21 365C668.21 365 667.87 365.56 667.36 366.43V366.5L662.16 375.21L656.16 371.63L662.244 361.431ZM668.46 351.02L674.61 340.71L680.61 344.3L674.46 354.6L668.46 351.02ZM686.91 320.1L680.76 330.41L686.76 333.99L690.5 327.73L692.86 323.78L686.86 320.19L686.91 320.1ZM693.06 309.8L699.21 299.49L705.21 303.08L699.06 313.39L693.06 309.8ZM711.55 278.85L705.4 289.16L711.4 292.75L713.93 288.51L717.52 282.51L711.52 278.92L711.55 278.85ZM723.825 258.291L723.85 258.25L723.79 258.27L723.825 258.291ZM723.825 258.291L717.66 268.54L723.66 272.13L725.66 268.76L729.79 261.85L723.825 258.291ZM736.14 237.64L730 247.94L736 251.53L742.15 241.22L736.15 237.64H736.14ZM742.29 227.33L748.44 217.03L754.44 220.61L751.08 226.25L748.29 230.92L742.29 227.33Z" fill="#E0E7EA"/>
<path fill-rule="evenodd" clip-rule="evenodd" d="M0 600.74H7V609.74H0V607.74V600.74ZM26.95 600.74H14.95V607.74H26.95V600.74ZM38.95 600.74H50.95V607.74H38.95V600.74ZM74.95 600.74H62.95V607.74H74.95V600.74ZM86.95 600.74H98.95V607.74H86.95V600.74ZM122.95 600.74H110.95V607.74H122.95V600.74ZM134.95 600.74H146.95V607.74H134.95V600.74ZM170.95 600.74H158.95V607.74H170.95V600.74ZM182.95 600.74H194.95V607.74H182.95V600.74ZM218.95 600.74H206.95V607.74H218.95V600.74ZM230.95 600.74H242.95V607.74H230.95V600.74ZM254.95 600.74H266.95V619.29H259.95V607.74H254.95V600.74ZM7 621.74H0V633.74H7V621.74ZM0 645.74H7V657.74H0V645.74ZM7 669.74H0V681.74H7V669.74ZM0 693.74H7V705.74H0V693.74ZM7 717.74H0V729.74H7V717.74ZM0 741.74H7V753.74H0V741.74ZM7 765.74H0V777.74H7V765.74ZM0 789.74H7V801.74H0V789.74ZM7 813.74H0V823.01H7V813.74ZM14.73 816.01H26.73V823.01H14.73V816.01ZM50.73 816.01H38.73V823.01H50.73V816.01ZM62.73 816.01H74.73V823.01H62.73V816.01ZM98.73 816.01H86.73V823.01H98.73V816.01ZM110.73 816.01H122.73V823.01H110.73V816.01ZM146.73 816.01H134.73V823.01H146.73V816.01ZM158.73 816.01H170.73V823.01H158.73V816.01ZM194.73 816.01H182.73V823.01H194.73V816.01ZM206.73 816.01H218.73V823.01H206.73V816.01ZM242.73 816.01H230.73V823.01H242.73V816.01ZM254.73 816.01H266.73V823.01H254.73V816.01ZM266.95 799.24H259.95V811.24H266.95V799.24ZM259.95 775.24H266.95V787.24H259.95V775.24ZM266.95 751.24H259.95V763.24H266.95V751.24ZM259.95 727.24H266.95V739.24H259.95V727.24ZM266.95 703.24H259.95V715.24H266.95V703.24ZM259.95 679.24H266.95V691.24H259.95V679.24ZM266.95 655.24H259.95V667.24H266.95V655.24ZM259.95 631.24H266.95V643.24H259.95V631.24Z" fill="#E0E7EA"/>
<path fill-rule="evenodd" clip-rule="evenodd" d="M140.71 10.24H136.65C133.99 10.31 131.34 10.46 128.72 10.69L129.31 17.69C133.07 17.37 136.91 17.21 140.71 17.21V10.24ZM116.82 12.24C115.9 12.4 114.99 12.56 114.07 12.74H113.91H113.8H112.92H112.84H112.65H112.48H112.38L112.11 12.79H112.01L111.78 12.84C109.54 13.31 107.33 13.84 105.13 14.4L106.9 21.17C110.56 20.17 114.31 19.41 118.04 18.77L116.86 11.87L116.82 12.24ZM92.3002 18.77L93.6302 18.29L94.5502 16.78L96.8902 23.38C93.3202 24.65 89.7702 26.08 86.3202 27.65L83.4202 21.28C85.2502 20.45 87.1002 19.65 88.9702 18.9L89.1402 18.83H89.1902L89.3402 18.77H89.4002H89.4602H89.5702H89.9002H90.1602H90.2502H90.4102H90.5102H90.6702H90.7602H90.8202H90.9102H91.0702H91.1202H91.2102H91.7002H91.8002H92.0402H92.1702H92.3002ZM71.8102 28.22L70.5002 28.96L70.3402 29.05H70.2902H70.2202H70.1602C67.4002 30.6633 64.7035 32.3666 62.0702 34.16L66.0102 39.95C69.1402 37.81 72.4002 35.79 75.7002 33.95L72.2702 27.85L71.8102 28.22ZM51.9202 41.77L51.9902 41.71L54.1202 38.95L58.5402 44.38C55.6002 46.77 52.7302 49.31 50.0002 51.94L45.1402 46.94H45.1902H45.2402L45.2902 46.89H45.3502L45.4102 46.83L45.4602 46.78H45.5202L45.5802 46.72L45.6502 46.66H45.7102L45.7702 46.6L45.8402 46.54L45.9702 46.42L46.0402 46.36L46.1102 46.3L46.2402 46.17L46.3002 46.11L46.3602 46.05L46.5702 45.86L46.6402 45.8L46.7102 45.74L46.8402 45.62L46.9102 45.56L46.9802 45.5L47.1802 45.31H47.2402L47.3002 45.25L47.4302 45.13L47.4902 45.07L47.5502 45.01L47.6102 44.95L47.6802 44.89L47.7402 44.83L47.7902 44.78H47.8502L47.9002 44.73L47.9602 44.67L48.0202 44.62V44.57H48.0702L48.1302 44.52H48.1802H48.2302H48.2902L48.3502 44.47H48.4102L48.4702 44.41L48.5402 44.35L48.6502 44.25L48.7202 44.18L48.7902 44.11C49.5202 43.47 50.2502 42.85 50.9902 42.23L51.1902 42.06L51.2602 42L51.3302 41.94H51.3902H51.4402H51.4902H51.5402H51.6002H51.6602H51.7202L51.8502 41.83L51.9202 41.77ZM34.7402 58.35L34.6802 58.41L34.6302 58.47L34.5502 58.54H34.5002L34.4502 58.6V58.65V58.7V58.75V58.8L34.4002 58.86L34.3402 58.92L34.1702 59.12L34.1102 59.2C32.6035 60.98 31.1335 62.8 29.7002 64.66L29.6502 64.73V64.79V64.84V64.89V64.94V65L29.6002 65.06L29.5502 65.12L29.5002 65.18L28.3802 66.68L34.0302 70.82C36.2702 67.77 38.6702 64.82 41.1602 61.93L35.8902 57.32L34.7402 58.35ZM17.8002 82.39C18.6902 80.81 19.6002 79.24 20.5502 77.69L20.9302 77.1L26.9302 80.75C24.9602 84.01 23.1002 87.37 21.4102 90.75L15.1502 87.63C15.9202 86.07 16.7302 84.53 17.5602 83.01L17.6202 82.9V82.81V82.76L17.6702 82.67L17.8002 82.44V82.39ZM9.84027 99.14C9.14027 100.92 8.47027 102.71 7.84027 104.53V104.64V104.92V104.97V105.02V105.07V105.13L7.78027 105.28V105.33C7.23027 106.93 6.72025 108.55 6.23025 110.18L12.9302 112.18C14.0202 108.56 15.2802 104.94 16.6702 101.42L10.1602 98.84L9.84027 99.14ZM2.96026 122.34V122.14L3.53027 121.15L10.3802 122.58C9.61024 126.28 8.99025 130.06 8.54025 133.83L1.59027 132.99C1.96027 129.93 2.41026 126.99 2.96026 123.99V123.81V123.63V123.46V123.38V123.26V123.13V123.05V122.93V122.82V122.67V122.54V122.41V122.34ZM0.090271 145.94V146.28V146.54V146.61V146.68C0.090271 147.264 0.0748213 147.85 0.0593807 148.437C0.0470447 148.905 0.0347146 149.374 0.0302734 149.84V150V150.08V150.31V150.38V150.45V150.54V150.93V150.99V151.77V151.87V151.92V151.921C0.0302734 153.091 0.0302734 154.26 0.10025 155.43V155.54V155.59V155.64V155.74V155.97C0.10025 156.58 0.100267 157.19 0.180267 157.8L7.18026 157.46C7.07026 155.27 7.02026 153.05 7.02026 150.85V150.849C7.02026 149.25 7.02026 147.64 7.10025 146.04L0.10025 145.8L0.090271 145.94ZM7.91878 168.976L8.19027 168.94L7.86026 168.55C7.87954 168.692 7.89904 168.834 7.91878 168.976ZM7.91878 168.976L1.25027 169.87C1.44027 171.24 1.64026 172.61 1.86026 173.97V174.1V174.22V174.44V174.6V174.65V174.76V174.81C2.07016 176.019 2.30004 177.219 2.52993 178.418L2.52996 178.418L2.53027 178.42V178.47V178.52V178.57V178.68V178.89V178.97C2.69027 179.75 2.85027 180.52 3.03027 181.29L9.86026 179.77C9.07126 176.219 8.42113 172.595 7.91878 168.976ZM13.1402 191.17L13.0184 191.208C12.9889 191.115 12.9595 191.023 12.9302 190.93L13.1402 191.17ZM13.0184 191.208C14.1372 194.725 15.4073 198.23 16.8102 201.64L10.3402 204.31L10.21 203.988C10.0468 203.585 9.88852 203.194 9.73025 202.79V202.62V202.51C8.53692 199.477 7.44693 196.397 6.46026 193.27L13.0184 191.208ZM21.7274 212.272L21.8102 212.23L21.4502 211.74C21.5421 211.917 21.6345 212.095 21.7274 212.272ZM21.7274 212.272L15.5502 215.41C15.8241 215.935 16.1042 216.458 16.3836 216.978L16.3839 216.979L16.384 216.979L16.385 216.981C16.605 217.391 16.8246 217.801 17.0402 218.21L17.1402 218.4V218.45V218.51L17.2702 218.75C18.5202 220.99 19.8202 223.2 21.1902 225.36L27.1102 221.63C25.2159 218.599 23.3933 215.451 21.7274 212.272ZM33.9502 231.5L33.0877 232.151C32.0987 230.935 31.1359 229.702 30.2102 228.46L33.9502 231.5ZM33.0877 232.151C34.5027 233.892 35.9711 235.6 37.4602 237.26L32.2602 241.94L31.5402 241.14L31.4802 241.06L31.3102 240.86L31.2502 240.79L31.2002 240.72L31.1402 240.66L31.0902 240.6H31.0402V240.55V240.5V240.45V240.4V240.35V240.3V240.25V240.2L30.9902 240.14L30.9402 240.09V240.04L30.8902 239.98L30.8402 239.93L30.7902 239.87L30.7402 239.82L30.6902 239.76L30.6402 239.7L30.5902 239.65L30.5402 239.59L30.4902 239.53L30.4402 239.47L30.3902 239.41L30.3402 239.35L30.2902 239.29L30.2402 239.22L30.1902 239.16L30.1402 239.1L30.0802 239.04V238.97V238.91V238.85V238.78L30.0302 238.71L29.9802 238.64L29.9302 238.58L29.8802 238.51L29.7702 238.37L29.7102 238.31L29.6602 238.24L29.6102 238.18L29.5502 238.12L29.5002 238.06L29.4502 237.99L29.4002 237.93L29.3502 237.86L29.3002 237.8L29.2502 237.73V237.67V237.6L29.2002 237.54L29.1502 237.48L29.1002 237.42L29.0502 237.36L29.0002 237.3V237.24V237.18V237.12V237.06L28.9502 237.01L28.9002 236.96L28.8502 236.9L28.8002 236.84V236.79V236.73V236.68L28.7502 236.62V236.57L28.7002 236.51L28.6502 236.46L28.6002 236.41V236.35V236.3V236.25V236.2V236.15L28.5502 236.1H28.5002V236.04V235.98L28.4502 235.91L28.3602 235.79V235.72L33.0877 232.151ZM44.3802 253.56L49.1802 248.45L47.7002 246.83C50.4602 249.43 53.3302 251.93 56.3302 254.28L51.9902 259.77C51.517 259.421 51.1057 259.079 50.6821 258.727L50.5574 258.624L50.4202 258.51L50.3502 258.45L50.1602 258.29L50.1002 258.24L50.0402 258.19H49.9902H49.9402V258.14H49.8902H49.8402L49.7802 258.09L49.7302 258.04H49.6802H49.6202H49.5702H49.5202L49.4602 257.99V257.94H49.4002L49.3402 257.89H49.2802H49.2202L49.1702 257.84L49.1102 257.79L49.0502 257.74L48.9802 257.69L48.9202 257.64L48.8602 257.59L48.8002 257.53L48.7402 257.48L48.6802 257.43V257.38L48.6202 257.33L48.5502 257.28L48.4802 257.23L48.4202 257.18L48.3602 257.12L48.3002 257.06L48.2302 257L48.1702 256.95L48.1102 256.9L48.0402 256.84L47.9702 256.78L47.9102 256.72L47.8502 256.66L47.7802 256.61L47.7102 256.55L47.6402 256.49L47.5702 256.43L47.5002 256.37L47.2902 256.18L47.2202 256.12L47.1502 256.06L47.0102 255.93L46.9402 255.87L46.8702 255.81L46.5902 255.56L44.3802 253.56ZM67.0402 262.54L63.1802 268.38C64.3502 269.15 65.5202 269.9 66.7002 270.63C68.1031 271.541 69.5308 272.344 70.9683 273.152L71.3902 273.39H71.4502L71.5902 273.47H71.6402L72.8102 274.11L76.1602 267.97C72.8402 266.16 69.5502 264.18 66.3902 262.09L67.0402 262.54ZM87.0387 273.444L87.0402 273.44L86.8702 273.37L87.0387 273.444ZM87.0387 273.444L84.2302 279.85L86.1102 280.66C89.1102 281.92 92.1536 283.073 95.2402 284.12L97.5002 277.5C93.9683 276.3 90.4557 274.935 87.0387 273.444ZM108.6 280.77L106.93 287.54C109.69 288.22 112.49 288.82 115.31 289.34H115.48H115.58H116.04L118.69 289.78L119.77 282.86C116.03 282.28 112.27 281.52 108.6 280.62V280.77ZM130.61 291.3L131.1 284.3V284.18C134.28 284.41 137.51 284.52 140.71 284.52H142.51L142.6 291.52H134.45C133.17 291.46 131.88 291.39 130.61 291.3ZM165.19 282.41C161.47 283.1 157.67 283.63 153.9 284L154.58 291H155H155.24C157.57 290.76 159.89 290.46 162.18 290.11H162.28H162.46H162.61H162.73H163.55H163.65H163.82H164.09C164.88 289.98 165.67 289.84 166.45 289.69L165.18 282.81L165.19 282.41ZM176.29 279.86C179.94 278.85 183.59 277.68 187.14 276.36L189.57 282.93C185.837 284.317 182.03 285.543 178.15 286.61L176.29 279.86ZM207.74 266.65C204.46 268.56 201.07 270.34 197.65 271.95L200.65 278.28C201.59 277.84 202.52 277.39 203.44 276.93L203.55 276.88H203.68H203.75L203.84 276.83H203.89C206.063 275.73 208.197 274.573 210.29 273.36H210.35L210.45 273.31L210.61 273.22L207.1 267.16L207.74 266.65ZM217.34 260.52C220.4 258.34 223.49 256.01 226.4 253.58L222.82 258.2L227.31 263.57C226.43 264.303 225.55 265.023 224.67 265.73L224.6 265.79H224.52L224.4 265.89L224.33 265.95L224.27 266L224.21 266.05H224.16H224.11H224.06H224.01H223.95H223.89H223.84L223.79 266.1H223.74H223.68H223.62H223.56H223.5H223.45H223.4L223.34 266.15H223.29H223.24H223.19H223.13H223.07H223.02L222.97 266.2H222.92H222.86H222.81H222.76H222.7H222.64H222.59H222.54H222.49H222.43H222.38H222.33H222.28H222.23H222.18H222.13H222.08H222.02H221.96H221.91H221.86H221.81H221.76H221.71H221.65H221.59L221.52 266.25H221.46H221.4H221.34L217.34 260.52ZM242.55 237.54C240.1 240.43 237.49 243.24 234.8 245.91L239.73 250.91C242.57 248.09 245.287 245.157 247.88 242.11L242.55 237.54ZM255.143 220.083C255.36 219.723 255.576 219.362 255.79 219L254.7 219.82L255.143 220.083ZM255.143 220.083C253.399 222.971 251.544 225.812 249.57 228.55L255.26 232.62C256.11 231.44 256.93 230.24 257.74 229.03L257.89 228.82V228.74L257.94 228.67V228.59V228.53V228.48V228.43V228.38V228.33V228.27V228.21V228.15V228.09V228.03V227.97L257.99 227.9L258.09 227.76V227.69V227.62L258.24 227.39C259.08 226.057 259.9 224.723 260.7 223.39L255.143 220.083ZM265.69 198.49C264.34 202.03 262.82 205.55 261.18 208.96L267.48 211.96C268.853 209.12 270.13 206.23 271.31 203.29L271.37 203.15V203.06L271.45 202.85C271.499 202.726 271.547 202.603 271.596 202.48C271.767 202.047 271.937 201.616 272.1 201.18L265.72 198.54L265.69 198.49ZM271.781 177.348C271.832 177.096 271.881 176.843 271.93 176.59L271.43 177.28L271.781 177.348ZM271.781 177.348C271.089 180.816 270.25 184.287 269.28 187.68L276.01 189.6C276.01 189.474 276.058 189.348 276.106 189.225C276.13 189.163 276.153 189.101 276.17 189.04L276.24 188.79V188.68V188.63V188.54V188.49V188.06V187.93V187.85V187.67L276.3 187.45C277.06 184.537 277.727 181.593 278.3 178.62L271.781 177.348ZM274.36 153.94C274.27 157.74 274.03 161.57 273.62 165.32L280.62 166.07C281.053 162.117 281.31 158.117 281.39 154.07L274.39 153.92L274.36 153.94ZM272.94 131.17L279.87 130.17L280.42 130.31V130.38V130.46V130.54V130.98V131.1V131.25V131.41V131.54V132.24V132.36V132.49V132.54V132.67V132.75V132.97V133.14V133.47C280.687 135.597 280.903 137.74 281.07 139.9V140.18V140.41V140.54V141.11V141.21V141.26L281.13 142.08L274.13 142.51C273.94 138.72 273.5 134.91 272.94 131.17ZM274.34 106.84L267.69 109.03C268.88 112.63 269.92 116.31 270.79 120.03L277.61 118.41C277.05 116.07 276.437 113.737 275.77 111.41V111.36L275.7 111.15L275.65 111V110.95V110.85V110.8V110.7V110.65V110.49V110.44V110.39C275.628 110.302 275.601 110.215 275.57 110.13V110.08C275.3 109.22 275.03 108.37 274.75 107.52L274.34 106.84ZM258.74 88.14L264.91 84.84L265.53 86.16C266.23 87.4933 266.913 88.8266 267.58 90.16L267.71 90.41C267.724 90.4343 267.74 90.4595 267.757 90.4851C267.802 90.5542 267.85 90.6271 267.85 90.7L267.97 90.95C267.999 91.0218 268.033 91.092 268.07 91.16L268.17 91.36C268.209 91.4235 268.243 91.4904 268.27 91.56L268.37 91.77L268.49 92.02L268.59 92.23L268.66 92.4C268.691 92.4858 268.727 92.5694 268.77 92.65C268.789 92.6951 268.816 92.7388 268.843 92.7816C268.887 92.8527 268.93 92.9213 268.93 92.99C269.33 93.8833 269.72 94.7733 270.1 95.66L263.67 98.41C262.18 94.94 260.52 91.48 258.74 88.14ZM251.91 64.73L246.38 69.02C248.71 72.02 250.93 75.14 252.99 78.32L258.85 74.54C256.67 71.2066 254.353 67.9466 251.9 64.76L251.91 64.73ZM230.93 52.28L235.65 47.11L238.22 50.02L238.28 50.07H238.33H238.38L238.43 50.12H238.48H238.53V50.17V50.22L238.58 50.27H238.63L238.68 50.32H238.73H238.78H238.83L238.88 50.37L238.93 50.42V50.47L238.98 50.52H239.03H239.08H239.13H239.19L239.25 50.57L239.3 50.62L239.36 50.68L239.41 50.73L239.46 50.78L239.51 50.84H239.56L239.62 50.9H239.68L239.74 50.96L239.8 51.02L239.86 51.08L239.92 51.14L239.98 51.2L240.04 51.26L240.1 51.32L240.17 51.38L240.23 51.44L240.29 51.51L240.42 51.64L240.49 51.71L240.55 51.77L241.07 52.3C241.95 53.19 242.81 54.09 243.66 55.01L243.72 55.07L243.91 55.27L243.97 55.34L244.03 55.41L244.09 55.48L244.15 55.54L239.01 60.28C236.44 57.54 233.72 54.83 230.93 52.28ZM216.65 32.49L212.86 38.38C216.05 40.43 219.19 42.64 222.19 44.95L226.46 39.4C223.287 36.96 220.017 34.6566 216.65 32.49ZM192.72 27.75L195.45 21.31C199.143 22.87 202.757 24.5833 206.29 26.45L203.02 32.64C199.67 30.87 196.21 29.23 192.72 27.75ZM172.65 13.9L171.07 20.72C174.75 21.58 178.45 22.6 182.07 23.77L184.24 17.11C180.96 16.05 177.627 15.1066 174.24 14.28H174.08H173.98H173.75L172.65 14.02V13.9ZM148.52 17.5L148.92 10.5L148.96 11H151.03H151.22H151.32H151.55H151.61H151.79H154.59H154.76H155.04H155.1C157.03 11.19 158.95 11.43 160.86 11.7L159.86 18.63C156.12 18.1 152.31 17.71 148.52 17.5Z" fill="#E0E7EA"/>
<path fill-rule="evenodd" clip-rule="evenodd" d="M255.68 92.26H251.34C248.773 92.34 246.223 92.4866 243.69 92.7L244.28 99.7C248.04 99.38 251.88 99.22 255.68 99.22V92.26ZM231.79 94.26C230.08 94.55 228.37 94.87 226.68 95.26H226.47H226.36H226.14H226.09H225.88H225.77L225.55 95.54H225.44L225.23 95.59H225.18H225.12H224.91H224.8H224.59H224.54L224.27 95.65H224.16H223.95H223.84H223.63H223.52L223.31 95.7L220.16 96.48L221.93 103.26C225.59 102.26 229.34 101.49 233.07 100.86L231.89 93.96L231.79 94.26ZM208.31 100.36L208.6 100.26L208.77 99.65L211.11 106.24C207.54 107.51 203.99 108.95 200.54 110.51L197.64 104.14L199.41 103.36L199.55 103.3H199.9H200.12H200.22H200.42L200.67 103.19C203.037 102.183 205.437 101.24 207.87 100.36H208.04H208.11H208.16H208.26H208.31ZM186.78 110.18L185.46 110.93H185.41H185.35H185.3H185.24C182.38 112.597 179.58 114.363 176.84 116.23L180.78 122.01C183.91 119.88 187.17 117.86 190.47 116.01L187.04 109.91L186.78 110.18ZM165.2 125.2L166.96 123.74L167.1 123.56L171.52 128.99C168.58 131.38 165.71 133.93 162.98 136.56L158.12 131.56L159.12 130.56L159.19 130.5L159.39 130.31L159.46 130.25L159.53 130.19L159.67 130.07L159.73 130.01L159.79 129.95L159.99 129.77L160.06 129.71L160.13 129.65L160.26 129.53L160.32 129.47H160.38L160.51 129.35L160.58 129.29L160.65 129.23L160.72 129.17L160.85 129.05L160.91 128.99L160.97 128.93L161.17 128.75L161.24 128.69L161.31 128.63L161.45 128.5L161.52 128.44L161.59 128.38L161.8 128.2L161.87 128.14L162.08 127.96L162.14 127.9L162.21 127.84L162.41 127.66L162.48 127.6L162.55 127.54L162.68 127.08L162.75 127.02H162.82L162.96 126.9L163.03 126.84L163.1 126.78H163.16L163.23 126.72H163.3H163.36L163.42 126.66L163.49 126.6L163.55 126.54L164.41 125.87L164.47 125.82L164.53 125.77L164.58 125.72L164.64 125.67L164.69 125.62L164.75 125.57L164.81 125.52L164.87 125.47L164.93 125.42L164.98 125.37H165.03L165.08 125.32L165.14 125.26L165.2 125.2ZM149.71 140.39L148.85 141.39L148.67 141.6L148.61 141.67L148.55 141.73L148.43 141.87L148.37 141.94L148.32 142.01L148.27 142.08L148.16 142.21L148.11 142.27L148.06 142.34L147.95 142.48L147.9 142.55V142.61L147.84 142.68L147.72 142.82L147.66 142.89L147.6 142.96L147.42 143.17C145.67 145.29 143.97 147.46 142.35 149.68L147.99 153.82C150.23 150.77 152.63 147.82 155.12 144.93L149.85 140.32L149.71 140.39ZM134.37 161.71C134.76 161.01 135.15 160.36 135.55 159.71L136 159L142 162.65C140.03 165.91 138.17 169.26 136.48 172.65L130.22 169.52L130.45 169.06V169C131.69 166.56 132.99 164.17 134.37 161.81V161.76V161.71ZM124.84 181.15L124.45 182.15V182.2L124.39 182.35V182.44V182.65V182.78L124.31 183C123.237 185.833 122.263 188.707 121.39 191.62L121.32 191.84L128.02 193.84C129.11 190.21 130.37 186.59 131.76 183.07L125.25 180.49L124.84 181.15ZM117.52 206.35C117.66 205.62 117.81 204.88 117.96 204.15V204.14L124.81 205.57C124.04 209.27 123.42 213.06 122.97 216.82L116.02 215.98C116.393 212.86 116.87 209.77 117.45 206.71C117.458 206.665 117.469 206.62 117.481 206.575C117.501 206.5 117.52 206.425 117.52 206.35ZM115.09 227.95V228.3V228.54V228.62V228.69C115.09 229.239 115.075 229.818 115.06 230.404L115.06 230.404L115.06 230.404C115.047 230.885 115.035 231.372 115.03 231.85V232.01V232.08V232.23V232.3V232.37V232.54V232.69V232.93V233.1V233.82V233.87C115.03 235.09 115.03 236.29 115.1 237.5V237.55V237.61V237.66V237.71V237.94C115.1 238.361 115.126 238.783 115.151 239.204C115.161 239.373 115.172 239.541 115.18 239.71L122.18 239.37C122.07 237.19 122.02 234.96 122.02 232.77C122.02 231.17 122.02 229.55 122.1 227.96L115.1 227.71L115.09 227.95ZM122.928 250.985L123.19 250.95L122.89 250.71L122.928 250.985ZM122.928 250.985L116.26 251.88C116.43 253.16 116.62 254.43 116.82 255.7V255.79V255.97V256.07V256.18V256.38V256.48V256.53C117.12 258.283 117.453 260.027 117.82 261.76V261.81V261.97V262.02V262.37L118.06 263.45L124.89 261.93C124.09 258.33 123.433 254.645 122.928 250.985ZM128.14 273.18L128.021 273.218C127.984 273.102 127.947 272.986 127.91 272.87L128.14 273.18ZM128.021 273.218C129.134 276.711 130.397 280.192 131.8 283.58L125.32 286.25C124.133 283.363 123.04 280.43 122.04 277.45V277.4L121.98 277.2V277.15V277.1V276.88L121.92 276.71C121.845 276.47 121.768 276.232 121.69 275.995C121.613 275.757 121.535 275.52 121.46 275.28L128.021 273.218ZM136.536 294.374L136.82 294.23L134.82 291.16C135.374 292.236 135.947 293.308 136.536 294.374ZM136.536 294.374L130.55 297.42C130.967 298.229 131.392 299.033 131.815 299.834L131.815 299.835C132.062 300.301 132.307 300.766 132.55 301.23L132.69 301.47L132.78 301.63V301.69L132.84 301.79L132.9 301.89V301.95L132.96 302.06L133.04 302.21V302.26L133.13 302.41L133.22 302.56L133.31 302.72C133.36 302.8 133.41 302.88 133.45 302.96L133.56 303.15L133.66 303.3L133.78 303.5L133.88 303.65L133.94 303.75L133.99 303.84V303.89L134.09 304.06C134.146 304.15 134.204 304.24 134.262 304.33L134.263 304.331L134.263 304.332L134.264 304.333L134.264 304.333C134.36 304.483 134.457 304.635 134.55 304.79L140.47 301.06C139.11 298.878 137.788 296.64 136.536 294.374ZM148.92 313.54L148.92 313.54L148.89 313.5L148.92 313.54ZM148.92 313.54C151.162 316.546 153.621 319.492 156.14 322.3L150.94 326.97C148.273 324.01 145.74 320.94 143.34 317.76L148.92 313.54ZM159.35 335.54L164.15 330.44L163.3 329.33C166.06 331.92 168.93 334.43 171.93 336.78L167.59 342.27L166.31 341.27L166.24 341.21L166.12 341.12L166.06 341.07H166.01H165.96H165.91L165.85 341.02L165.79 340.97L165.73 340.92L165.66 340.87L165.6 340.81L165.53 340.75L165.39 340.63L165.31 340.57C163.903 339.41 162.533 338.227 161.2 337.02L161.14 336.96L161.07 336.9L161 336.84L160.94 336.78H160.88H160.82H160.76H160.71L160.64 336.73L160.56 336.66L159.35 335.54ZM182.02 344.54L178.15 350.37L178.68 350.72H178.73C180.24 351.72 181.78 352.66 183.33 353.59H183.39L183.48 353.65H183.56H183.62C185 354.46 186.39 355.24 187.79 356.01L191.14 349.86C187.82 348.05 184.54 346.08 181.38 343.99L182.02 344.54ZM199.21 361.85L202.02 355.44L201.89 355.27C205.36 356.79 208.93 358.18 212.52 359.39L210.26 366.02C207.273 365 204.33 363.887 201.43 362.68H201.38H201.29H201.14L199.21 361.85ZM223.55 362.8L221.88 369.6C224.36 370.21 226.88 370.76 229.4 371.23H229.62H229.78H229.88H230.44H230.57H230.71C231.71 371.41 232.66 371.57 233.64 371.73L234.73 364.81C230.98 364.22 227.22 363.47 223.55 362.56V362.8ZM245.56 373.34L246.05 366.34V366.25C249.23 366.47 252.46 366.59 255.66 366.59H257.46L257.55 373.59H249.96C248.48 373.53 247.02 373.45 245.56 373.34ZM280.14 364.44C276.42 365.13 272.62 365.67 268.85 366.04L269.53 373.04H269.96H270.19H270.24C272.57 372.8 274.88 372.51 277.18 372.15H277.28H277.45H277.6H277.72H278.24H278.34H278.78H279.05L281.41 371.74L280.14 364.85V364.44ZM291.24 361.93C294.89 360.93 298.54 359.75 302.09 358.44L301.87 358.93L304.3 365.49C303.09 365.94 301.87 366.37 300.65 366.79H300.6L300.38 366.86H300.19H299.98H299.88H299.77C298.33 367.33 296.89 367.78 295.43 368.21L295.17 368.29H295.01L294.86 368.34H294.32L293.1 368.68L291.24 361.93ZM322.69 348.73C319.41 350.63 316.02 352.41 312.6 354.03L315.6 360.36L317.29 359.55H317.39H317.47H317.61H317.7H317.8H317.86L318.04 359.46L318.33 359.32L321.25 357.54L321.91 357.19H321.96C323.38 356.43 324.787 355.643 326.18 354.83L322.67 348.78L322.69 348.73ZM332.3 342.59C335.35 340.42 338.44 338.09 341.35 335.66L340.6 336.51L345.09 341.88C342.77 343.82 340.383 345.687 337.93 347.48L337.85 347.54L337.63 347.7L337.56 347.76L337.48 347.81L337.33 347.92L337.26 347.97L337.19 348.02L337.12 348.07H337.05L336.99 348.12L336.93 348.17H336.86L336.8 348.22L336.74 348.27H336.68H336.62H336.56H336.51H336.46H336.41H336.36L336.3 348.32L332.3 342.59ZM357.55 319.54C355.1 322.42 352.49 325.24 349.8 327.9L354.73 332.9C355.26 332.38 355.79 331.84 356.31 331.31L356.38 331.24L356.44 331.17L356.57 331.04L356.62 330.98L356.68 330.92L356.74 330.86V330.81L356.79 330.75V330.69L356.85 330.63H356.9L356.95 330.58V330.53L357 330.48H357.06L357.13 330.41L357.19 330.35V330.29V330.23L357.3 330.12L357.37 330.05L357.43 329.98L357.54 329.86L357.61 329.79L357.67 329.72L357.73 329.65L357.83 329.54L357.89 329.47L357.95 329.4L358.05 329.28L358.11 329.22L358.17 329.16L358.23 329.1L358.28 329.05V328.99L358.33 328.94H358.38V328.89V328.84V328.79V328.74L358.43 328.68V328.63L358.48 328.57V328.51L358.53 328.45L358.65 328.32L358.71 328.25C358.823 328.123 358.938 327.996 359.053 327.868L359.053 327.868C359.429 327.452 359.807 327.033 360.12 326.62L357.55 319.54ZM370.024 302.276C370.282 301.852 370.537 301.426 370.79 301L369.24 301.81L370.024 302.276ZM370.024 302.276C368.315 305.092 366.499 307.874 364.57 310.55L370.26 314.62L371.02 313.55L371.18 313.32V313.24V313.16L371.28 313.01V312.94L371.33 312.87V312.8V312.74V312.67V312.6V312.54V312.48V312.42V312.36V312.3V312.25V312.19V312.13V312.08V312.03V311.97V311.92V311.87V311.81V311.74V311.67L371.38 311.59V311.52L371.44 311.44L371.58 311.22C372.847 309.307 374.067 307.36 375.24 305.38L370.024 302.276ZM380.69 280.49C379.34 284.02 377.82 287.54 376.18 290.95L382.48 294C382.533 293.889 382.586 293.779 382.639 293.67L382.642 293.663L382.644 293.66C382.809 293.316 382.972 292.976 383.13 292.63V292.58V292.41L383.2 292.26C383.82 290.91 384.42 289.56 385 288.19L385.13 287.89V287.81V287.75V287.43V287.38V287.33C385.13 287.274 385.16 287.217 385.191 287.158C385.205 287.132 385.218 287.107 385.23 287.08C385.69 285.96 386.14 284.83 386.57 283.7L380.69 280.54V280.49ZM386.884 258.826L386.93 258.59L386.75 258.8L386.884 258.826ZM386.884 258.826C386.173 262.468 385.298 266.117 384.28 269.67L391.01 271.59L391.08 271.35V271.2V270.97V270.9C392.073 267.373 392.92 263.787 393.62 260.14L386.884 258.826ZM389.36 235.94C389.27 239.73 389.03 243.56 388.63 247.32L395.63 248.06C396.05 244.12 396.307 240.12 396.4 236.06L389.4 235.91L389.36 235.94ZM387.94 213.16L394.87 212.16L395.49 212.45C395.7 213.87 395.89 215.3 396.05 216.73V216.95V217.01V217.12V217.17V217.22V217.33V217.43V217.48V217.54V217.93V217.99V218.04V218.25V220.07V221.8V222.06V222.33V222.54V222.65V222.7V222.86V222.91V222.97C396.059 223.07 396.069 223.172 396.079 223.273C396.104 223.536 396.13 223.8 396.13 224.06L389.13 224.5C388.94 220.71 388.5 216.9 387.94 213.16ZM389.34 188.84L382.7 191.03C383.88 194.62 384.92 198.31 385.8 202.03L392.61 200.42C392.4 199.54 392.18 198.67 391.96 197.81V197.76V197.71V197.47V197.31V197.26C391.24 194.51 390.43 191.78 389.54 189.1L389.34 188.84ZM373.74 170.13L379.91 166.84L380.2 167.17C380.65 168 381.08 168.83 381.5 169.67V169.78C382.63 172 383.7 174.26 384.7 176.55V176.62V176.72C384.765 176.88 384.833 177.035 384.9 177.19L384.9 177.19C384.968 177.345 385.035 177.5 385.1 177.66L378.67 180.41C377.18 176.93 375.52 173.47 373.74 170.13ZM366.91 146.73L361.38 151.02C363.71 154.02 365.93 157.14 367.99 160.31L373.86 156.5C371.68 153.167 369.363 149.91 366.91 146.73ZM345.93 134.27L350.66 129.11V129.06C353.607 131.76 356.44 134.58 359.16 137.52L354.01 142.27C351.44 139.54 348.73 136.83 345.93 134.27ZM331.66 114.49L331.625 114.544L331.62 114.54L331.66 114.49ZM331.625 114.544L327.88 120.38C331.06 122.38 334.2 124.63 337.2 126.94L341.47 121.39L339.38 119.81H339.31L339.16 119.7L339.09 119.65L339.02 119.6L338.96 119.55L338.9 119.5H338.84L338.78 119.45H338.72H338.66H338.61H338.56H338.51H338.46H338.41H338.35H338.29L338.23 119.4L338.11 119.31H338.05H337.98H337.92L337.86 119.26H337.8L337.73 119.21L337.6 119.13L337.53 119.08H337.47L337.4 119.03H337.34H337.27H337.2L337.13 118.98L337.07 118.93H337L336.88 118.85L336.82 118.8L336.76 118.75L336.68 118.7L336.61 118.65L336.55 118.6H336.47L336.34 118.51L336.26 118.45L336.17 118.39L335.95 118.24L331.625 114.544ZM307.73 109.75L310.46 103.3L310.95 103.79C313.763 105.01 316.53 106.287 319.25 107.62H319.3L319.46 107.7H319.56H319.64H319.78H319.87L321.3 108.44L318.03 114.63C314.73 112.86 311.22 111.22 307.73 109.75ZM287.66 95.9L286.08 102.72C289.76 103.57 293.46 104.6 297.08 105.77L299.24 99.11C296.39 98.19 293.51 97.35 290.59 96.61H290.54H290.48H290.33H290.09H289.98H289.83C289.574 96.5494 289.318 96.4875 289.063 96.4257C288.603 96.3142 288.144 96.2029 287.68 96.1L287.66 95.9ZM263.49 99.54L263.89 92.54L263.95 93.29C265.903 93.41 267.843 93.5633 269.77 93.75H270.05H270.27H270.38H270.55H272.18H272.28H275.34H275.46H275.66H275.83L274.83 100.68C271.09 100.14 267.28 99.76 263.49 99.54Z" fill="#EFF6F9"/>
<path fill-rule="evenodd" clip-rule="evenodd" d="M345.81 497.74H343.09C340.03 497.8 336.973 497.96 333.92 498.22H333.82L334.42 505.22C338.19 504.9 342.02 504.74 345.81 504.74V497.74ZM321.92 499.74C317.99 500.41 314.07 501.25 310.2 502.26L311.96 509.04C315.62 508.04 319.37 507.28 323.11 506.64L321.92 499.74ZM287.6 510.23C291.26 508.57 294.97 507.073 298.73 505.74L301.06 512.34C297.49 513.6 293.94 515.04 290.49 516.6L287.6 510.23ZM276.9 515.65L275.69 516.34L275.54 516.43H275.48H275.41L275.32 516.48C272.62 518.06 269.953 519.727 267.32 521.48L271.26 527.27C274.39 525.14 277.64 523.12 280.94 521.27L277.51 515.17L276.9 515.65ZM254.442 531.357L254.442 531.357L254.442 531.357C255.309 530.61 256.165 529.871 257.09 529.15L259.42 526.18L263.84 531.6C260.91 533.99 258.04 536.54 255.31 539.17L250.44 534.17L251.44 533.17L251.51 533.1L251.64 532.98L251.7 532.92L251.76 532.86L251.82 532.81H251.88L251.93 532.76H251.99V532.71H252.04H252.09H252.14H252.19H252.25L252.31 532.66L252.38 532.6H252.43L252.51 532.53L252.57 532.47L252.63 532.41L252.69 532.35L252.8 532.24L252.86 532.19L252.92 532.14H252.98H253.03L253.09 532.09H253.14H253.19H253.24V532.04H253.29H253.34H253.39L253.44 531.99H253.49L253.54 531.94H253.59H253.65L253.71 531.89H253.77H253.83L253.96 531.78L254.02 531.72L254.16 531.6L254.23 531.54L254.442 531.357ZM239.84 545.8C237.173 548.827 234.67 551.943 232.33 555.15L237.97 559.3C240.2 556.25 242.61 553.3 245.1 550.41L239.84 545.8ZM219.83 575.61C221.603 572.043 223.54 568.543 225.64 565.11L225.61 565.08L231.61 568.73C229.64 571.99 227.78 575.34 226.1 578.73L219.83 575.61ZM214.95 586.63C213.47 590.36 212.16 594.15 211.02 597.97L217.72 599.97C218.81 596.34 220.07 592.71 221.46 589.2L214.95 586.62V586.63ZM207.98 610.08L208.07 609.63L208.21 609.48L215.06 610.91C214.29 614.61 213.67 618.4 213.21 622.16L206.26 621.31C206.35 620.57 206.45 619.83 206.55 619.09V618.87V618.77V618.72V618.67C206.943 615.877 207.42 613.1 207.98 610.34V610.08ZM205.19 633.42C205.19 633.916 205.172 634.409 205.154 634.903C205.14 635.314 205.125 635.726 205.12 636.14V636.58C205.12 639.46 205.12 642.33 205.28 645.21L212.28 644.87C212.09 641.09 212.07 637.25 212.2 633.46L205.2 633.21L205.19 633.42ZM213.019 656.458L213.3 656.42L212.98 656.17C212.993 656.266 213.006 656.362 213.019 656.458ZM213.019 656.458L206.36 657.36C206.48 658.22 206.61 659.09 206.74 659.95V660V660.17V660.54V660.64V660.79V660.84V661.1C207.04 662.96 207.373 664.813 207.74 666.66V666.87V666.99V667.04C207.817 667.38 207.891 667.723 207.965 668.068C208.026 668.351 208.087 668.636 208.15 668.92L214.98 667.4C214.181 663.794 213.524 660.122 213.019 656.458ZM218.25 678.66L218.238 678.664L218.23 678.64L218.25 678.66ZM218.238 678.664C219.376 682.266 220.673 685.868 222.11 689.36L215.63 692.02C214.11 688.3 212.75 684.54 211.55 680.74L218.238 678.664ZM220.69 702.93L226.91 699.72C228.64 703.08 230.56 706.41 232.56 709.61L226.64 713.34C225.667 711.793 224.723 710.23 223.81 708.65C223.78 708.599 223.751 708.548 223.721 708.498L223.721 708.498L223.721 708.497C223.641 708.362 223.563 708.229 223.49 708.09L223.33 707.8L223.27 707.71C222.38 706.13 221.52 704.53 220.69 702.93ZM239.04 718.99L238.38 719.489C236.88 717.712 235.428 715.895 234.05 714.06L239.04 718.99ZM238.38 719.489C239.34 720.627 240.319 721.749 241.31 722.85L236.1 727.53L235.6 726.97L235.41 726.76L235.35 726.69L235.29 726.62L235.23 726.55L235.17 726.49L235.11 726.43L235.05 726.37L235 726.31L234.95 726.25L234.9 726.19L234.84 726.13H234.79L234.74 726.08H234.69V726.02V725.96L234.64 725.91V725.86L234.59 725.81V725.75L234.54 725.69H234.49V725.64L234.44 725.58L234.39 725.52L234.34 725.47H234.29L234.24 725.41V725.35L234.19 725.28V725.23V725.18V725.13V725.07V725.02V724.97V724.92V724.87L234.14 724.81L234.09 724.75V724.69V724.63V724.57V724.51V724.45L234.04 724.39V724.33V724.27V724.21V724.15L233.99 724.09L233.94 724.02L233.89 723.95V723.89L233.78 723.75L233.73 723.69L233.68 723.63L233.62 723.56L233.57 723.49L233.46 723.35V723.28V723.21L238.38 719.489ZM249.49 741.09L254.28 735.99L254.11 735.77C256.88 738.37 259.74 740.88 262.74 743.23L258.39 748.71L257.23 747.78L256.51 747.2L256.37 747.09H256.3L256.16 746.97L256.09 746.91L255.96 746.8L255.89 746.74L255.75 746.62L255.68 746.56L255.54 746.44L255.47 746.38L255.4 746.32L255.33 746.26L255.26 746.2L255.2 746.14L255.14 746.08L255.08 746.02L255.01 745.96L254.94 745.9L254.87 745.84L254.81 745.78L254.75 745.72L254.69 745.66H254.62L254.48 745.55L254.41 745.49L254.27 745.37L254.21 745.31L254.08 745.19L254.01 745.13L253.87 745.02L253.8 744.97L253.66 744.85L253.59 744.79L253.45 744.67L253.39 744.62L253.25 744.5L253.18 744.44L253.04 744.32L252.97 744.26L252.83 744.14L252.76 744.08L252.55 743.89C251.49 742.98 250.49 742.04 249.49 741.09ZM272.14 750.14L268.28 755.97C268.779 756.304 269.278 756.636 269.778 756.968L269.793 756.978L269.807 756.988C270.298 757.315 270.789 757.641 271.28 757.97H271.33H271.39C272.723 758.79 274.057 759.583 275.39 760.35L275.55 760.45H275.6H275.69H275.75L275.84 760.5H275.89L277.5 761.39L280.84 755.24C277.52 753.43 274.24 751.46 271.08 749.37L272.14 750.14ZM289.33 767.44L292.14 761.02L291.05 759.65C294.51 761.17 298.09 762.56 301.67 763.77L299.43 770.4C297.697 769.827 295.98 769.207 294.28 768.54H294.23L294.01 768.46H293.91L293.75 768.39H293.6L293.44 768.33H293.34H293.23H293.12H291.9H291.85H291.65L291.51 768.27L291.32 768.19H291.26L291.16 768.14H291.06L290.87 768.06L290.67 767.97H290.62L290.43 767.89H290.37L290.08 767.77L289.69 767.6L289.33 767.44ZM313.7 768.34L312.03 775.14H312.18C316.02 776.08 319.9 776.86 323.79 777.47L324.88 770.56C321.14 769.97 317.38 769.21 313.7 768.31V768.34ZM335.71 778.89L336.21 771.89V771.78C339.39 772 342.62 772.12 345.81 772.12H347.61L347.7 779.12H343.04C341.65 779.09 340.26 779.05 338.87 778.98H337.16L335.71 778.89ZM370.28 769.98C366.56 770.67 362.76 771.21 358.99 771.58L359.68 778.58H360.1H360.37H360.47C364.183 778.193 367.88 777.66 371.56 776.98L370.28 770.09V769.98ZM381.43 767.47C385.09 766.47 388.74 765.29 392.28 763.98L392.23 764.05L394.66 770.62C391.32 771.847 387.95 772.947 384.55 773.92H384.38L383.29 774.22L381.43 767.47ZM412.89 754.29C409.61 756.19 406.22 757.97 402.79 759.58L405.79 765.91C409.403 764.223 412.947 762.367 416.42 760.34L412.91 754.29H412.89ZM422.5 748.04C425.55 745.87 428.64 743.54 431.55 741.11L435.55 746.81C432.817 749.09 430.027 751.25 427.18 753.29L427.09 753.35L426.95 753.45L426.5 753.77L422.5 748.04ZM447.74 725.06C447.057 725.861 446.36 726.658 445.652 727.449L445.43 727.26L447.74 725.06ZM445.652 727.449L450.76 731.8C449.26 733.547 447.717 735.27 446.13 736.97L445.94 737.17L445.83 737.28L445.72 737.4L445.66 737.46H445.6H445.55H445.5V737.51V737.56V737.61V737.66H445.45V737.71L445.4 737.77V737.82H445.35V737.87L445.29 737.93L445.23 737.99H445.18V738.04H445.13V738.1V738.15V738.2L444.91 738.42L439.98 733.42L440.41 733C442.202 731.201 443.959 729.343 445.652 727.449ZM460.377 707.466C460.563 707.158 460.747 706.849 460.93 706.54L460.35 707.45L460.377 707.466ZM460.377 707.466C458.606 710.408 456.72 713.302 454.71 716.09L460.4 720.16C462.353 717.427 464.19 714.647 465.91 711.82C465.951 711.74 465.998 711.663 466.05 711.59V711.53L466.11 711.44L466.22 711.25L466.35 711.02L460.377 707.466ZM470.81 686.03C470.739 686.218 470.667 686.406 470.595 686.594L469.69 686.25L470.81 686.03ZM470.595 686.594L476.23 688.74L476.205 688.81L476.204 688.812L476.179 688.883C476.168 688.912 476.158 688.94 476.147 688.969L476.132 689.005L476.12 689.035C476.113 689.05 476.107 689.065 476.1 689.08V689.19V689.45V689.54V690.84V690.89L476.04 691.03L475.96 691.22V691.32C475.64 692.15 475.3 692.98 474.96 693.8L474.88 694V694.05V694.15V694.28V694.37V694.55L474.79 694.76C474.1 696.35 473.37 697.93 472.62 699.5L466.31 696.5C467.863 693.271 469.308 689.944 470.595 686.594ZM476.769 665.534C476.866 665.066 476.959 664.598 477.05 664.13L476.18 665.42L476.769 665.534ZM476.769 665.534C476.101 668.779 475.3 672.029 474.4 675.21L481.13 677.13V676.98V676.93V676.88C481.53 675.48 481.9 674.08 482.25 672.67V672.57V672.37V672.31V672.16V672.06V671.91V671.86V671.45V671.16V671.01V670.93V670.8V670.72C482.269 670.629 482.292 670.539 482.32 670.45C482.32 670.33 482.32 670.21 482.4 670.09C482.596 669.24 482.777 668.34 482.955 667.451L483.05 666.98V666.75L476.769 665.534ZM479.49 641.47L479.486 641.624L479.3 641.62L479.49 641.47ZM479.486 641.624L486.3 641.78C486.27 643.23 486.22 644.68 486.14 646.13V646.18V646.46V646.54V646.98V647.98V648.44V648.52V648.75V648.98V649.3C486.03 650.74 485.9 652.17 485.75 653.6L478.75 652.85C479.145 649.141 479.393 645.364 479.486 641.624ZM478.06 618.7L484.99 617.7L485.26 617.95V618.2V618.25V618.3V618.68V618.85V618.93V619.21C485.7 622.66 486.05 626.13 486.26 629.6L479.26 630.04C479.06 626.26 478.62 622.44 478.06 618.7ZM479.47 594.38L472.82 596.54C474 600.14 475.04 603.83 475.91 607.54L482.72 605.93C482.72 605.765 482.668 605.6 482.616 605.435C482.592 605.36 482.569 605.285 482.55 605.21L482.46 604.85V604.72V604.45V604.34V604.06V603.76V603.61L482.4 603.35C481.653 600.483 480.817 597.64 479.89 594.82L479.47 594.38ZM463.87 575.62L470.05 572.33L470.43 572.94C472.117 576.133 473.673 579.37 475.1 582.65L475.17 582.81L475.23 582.97V583.15L468.79 585.9C467.31 582.42 465.65 578.96 463.87 575.62ZM457.05 552.22L451.52 556.52C453.85 559.52 456.07 562.63 458.13 565.81L464 562L463.34 561L463.26 560.89L463.14 560.71C461.273 557.89 459.273 555.13 457.14 552.43L457.05 552.22ZM436.02 539.71L440.74 534.54L442.42 536.15L443 536.69L443.18 536.85L443.26 536.92L443.43 537.07L443.75 537.38L444.89 538.48L445.05 538.64L445.25 538.84L445.37 538.96L445.45 539.04L445.52 539.12V539.18H445.58L445.63 539.23V539.29L445.68 539.34H445.74L445.85 539.45L445.9 539.51L445.96 539.57L446.02 539.62L446.08 539.68L446.14 539.74L446.25 539.86L446.31 539.92L446.37 539.99L446.43 540.05L446.56 540.18L446.68 540.31C447.55 541.2 448.41 542.1 449.25 543.01L444.11 547.76C442.89 546.44 441.78 545.27 440.36 543.86C438.94 542.45 437.49 541.05 436.02 539.71ZM421.74 519.92L417.96 525.81C421.14 527.81 424.28 530.06 427.28 532.37L431.55 526.83C430.452 525.937 429.354 525.148 428.242 524.349L427.84 524.06L427.75 523.99C426.037 522.777 424.31 521.607 422.57 520.48L422.38 520.35L421.74 519.92ZM397.83 515.23L400.55 508.78L400.53 508.88L401.01 509.08H401.23L401.39 509.15C404.78 510.6 408.12 512.19 411.39 513.91L408.13 520.1C404.83 518.34 401.32 516.7 397.83 515.23ZM377.75 501.39L376.16 508.21C379.85 509.06 383.55 510.09 387.16 511.26L389.31 504.6C385.5 503.36 381.64 502.29 377.76 501.39H377.75ZM353.61 504.97L354.02 497.97L354.03 497.98C358.023 498.22 362 498.623 365.96 499.19L364.96 506.12C361.21 505.58 357.39 505.19 353.61 504.97Z" fill="#EFF6F9"/>
<path d="M750.15 1010.09C1017.01 1010.09 1233.34 1006.24 1233.34 1001.5C1233.34 996.756 1017.01 992.91 750.15 992.91C483.292 992.91 266.96 996.756 266.96 1001.5C266.96 1006.24 483.292 1010.09 750.15 1010.09Z" fill="#E4EFF7"/>
<path d="M309.32 535.32V758.29L299.32 999.95" stroke="#25282D" stroke-width="5"/>
<path d="M384.85 758.29L394.85 999.94" stroke="#25282D" stroke-width="5"/>
<path d="M515.85 758.29L525.85 999.94" stroke="#25282D" stroke-width="5"/>
<path d="M309.32 628.94H346.56" stroke="#25282D" stroke-width="5" stroke-linecap="square"/>
<path d="M383.27 503.9L382.7 503.77C379.314 502.967 376.12 501.505 373.299 499.467C370.478 497.429 368.087 494.856 366.261 491.893C364.435 488.931 363.211 485.638 362.659 482.202C362.106 478.766 362.235 475.256 363.04 471.87L385.48 377.32C387.15 370.534 391.433 364.681 397.397 361.038C403.361 357.394 410.522 356.254 417.323 357.865C424.123 359.477 430.012 363.709 433.707 369.642C437.401 375.574 438.603 382.726 437.05 389.54L414.61 484.09C413.014 490.834 408.84 496.685 402.981 500.388C397.123 504.091 390.047 505.352 383.27 503.9Z" fill="#EA6F57"/>
<path d="M401.63 456.93L406.45 458.79C412.06 460.951 418.078 461.849 424.075 461.42C430.072 460.991 435.901 459.246 441.146 456.308C446.392 453.37 450.925 449.312 454.424 444.423C457.923 439.533 460.302 433.933 461.39 428.02L466.78 398.74C468.524 389.282 466.879 379.511 462.136 371.144C457.392 362.778 449.852 356.35 440.84 352.99C430.673 349.204 419.418 349.611 409.551 354.121C399.683 358.631 392.011 366.875 388.22 377.04L378 404.47C374.239 414.564 374.61 425.734 379.034 435.556C383.459 445.378 391.578 453.058 401.63 456.93Z" fill="#EA6F57"/>
<path d="M386.596 420.346L386.606 420.343C394.551 417.92 399.027 409.515 396.604 401.57L394.113 393.401C391.69 385.456 383.285 380.98 375.34 383.403L375.331 383.406C367.386 385.829 362.909 394.234 365.332 402.179L367.823 410.347C370.246 418.292 378.651 422.769 386.596 420.346Z" fill="#EA6F57"/>
<path d="M373.99 395.23L382.44 410.61" stroke="#25282D" stroke-width="3"/>
<path d="M455.04 398.91L449.82 422.21L441.53 420.4" stroke="#25282D" stroke-width="3"/>
<path d="M392.2 411.38L414.2 372.59L419.42 363.39C421.199 366.689 423.514 369.669 426.27 372.21C436.27 381.49 471.93 388.15 483.2 364.86C492.38 345.86 468.11 351.86 457.55 347.72C440.95 341.28 431.69 328.11 404.97 334.65C372.97 342.54 376.55 383.13 376.55 383.13C376.55 383.13 390.12 381.54 392.2 411.38Z" fill="#24272D"/>
<path d="M420.79 461.21L405.71 458.07L418.06 473.25L420.79 461.21Z" fill="#24272D"/>
<path d="M437.22 410.98C439.545 410.98 441.43 409.095 441.43 406.77C441.43 404.445 439.545 402.56 437.22 402.56C434.895 402.56 433.01 404.445 433.01 406.77C433.01 409.095 434.895 410.98 437.22 410.98Z" fill="#24272D"/>
<path d="M462.13 415.07C464.455 415.07 466.34 413.185 466.34 410.86C466.34 408.535 464.455 406.65 462.13 406.65C459.805 406.65 457.92 408.535 457.92 410.86C457.92 413.185 459.805 415.07 462.13 415.07Z" fill="#24272D"/>
<path d="M426.3 423.94C426.3 423.94 431.98 425.63 433.17 431.2" stroke="#25282D" stroke-width="3"/>
<path d="M477.9 516.03C477.9 516.03 513.54 487.03 543.4 523.54C573.26 560.05 521.03 553.69 521.03 553.69L494.73 546.92L477.9 516.03Z" fill="#EA6F57"/>
<path d="M770.32 999.95H640.35L623.97 999.74L636.51 941.41L695.3 946.67L770.32 999.95Z" fill="#EA6F57"/>
<path d="M887.06 676.57L808.53 755.1L798.48 764.85L763.14 714.36L802.53 682.7L887.06 676.57Z" fill="#EA6F57"/>
<path d="M574.71 638.99L420.01 756.92H618.28V956.54H732.01V701.94C732.01 667.17 702.01 638.99 665.08 638.99H574.71Z" fill="#24272D"/>
<path d="M578.36 668.69L477.73 743.14C441.09 770.24 383.13 757.14 361.25 716.06L346.55 670.79L523.32 553.23C554.55 536.54 590.76 539.97 625.15 563.63L820.7 655.54L771.63 753.54L578.36 668.69Z" fill="#24272D"/>
<path d="M611.62 643.99L477.73 746.14C477.73 746.14 461.6 759.75 429.73 759.75" stroke="white" stroke-width="3"/>
<path d="M733.96 705.25C733.96 705.25 730.9 641.25 666.59 643.99C654.02 644.53 611.59 643.99 611.59 643.99" stroke="white" stroke-width="3"/>
<path d="M733.96 705.25V826.44" stroke="white" stroke-width="3"/>
<path d="M515.85 758.29H311.78" stroke="#25282D" stroke-width="5" stroke-linecap="square"/>
<path d="M439.72 758.29L430.32 999.94" stroke="#25282D" stroke-width="5"/>
<path d="M346.55 670.79C346.55 670.79 305.69 589.68 305.96 534.91C306.06 516.1 308.96 474.66 387.16 471.37C465.36 468.08 522.69 556.87 522.69 556.87L346.55 670.79Z" fill="#3361C2"/>
<mask id="mask0" mask-type="alpha" maskUnits="userSpaceOnUse" x="305" y="471" width="218" height="200">
<path fill-rule="evenodd" clip-rule="evenodd" d="M346.55 670.79C346.55 670.79 305.69 589.68 305.96 534.91C306.06 516.1 308.96 474.66 387.16 471.37C465.36 468.08 522.69 556.87 522.69 556.87L346.55 670.79Z" fill="white"/>
</mask>
<g mask="url(#mask0)">
<path d="M425.01 598.79C438.519 598.79 449.47 587.839 449.47 574.33C449.47 560.821 438.519 549.87 425.01 549.87C411.501 549.87 400.55 560.821 400.55 574.33C400.55 587.839 411.501 598.79 425.01 598.79Z" fill="#82B5A5"/>
<path d="M292.62 536.24C306.129 536.24 317.08 525.289 317.08 511.78C317.08 498.271 306.129 487.32 292.62 487.32C279.111 487.32 268.16 498.271 268.16 511.78C268.16 525.289 279.111 536.24 292.62 536.24Z" fill="#82B5A5"/>
<path d="M378.02 531.56C391.529 531.56 402.48 520.609 402.48 507.1C402.48 493.591 391.529 482.64 378.02 482.64C364.511 482.64 353.56 493.591 353.56 507.1C353.56 520.609 364.511 531.56 378.02 531.56Z" fill="#82B5A5"/>
<path d="M463.42 526.89C476.929 526.89 487.88 515.939 487.88 502.43C487.88 488.921 476.929 477.97 463.42 477.97C449.911 477.97 438.96 488.921 438.96 502.43C438.96 515.939 449.911 526.89 463.42 526.89Z" fill="#82B5A5"/>
<path d="M339.61 603.47C353.119 603.47 364.07 592.519 364.07 579.01C364.07 565.501 353.119 554.55 339.61 554.55C326.101 554.55 315.15 565.501 315.15 579.01C315.15 592.519 326.101 603.47 339.61 603.47Z" fill="#82B5A5"/>
<path d="M389.16 671.32C402.669 671.32 413.62 660.369 413.62 646.86C413.62 633.351 402.669 622.4 389.16 622.4C375.651 622.4 364.7 633.351 364.7 646.86C364.7 660.369 375.651 671.32 389.16 671.32Z" fill="#82B5A5"/>
<path d="M402.36 526.95L356.65 582.31L322.52 553.08" stroke="white" stroke-width="3"/>
</g>
<path d="M374.32 555.21L391.63 564.53L492.5 530" stroke="#EA6F57" stroke-width="43" stroke-linejoin="round"/>
<path d="M498.55 548.05C497.672 548.457 496.762 548.791 495.83 549.05C495.43 549.17 495.02 549.26 494.61 549.34L495.81 548.95L498.55 548.05Z" fill="#EA6F57"/>
<path d="M402.36 526.95L356.65 582.31L322.52 553.08" fill="#3361C2"/>
<path d="M507.39 532.3C507.39 541.75 502.45 549.84 495.45 553.21L492.71 554.14L491.51 554.54L475.09 560.11C477.803 558.501 480.102 556.279 481.8 553.62C484.443 549.52 485.833 544.738 485.8 539.86C485.8 530.02 480.43 521.63 472.93 518.54C470.914 517.703 468.753 517.272 466.57 517.27C465.325 517.273 464.084 517.414 462.87 517.69L480.17 511.77L481.98 511.15L485.55 509.93C486.419 509.781 487.299 509.708 488.18 509.71C498.78 509.71 507.39 519.82 507.39 532.3Z" fill="#111316"/>
<path d="M616.65 557.06C614.14 561.54 618.5 573.88 634.09 581.88C649.68 589.88 664.19 586.16 666.29 581.88C667.75 578.88 655.58 568.21 644.35 562.8C632.55 557.15 618.82 553.19 616.65 557.06Z" fill="#EA6F57"/>
<path d="M483.694 500.371L458.797 509.848C455.649 511.047 454.067 514.569 455.265 517.714C456.462 520.86 459.986 522.439 463.134 521.241L488.031 511.763C491.18 510.565 492.761 507.043 491.564 503.897C490.366 500.751 486.843 499.172 483.694 500.371Z" fill="#25282D"/>
<path d="M1220.94 423.54V949.74C1220.94 962.715 1215.78 975.158 1206.6 984.332C1197.43 993.506 1184.99 998.66 1172.01 998.66H847.7C841.276 998.66 834.914 997.395 828.979 994.936C823.044 992.478 817.651 988.874 813.108 984.332C808.566 979.789 804.962 974.396 802.504 968.461C800.045 962.526 798.78 956.164 798.78 949.74V423.54H1220.94Z" fill="white"/>
<path fill-rule="evenodd" clip-rule="evenodd" d="M800.94 423.54H812.94V426.54H800.94V423.54ZM836.94 423.54H824.94V426.54H836.94V423.54ZM848.94 423.54H860.94V426.54H848.94V423.54ZM884.94 423.54H872.94V426.54H884.94V423.54ZM896.94 423.54H908.94V426.54H896.94V423.54ZM932.94 423.54H920.94V426.54H932.94V423.54ZM944.94 423.54H956.94V426.54H944.94V423.54ZM980.94 423.54H968.94V426.54H980.94V423.54ZM992.94 423.54H1004.94V426.54H992.94V423.54ZM1028.94 423.54H1016.94V426.54H1028.94V423.54ZM1040.94 423.54H1052.94V426.54H1040.94V423.54ZM1076.94 423.54H1064.94V426.54H1076.94V423.54ZM1088.94 423.54H1100.94V426.54H1088.94V423.54ZM1124.94 423.54H1112.94V426.54H1124.94V423.54ZM1136.94 423.54H1148.94V426.54H1136.94V423.54ZM1172.94 423.54H1160.94V426.54H1172.94V423.54ZM1196.94 423.54H1184.94V426.54H1196.94V423.54ZM801.78 433.38H798.78V445.38H801.78V433.38ZM798.78 457.38H801.78V469.38H798.78V457.38ZM801.78 481.38H798.78V493.38H801.78V481.38ZM798.78 505.38H801.78V517.38H798.78V505.38ZM801.78 529.38H798.78V541.38H801.78V529.38ZM798.78 553.38H801.78V565.38H798.78V553.38ZM801.78 577.38H798.78V589.38H801.78V577.38ZM798.78 601.38H801.78V613.38H798.78V601.38ZM801.78 625.38H798.78V637.38H801.78V625.38ZM798.78 649.38H801.78V661.38H798.78V649.38ZM801.78 673.38H798.78V685.38H801.78V673.38ZM798.78 697.38H801.78V709.38H798.78V697.38ZM801.78 721.38H798.78V733.38H801.78V721.38ZM798.78 745.38H801.78V757.38H798.78V745.38ZM801.78 769.38H798.78V781.38H801.78V769.38ZM798.78 793.38H801.78V805.38H798.78V793.38ZM801.78 817.38H798.78V829.38H801.78V817.38ZM798.78 841.38H801.78V853.38H798.78V841.38ZM801.78 865.38H798.78V877.38H801.78V865.38ZM798.78 889.38H801.78V901.38H798.78V889.38ZM801.78 913.38H798.78V925.38H801.78V913.38ZM798.78 937.38H801.78V949.38H798.78V937.38ZM803.07 960.56L801.679 960.899C801.285 959.719 800.938 958.521 800.64 957.31L803.07 960.56ZM801.679 960.899C802.475 963.281 803.465 965.596 804.64 967.82L801.98 969.21C801.51 968.33 801.07 967.42 800.66 966.5L800.6 966.37V966.28V966.2V966.12V966.04V965.96V965.88V965.8V965.71V965.63V965.55V965.47V965.39V965.31V965.22V965.1V965.01V964.93V964.84V964.75V964.66V964.53L800.54 964.36L800.48 964.19V964.06L800.42 963.89C800.424 963.83 800.424 963.77 800.42 963.71L800.36 963.53L800.3 963.35V963.21V963.07V962.93V962.8V962.71V962.62V962.54V962.08V961.95V961.85C800.279 961.763 800.259 961.678 800.239 961.594L800.239 961.594C800.214 961.485 800.188 961.377 800.16 961.27L801.679 960.899ZM813.384 980.358L813.46 980.29L812.72 979.63C812.939 979.875 813.16 980.118 813.384 980.358ZM813.384 980.358L811.23 982.29C812.741 983.991 814.372 985.582 816.11 987.05L816.22 987.14L816.3 987.21H816.35L816.43 987.26C817.43 988.05 818.43 988.81 819.49 989.52L821.18 987.04C818.339 985.111 815.724 982.869 813.384 980.358ZM831.91 992.83L830.91 995.65C831.8 995.97 832.71 996.28 833.63 996.55H833.76H833.85H833.94H834.03H834.12H835.21H835.27H835.4H835.45H835.57H835.67H835.76H835.9H836.04C838.146 997.064 840.284 997.435 842.44 997.66L842.75 994.66C839.013 994.271 835.338 993.421 831.81 992.13L831.91 992.83ZM854.53 995.62H866.53V998.62H854.53V995.62ZM890.53 995.62H878.53V998.62H890.53V995.62ZM902.53 995.62H914.53V998.62H902.53V995.62ZM938.53 995.62H926.53V998.62H938.53V995.62ZM950.53 995.62H962.53V998.62H950.53V995.62ZM986.53 995.62H974.53V998.62H986.53V995.62ZM998.53 995.62H1010.53V998.62H998.53V995.62ZM1034.53 995.62H1022.53V998.62H1034.53V995.62ZM1046.53 995.62H1058.53V998.62H1046.53V995.62ZM1082.53 995.62H1070.53V998.62H1082.53V995.62ZM1094.53 995.62H1106.53V998.62H1094.53V995.62ZM1130.53 995.62H1118.53V998.62H1130.53V995.62ZM1142.53 995.62H1154.53V998.62H1142.53V995.62ZM1178.12 995.22C1176.09 995.484 1174.05 995.617 1172.01 995.62H1166.55V998.62H1174.32C1175.74 998.56 1177.15 998.43 1178.53 998.25L1178.14 995.25L1178.12 995.22ZM1188.99 992.38C1192.48 990.987 1195.79 989.173 1198.84 986.98L1198.51 987.4L1200.26 989.83C1198.35 991.197 1196.34 992.427 1194.26 993.51L1194.14 993.57H1194.06H1193.99H1193.89H1193.78H1193.69L1193.56 993.63C1192.43 994.17 1191.27 994.7 1190.09 995.17L1188.99 992.38ZM1213.25 969.98C1213.16 970.166 1213.07 970.351 1212.97 970.535L1212.88 970.49L1213.25 969.98ZM1212.97 970.535L1215.57 971.81C1215.39 972.142 1215.22 972.471 1215.05 972.797C1214.73 973.423 1214.41 974.039 1214.05 974.65L1213.98 974.78L1213.92 974.88V974.98L1213.85 975.1L1213.79 975.19L1213.74 975.27V975.35L1213.66 975.47L1213.61 975.56L1213.54 975.67L1213.46 975.79L1213.38 975.91C1212.17 977.799 1210.84 979.604 1209.38 981.31L1207.09 979.37C1209.39 976.66 1211.36 973.696 1212.97 970.535ZM1217.94 948.07H1220.94L1220.87 949.36V951.06V951.7V951.83V951.94V952.18V952.38V952.99C1220.71 955.345 1220.38 957.685 1219.87 959.99L1216.94 959.37C1217.61 956.2 1217.94 952.969 1217.94 949.73V948.07ZM1220.94 924.07H1217.94V936.07H1220.94V924.07ZM1217.94 900.07H1220.94V912.07H1217.94V900.07ZM1220.94 876.07H1217.94V888.07H1220.94V876.07ZM1217.94 852.07H1220.94V864.07H1217.94V852.07ZM1220.94 828.07H1217.94V840.07H1220.94V828.07ZM1217.94 804.07H1220.94V816.07H1217.94V804.07ZM1220.94 780.07H1217.94V792.07H1220.94V780.07ZM1217.94 756.07H1220.94V768.07H1217.94V756.07ZM1220.94 732.07H1217.94V744.07H1220.94V732.07ZM1217.94 708.07H1220.94V720.07H1217.94V708.07ZM1220.94 684.07H1217.94V696.07H1220.94V684.07ZM1217.94 660.07H1220.94V672.07H1217.94V660.07ZM1220.94 636.07H1217.94V648.07H1220.94V636.07ZM1217.94 612.07H1220.94V624.07H1217.94V612.07ZM1220.94 588.07H1217.94V600.07H1220.94V588.07ZM1217.94 564.07H1220.94V576.07H1217.94V564.07ZM1220.94 540.07H1217.94V552.07H1220.94V540.07ZM1217.94 516.07H1220.94V528.07H1217.94V516.07ZM1220.94 492.07H1217.94V504.07H1220.94V492.07ZM1217.94 468.07H1220.94V480.07H1217.94V468.07ZM1220.94 444.07H1217.94V456.07H1220.94V444.07ZM1208.94 423.57H1220.94V432.07H1217.94V426.57H1208.94V423.57Z" fill="#EA6F57"/>
<path d="M1148.48 130.41H1172.01C1184.99 130.41 1197.43 135.564 1206.61 144.738C1215.78 153.912 1220.94 166.355 1220.94 179.33V423.54H1186.48" fill="#24272D"/>
<path d="M1184.94 423.54V949.74C1184.94 962.715 1179.78 975.158 1170.6 984.332C1161.43 993.506 1148.99 998.66 1136.01 998.66H811.7C798.725 998.66 786.282 993.506 777.108 984.332C767.934 975.157 762.78 962.714 762.78 949.74V423.54H1184.94Z" fill="white"/>
<path fill-rule="evenodd" clip-rule="evenodd" d="M764.94 423.54H776.94V426.54H764.94V423.54ZM800.94 423.54H788.94V426.54H800.94V423.54ZM812.94 423.54H824.94V426.54H812.94V423.54ZM848.94 423.54H836.94V426.54H848.94V423.54ZM860.94 423.54H872.94V426.54H860.94V423.54ZM896.94 423.54H884.94V426.54H896.94V423.54ZM908.94 423.54H920.94V426.54H908.94V423.54ZM944.94 423.54H932.94V426.54H944.94V423.54ZM956.94 423.54H968.94V426.54H956.94V423.54ZM992.94 423.54H980.94V426.54H992.94V423.54ZM1004.94 423.54H1016.94V426.54H1004.94V423.54ZM1040.94 423.54H1028.94V426.54H1040.94V423.54ZM1052.94 423.54H1064.94V426.54H1052.94V423.54ZM1088.94 423.54H1076.94V426.54H1088.94V423.54ZM1100.94 423.54H1112.94V426.54H1100.94V423.54ZM1136.94 423.54H1124.94V426.54H1136.94V423.54ZM1160.94 423.54H1148.94V426.54H1160.94V423.54ZM765.78 433.38H762.78V445.38H765.78V433.38ZM762.78 457.38H765.78V469.38H762.78V457.38ZM765.78 481.38H762.78V493.38H765.78V481.38ZM762.78 505.38H765.78V517.38H762.78V505.38ZM765.78 529.38H762.78V541.38H765.78V529.38ZM762.78 553.38H765.78V565.38H762.78V553.38ZM765.78 577.38H762.78V589.38H765.78V577.38ZM762.78 601.38H765.78V613.38H762.78V601.38ZM765.78 625.38H762.78V637.38H765.78V625.38ZM762.78 649.38H765.78V661.38H762.78V649.38ZM765.78 673.38H762.78V685.38H765.78V673.38ZM762.78 697.38H765.78V709.38H762.78V697.38ZM765.78 721.38H762.78V733.38H765.78V721.38ZM762.78 745.38H765.78V757.38H762.78V745.38ZM765.78 769.38H762.78V781.38H765.78V769.38ZM762.78 793.38H765.78V805.38H762.78V793.38ZM765.78 817.38H762.78V829.38H765.78V817.38ZM762.78 841.38H765.78V853.38H762.78V841.38ZM765.78 865.38H762.78V877.38H765.78V865.38ZM762.78 889.38H765.78V901.38H762.78V889.38ZM765.78 913.38H762.78V925.38H765.78V913.38ZM762.78 937.38H765.78V949.38H762.78V937.38ZM767.07 960.56L765.726 960.888C765.333 959.711 764.987 958.517 764.69 957.31L767.07 960.56ZM765.726 960.888C766.522 963.274 767.513 965.592 768.69 967.82L766.03 969.21C765.56 968.33 765.12 967.42 764.71 966.5L764.65 966.37V966.28V966.2V966.12V966.04V965.96V965.88V965.8V965.71V965.63V965.55V965.47V965.39V965.31V965.22V965.1V965.01V964.93V964.84V964.75V964.66V964.53L764.59 964.36L764.53 964.19V964.06L764.47 963.89C764.458 963.829 764.441 963.769 764.42 963.71L764.36 963.53L764.3 963.35V963.21V963.07V962.93V962.8V962.71V962.62V962.54V962.08V961.95V961.85C764.284 961.785 764.264 961.721 764.243 961.658C764.201 961.527 764.16 961.398 764.16 961.27L765.726 960.888ZM777.384 980.358L777.46 980.29L776.72 979.63C776.939 979.875 777.16 980.118 777.384 980.358ZM777.384 980.358L775.23 982.29C776.741 983.991 778.372 985.582 780.11 987.05L780.22 987.14L780.3 987.21H780.35L780.43 987.26C781.43 988.05 782.43 988.81 783.49 989.52L785.18 987.04C782.339 985.111 779.724 982.869 777.384 980.358ZM795.91 992.83L794.91 995.65C795.8 995.97 796.71 996.28 797.63 996.55H797.76H797.85H797.94H798.03H798.12H799.21H799.27H799.4H799.45H799.57H799.67H799.76H799.9H800.04C802.146 997.064 804.284 997.435 806.44 997.66L806.75 994.66C803.013 994.271 799.338 993.421 795.81 992.13L795.91 992.83ZM818.53 995.62H830.53V998.62H818.53V995.62ZM854.53 995.62H842.53V998.62H854.53V995.62ZM866.53 995.62H878.53V998.62H866.53V995.62ZM902.53 995.62H890.53V998.62H902.53V995.62ZM914.53 995.62H926.53V998.62H914.53V995.62ZM950.53 995.62H938.53V998.62H950.53V995.62ZM962.53 995.62H974.53V998.62H962.53V995.62ZM998.53 995.62H986.53V998.62H998.53V995.62ZM1010.53 995.62H1022.53V998.62H1010.53V995.62ZM1046.53 995.62H1034.53V998.62H1046.53V995.62ZM1058.53 995.62H1070.53V998.62H1058.53V995.62ZM1094.53 995.62H1082.53V998.62H1094.53V995.62ZM1106.53 995.62H1118.53V998.62H1106.53V995.62ZM1142.12 995.22C1140.09 995.484 1138.05 995.617 1136.01 995.62H1130.55V998.62H1138.32C1139.74 998.56 1141.15 998.43 1142.53 998.25L1142.14 995.25L1142.12 995.22ZM1152.99 992.38C1156.48 990.987 1159.79 989.173 1162.84 986.98L1162.51 987.4L1164.26 989.83C1162.35 991.197 1160.34 992.427 1158.26 993.51L1158.14 993.57H1158.06H1157.99H1157.89H1157.78H1157.69L1157.56 993.63C1156.43 994.17 1155.27 994.7 1154.09 995.17L1152.99 992.38ZM1177.25 969.98C1177.16 970.166 1177.07 970.351 1176.97 970.535L1176.88 970.49L1177.25 969.98ZM1176.97 970.535L1179.57 971.81C1179.39 972.142 1179.22 972.471 1179.05 972.797C1178.73 973.423 1178.41 974.039 1178.05 974.65L1177.98 974.78L1177.92 974.88V974.98L1177.85 975.1L1177.79 975.19L1177.74 975.27V975.35L1177.66 975.47L1177.61 975.56L1177.54 975.67L1177.46 975.79L1177.38 975.91C1176.17 977.799 1174.84 979.604 1173.38 981.31L1171.09 979.37C1173.39 976.66 1175.36 973.696 1176.97 970.535ZM1181.94 948.07H1184.94L1184.87 949.36V951.06V951.7V951.83V951.94V952.18V952.38V952.99C1184.71 955.345 1184.38 957.685 1183.87 959.99L1180.94 959.37C1181.61 956.2 1181.94 952.969 1181.94 949.73V948.07ZM1184.94 924.07H1181.94V936.07H1184.94V924.07ZM1181.94 900.07H1184.94V912.07H1181.94V900.07ZM1184.94 876.07H1181.94V888.07H1184.94V876.07ZM1181.94 852.07H1184.94V864.07H1181.94V852.07ZM1184.94 828.07H1181.94V840.07H1184.94V828.07ZM1181.94 804.07H1184.94V816.07H1181.94V804.07ZM1184.94 780.07H1181.94V792.07H1184.94V780.07ZM1181.94 756.07H1184.94V768.07H1181.94V756.07ZM1184.94 732.07H1181.94V744.07H1184.94V732.07ZM1181.94 708.07H1184.94V720.07H1181.94V708.07ZM1184.94 684.07H1181.94V696.07H1184.94V684.07ZM1181.94 660.07H1184.94V672.07H1181.94V660.07ZM1184.94 636.07H1181.94V648.07H1184.94V636.07ZM1181.94 612.07H1184.94V624.07H1181.94V612.07ZM1184.94 588.07H1181.94V600.07H1184.94V588.07ZM1181.94 564.07H1184.94V576.07H1181.94V564.07ZM1184.94 540.07H1181.94V552.07H1184.94V540.07ZM1181.94 516.07H1184.94V528.07H1181.94V516.07ZM1184.94 492.07H1181.94V504.07H1184.94V492.07ZM1181.94 468.07H1184.94V480.07H1181.94V468.07ZM1184.94 444.07H1181.94V456.07H1184.94V444.07ZM1172.94 423.57H1184.94V432.07H1181.94V426.57H1172.94V423.57Z" fill="#EA6F57"/>
<path d="M1184.94 179.33V423.54H762.78V179.33C762.78 166.356 767.934 153.913 777.108 144.738C786.282 135.564 798.725 130.41 811.7 130.41H1136.01C1148.99 130.41 1161.43 135.564 1170.6 144.738C1179.78 153.912 1184.94 166.355 1184.94 179.33Z" fill="#3361C2"/>
<path d="M825.56 157.18H1122.18C1132.44 157.18 1142.28 161.256 1149.54 168.512C1156.79 175.768 1160.87 185.609 1160.87 195.87V423.58H786.87V195.87C786.87 185.609 790.946 175.768 798.202 168.512C805.458 161.256 815.299 157.18 825.56 157.18Z" fill="white"/>
<path d="M1038.89 194.87H908.89C906.08 194.877 903.296 194.329 900.697 193.259C898.099 192.189 895.737 190.617 893.747 188.633C891.756 186.649 890.177 184.292 889.098 181.697C888.019 179.102 887.462 176.32 887.46 173.51V156.2H1060.28V173.51C1060.28 176.318 1059.73 179.098 1058.65 181.692C1057.58 184.286 1056 186.643 1054.02 188.628C1052.03 190.613 1049.68 192.188 1047.08 193.263C1044.49 194.337 1041.71 194.89 1038.9 194.89L1038.89 194.87Z" fill="#3361C2"/>
<path fill-rule="evenodd" clip-rule="evenodd" d="M800.86 423.54H788.86V426.54H800.86V423.54ZM812.86 423.54H824.86V426.54H812.86V423.54ZM848.86 423.54H836.86V426.54H848.86V423.54ZM860.86 423.54H872.86V426.54H860.86V423.54ZM896.86 423.54H884.86V426.54H896.86V423.54ZM908.86 423.54H920.86V426.54H908.86V423.54ZM944.86 423.54H932.86V426.54H944.86V423.54ZM956.86 423.54H968.86V426.54H956.86V423.54ZM992.86 423.54H980.86V426.54H992.86V423.54ZM1004.86 423.54H1016.86V426.54H1004.86V423.54ZM1040.86 423.54H1028.86V426.54H1040.86V423.54ZM1052.86 423.54H1064.86V426.54H1052.86V423.54ZM1088.86 423.54H1076.86V426.54H1088.86V423.54ZM1100.86 423.54H1112.86V426.54H1100.86V423.54ZM1136.86 423.54H1124.86V426.54H1136.86V423.54ZM1160.86 423.54H1148.86V426.54H1157.86V435.69H1160.86V423.54ZM786.86 433.54H789.86V445.54H786.86V433.54ZM789.86 457.54H786.86V469.54H789.86V457.54ZM786.86 481.54H789.86V493.54H786.86V481.54ZM789.86 505.54H786.86V517.54H789.86V505.54ZM786.86 529.54H789.86V541.54H786.86V529.54ZM789.86 553.54H786.86V565.54H789.86V553.54ZM786.86 577.54H789.86V589.54H786.86V577.54ZM789.86 601.54H786.86V613.54H789.86V601.54ZM786.86 625.54H789.86V637.54H786.86V625.54ZM789.86 649.54H786.86V661.54H789.86V649.54ZM786.86 673.54H789.86V685.54H786.86V673.54ZM789.86 697.54H786.86V709.54H789.86V697.54ZM786.86 721.54H789.86V733.54H786.86V721.54ZM789.86 745.54H786.86V757.54H789.86V745.54ZM786.86 769.54H789.86V781.54H786.86V769.54ZM789.86 793.54H786.86V805.54H789.86V793.54ZM786.86 817.54H789.86V829.54H786.86V817.54ZM789.86 841.54H786.86V853.54H789.86V841.54ZM786.86 865.54H789.86V877.54H786.86V865.54ZM789.86 889.54H786.86V901.54H789.86V889.54ZM786.86 913.54H789.86V925.54H786.86V913.54ZM790.05 937.22L789.981 937.227L789.98 937.22H790.05ZM789.981 937.227C790.362 940.902 791.309 944.495 792.79 947.88L790.05 949.08C788.455 945.41 787.443 941.513 787.05 937.53L789.981 937.227ZM798.763 957.202L798.81 957.16L798 956.37C798.25 956.652 798.505 956.929 798.763 957.202ZM798.763 957.202L796.56 959.16L796.62 959.22V959.28L796.69 959.34L796.75 959.4L796.81 959.46L796.87 959.52C796.918 959.581 796.971 959.638 797.03 959.69C799.39 962.113 802.055 964.217 804.96 965.95L806.49 963.37C803.638 961.682 801.038 959.606 798.763 957.202ZM817.53 968.31L816.86 971.23C817.41 971.36 817.96 971.47 818.52 971.58H818.62H818.73H819.44H819.64C820.64 971.73 821.72 971.85 822.77 971.93H828.77V968.93H825.55C822.858 968.931 820.174 968.629 817.55 968.03L817.53 968.31ZM840.78 969.21H852.78V972.21H840.78V969.21ZM876.78 969.21H864.78V972.21H876.78V969.21ZM888.78 969.21H900.78V972.21H888.78V969.21ZM924.78 969.21H912.78V972.21H924.78V969.21ZM936.78 969.21H948.78V972.21H936.78V969.21ZM972.78 969.21H960.78V972.21H972.78V969.21ZM984.78 969.21H996.78V972.21H984.78V969.21ZM1020.78 969.21H1008.78V972.21H1020.78V969.21ZM1032.78 969.21H1044.78V972.21H1032.78V969.21ZM1068.78 969.21H1056.78V972.21H1068.78V969.21ZM1080.78 969.21H1092.78V972.21H1080.78V969.21ZM1116.78 969.21H1104.78V972.21H1116.78V969.21ZM1128.24 968.74C1131.88 968.12 1135.41 966.929 1138.68 965.21L1138.75 965.61L1140.14 968.27C1137.62 969.584 1134.97 970.617 1132.23 971.35H1132.14H1131.99H1131.92H1130.92H1130.84H1130.75C1130.06 971.49 1129.41 971.62 1128.75 971.74L1128.24 968.74ZM1154.01 949.72C1153.56 950.599 1153.08 951.458 1152.56 952.296L1151.9 951.96L1154.01 949.72ZM1152.56 952.296L1154.57 953.32C1153.86 954.724 1153.06 956.083 1152.18 957.39V957.46L1152.13 957.53V957.58V957.65L1152.08 957.72V957.78V957.85L1152.02 957.92L1151.93 958.03V958.11C1151.31 958.93 1150.64 959.73 1149.93 960.5L1149.87 960.57L1149.81 960.64L1149.75 960.7L1149.69 960.77L1147.55 958.66C1149.46 956.732 1151.14 954.596 1152.56 952.296ZM1157.86 927.72H1160.86L1160.67 930.24V936.12V936.21V936.3V936.39V936.48V936.57V936.66V936.75V936.83V936.88V936.97V937.06V937.15V937.4V937.63V937.69C1160.6 938.36 1160.51 939.03 1160.41 939.69L1157.41 939.22C1157.71 937.342 1157.86 935.442 1157.86 933.54V927.72ZM1160.86 903.72H1157.86V915.72H1160.86V903.72ZM1157.86 879.72H1160.86V891.72H1157.86V879.72ZM1160.86 855.72H1157.86V867.72H1160.86V855.72ZM1157.86 831.72H1160.86V843.72H1157.86V831.72ZM1160.86 807.72H1157.86V819.72H1160.86V807.72ZM1157.86 783.72H1160.86V795.72H1157.86V783.72ZM1160.86 759.72H1157.86V771.72H1160.86V759.72ZM1157.86 735.72H1160.86V747.72H1157.86V735.72ZM1160.86 711.72H1157.86V723.72H1160.86V711.72ZM1157.86 687.72H1160.86V699.72H1157.86V687.72ZM1160.86 663.72H1157.86V675.72H1160.86V663.72ZM1157.86 639.72H1160.86V651.72H1157.86V639.72ZM1160.86 615.72H1157.86V627.72H1160.86V615.72ZM1157.86 591.72H1160.86V603.72H1157.86V591.72ZM1160.86 567.72H1157.86V579.72H1160.86V567.72ZM1157.86 543.72H1160.86V555.72H1157.86V543.72ZM1160.86 519.72H1157.86V531.72H1160.86V519.72ZM1157.86 495.72H1160.86V507.72H1157.86V495.72ZM1160.86 471.72H1157.86V483.72H1160.86V471.72ZM1157.86 447.72H1160.86V459.72H1157.86V447.72Z" fill="#EA6F57"/>
<path d="M707.15 423.58H1287.5" stroke="#EA6F57" stroke-width="9"/>
<path d="M954.13 513.71L974.34 533.93L993.6 514.67" stroke="#EA6F57" stroke-width="9"/>
<path d="M973.86 533.93V466.03" stroke="#EA6F57" stroke-width="9"/>
<path d="M924.63 544.99V567.33H1023.1V544.99" stroke="#EA6F57" stroke-width="9"/>
<path fill-rule="evenodd" clip-rule="evenodd" d="M878.4 605.36H1069.32C1070.17 605.326 1071.02 605.464 1071.81 605.766C1072.61 606.067 1073.33 606.526 1073.94 607.115C1074.56 607.704 1075.04 608.41 1075.38 609.192C1075.71 609.974 1075.88 610.815 1075.88 611.665C1075.88 612.515 1075.71 613.356 1075.38 614.138C1075.04 614.919 1074.56 615.626 1073.94 616.215C1073.33 616.804 1072.61 617.263 1071.81 617.564C1071.02 617.866 1070.17 618.004 1069.32 617.97H878.4C877.551 618.004 876.704 617.866 875.909 617.564C875.115 617.263 874.389 616.804 873.776 616.215C873.164 615.626 872.676 614.919 872.343 614.138C872.01 613.356 871.839 612.515 871.839 611.665C871.839 610.815 872.01 609.974 872.343 609.192C872.676 608.41 873.164 607.704 873.776 607.115C874.389 606.526 875.115 606.067 875.909 605.766C876.704 605.464 877.551 605.326 878.4 605.36ZM1070.64 608.557C1070.22 608.402 1069.77 608.335 1069.32 608.36H878.4C877.95 608.335 877.501 608.402 877.078 608.557C876.656 608.712 876.269 608.952 875.943 609.261C875.616 609.57 875.356 609.943 875.178 610.356C875 610.77 874.908 611.215 874.908 611.665C874.908 612.115 875 612.56 875.178 612.974C875.356 613.387 875.616 613.76 875.943 614.069C876.269 614.378 876.656 614.618 877.078 614.773C877.501 614.928 877.95 614.995 878.4 614.97H1069.32C1069.77 614.995 1070.22 614.928 1070.64 614.773C1071.06 614.618 1071.45 614.378 1071.78 614.069C1072.1 613.76 1072.36 613.387 1072.54 612.974C1072.72 612.56 1072.81 612.115 1072.81 611.665C1072.81 611.215 1072.72 610.77 1072.54 610.356C1072.36 609.943 1072.1 609.57 1071.78 609.261C1071.45 608.952 1071.06 608.712 1070.64 608.557Z" fill="#EA6F57"/>
<path d="M943.24 608.36H878.3C876.472 608.36 874.99 609.842 874.99 611.67C874.99 613.498 876.472 614.98 878.3 614.98H943.24C945.068 614.98 946.55 613.498 946.55 611.67C946.55 609.842 945.068 608.36 943.24 608.36Z" fill="#EA6F57"/>
</svg>
