<svg width="1714" height="1144" viewBox="0 0 1714 1144" fill="none" xmlns="http://www.w3.org/2000/svg">
<path d="M825.61 672.78L804.35 604.4C803.384 601.262 803.281 597.922 804.05 594.73C804.82 591.539 806.435 588.613 808.725 586.261C811.015 583.908 813.896 582.216 817.066 581.36C820.236 580.505 823.577 580.519 826.74 581.4L934.74 611.57C951.29 616.2 952.91 639.02 937.19 645.94L850.46 684.11C848.1 685.149 845.547 685.677 842.968 685.66C840.39 685.643 837.844 685.081 835.497 684.011C833.151 682.941 831.057 681.388 829.353 679.452C827.649 677.517 826.374 675.243 825.61 672.78Z" fill="#E9EEF2"/>
<path d="M202.49 240.61V185.27C202.49 182.728 203.175 180.233 204.473 178.048C205.771 175.863 207.634 174.068 209.866 172.852C212.098 171.636 214.617 171.044 217.157 171.139C219.697 171.234 222.165 172.011 224.3 173.39L297.07 220.45C308.22 227.66 304.18 244.87 290.99 246.37L218.22 254.66C216.242 254.884 214.238 254.687 212.341 254.084C210.444 253.48 208.695 252.482 207.211 251.155C205.726 249.829 204.538 248.204 203.724 246.387C202.911 244.57 202.49 242.601 202.49 240.61Z" fill="#E9EEF2"/>
<path d="M381.2 207.89L299.74 183.48C295.994 182.36 292.619 180.251 289.972 177.374C287.324 174.497 285.502 170.959 284.697 167.132C283.892 163.306 284.135 159.334 285.399 155.634C286.663 151.934 288.902 148.644 291.88 146.11L393.23 59.7395C408.76 46.5095 432.32 60.0395 428.71 80.1195L408.82 190.91C408.28 193.923 407.109 196.788 405.384 199.316C403.659 201.845 401.42 203.981 398.812 205.584C396.204 207.187 393.287 208.221 390.252 208.619C387.217 209.016 384.133 208.768 381.2 207.89Z" fill="#F2F6F9"/>
<path d="M1326.39 842.11L1341.6 809.11C1342.3 807.594 1343.39 806.296 1344.77 805.35C1346.15 804.405 1347.75 803.848 1349.42 803.739C1351.08 803.629 1352.75 803.971 1354.23 804.728C1355.72 805.485 1356.98 806.629 1357.87 808.04L1388.3 856.11C1389.32 857.726 1389.82 859.62 1389.73 861.531C1389.64 863.442 1388.96 865.278 1387.78 866.787C1386.6 868.296 1384.99 869.404 1383.16 869.959C1381.33 870.515 1379.37 870.491 1377.55 869.89L1331.9 854.82C1330.66 854.411 1329.51 853.743 1328.55 852.861C1327.58 851.979 1326.81 850.902 1326.29 849.702C1325.77 848.501 1325.51 847.204 1325.53 845.895C1325.55 844.587 1325.84 843.297 1326.39 842.11Z" fill="#F2F6F9"/>
<path d="M1419.53 208.61L1430.77 241.37C1431.28 242.872 1431.38 244.484 1431.06 246.038C1430.74 247.591 1430 249.029 1428.93 250.201C1427.86 251.373 1426.49 252.235 1424.97 252.697C1423.46 253.16 1421.84 253.206 1420.3 252.83L1367.67 239.75C1365.9 239.309 1364.31 238.332 1363.12 236.953C1361.92 235.573 1361.19 233.859 1361 232.044C1360.82 230.23 1361.21 228.403 1362.1 226.814C1363 225.226 1364.36 223.953 1366.01 223.17L1407.4 203.49C1408.52 202.962 1409.75 202.676 1410.99 202.651C1412.23 202.626 1413.46 202.863 1414.61 203.346C1415.75 203.829 1416.78 204.547 1417.63 205.454C1418.48 206.361 1419.12 207.436 1419.53 208.61Z" fill="#E9EEF2"/>
<path d="M1170.11 3.74983L1210.03 41.0098C1211.85 42.7292 1213.17 44.9045 1213.86 47.3093C1214.56 49.714 1214.59 52.2604 1213.97 54.6832C1213.34 57.1061 1212.08 59.3169 1210.31 61.0856C1208.54 62.8542 1206.32 64.1161 1203.9 64.7398L1120.97 85.5498C1108.26 88.7398 1098.57 74.2398 1106.36 63.7198L1149.36 5.64982C1150.53 4.07347 1152.03 2.76203 1153.74 1.80084C1155.46 0.839642 1157.35 0.25025 1159.31 0.0710195C1161.27 -0.10821 1163.24 0.126747 1165.1 0.76058C1166.96 1.39442 1168.67 2.41292 1170.11 3.74983Z" fill="#E9EEF2"/>
<path d="M1385.3 312.92L1333.52 346.44C1330.27 348.535 1326.56 349.802 1322.71 350.129C1318.86 350.457 1314.99 349.834 1311.44 348.317C1307.88 346.8 1304.76 344.434 1302.33 341.427C1299.9 338.42 1298.25 334.864 1297.52 331.07L1282.91 254.94C1278.99 234.56 1301.39 219.4 1318.85 230.61L1385.24 273.21C1388.56 275.345 1391.3 278.28 1393.2 281.746C1395.09 285.212 1396.09 289.098 1396.1 293.049C1396.1 297 1395.12 300.889 1393.23 304.36C1391.34 307.832 1388.62 310.775 1385.3 312.92Z" fill="#F2F6F9"/>
<path d="M1374.53 661.43C1363.7 672.27 1352.39 660.97 1341.53 671.8C1330.67 682.63 1342 693.95 1331.16 704.8C1320.32 715.65 1309.02 704.34 1298.16 715.18C1287.3 726.02 1298.63 737.32 1287.79 748.18" stroke="#F2F6F9" stroke-width="20" stroke-linecap="round"/>
<path d="M1435.44 797.63C1468.47 797.63 1495.25 770.852 1495.25 737.82C1495.25 704.788 1468.47 678.01 1435.44 678.01C1402.41 678.01 1375.63 704.788 1375.63 737.82C1375.63 770.852 1402.41 797.63 1435.44 797.63Z" fill="#E9EEF2"/>
<path d="M248.14 114.77C264.637 114.77 278.01 101.397 278.01 84.9003C278.01 68.4036 264.637 55.0303 248.14 55.0303C231.643 55.0303 218.27 68.4036 218.27 84.9003C218.27 101.397 231.643 114.77 248.14 114.77Z" fill="#E9EEF2"/>
<path d="M358.34 724.21C372.782 724.21 384.49 712.502 384.49 698.06C384.49 683.618 372.782 671.91 358.34 671.91C343.898 671.91 332.19 683.618 332.19 698.06C332.19 712.502 343.898 724.21 358.34 724.21Z" fill="#E9EEF2"/>
<path d="M455.26 710.66C476.661 710.66 494.01 693.311 494.01 671.91C494.01 650.509 476.661 633.16 455.26 633.16C433.859 633.16 416.51 650.509 416.51 671.91C416.51 693.311 433.859 710.66 455.26 710.66Z" fill="#F2F6F9"/>
<path d="M1713.69 620.55H1148.83C1148.83 620.55 1187.35 479.42 1266.54 473.23C1313.24 469.57 1336.54 525.31 1382.89 525.31C1429.24 525.31 1455.54 394.59 1546.1 394.59C1694.49 394.59 1713.69 620.55 1713.69 620.55Z" fill="#F2F6F9"/>
<path d="M0 840.3H579.55C579.55 840.3 540 737.3 458.77 741.66C377.54 746.02 386.96 776.53 339.4 776.53C291.84 776.53 264.86 689 171.95 689C19.7 689 0 840.3 0 840.3Z" fill="#F2F6F9"/>
<path d="M837.3 958.19H485.19C498.35 932.49 518.36 909.81 545.63 909.05C578.17 908.15 592.83 943.94 624.08 943.94C655.33 943.94 673.08 856.4 734.08 856.4C795.89 856.4 824.45 914.11 837.3 958.19Z" fill="#F0F4F7"/>
<path d="M1269.54 515.26C1269.54 522.823 1268.96 530.375 1267.81 537.85H226.71C220.91 518.546 217.972 498.496 217.99 478.34C217.99 364.44 310.3 272.11 424.22 272.11C427.273 272.11 430.307 272.177 433.32 272.31C444.743 272.784 456.026 269.649 465.566 263.348C475.107 257.047 482.421 247.902 486.47 237.21C518.47 153.6 599.47 94.21 694.33 94.21C732.057 94.1891 769.17 103.769 802.173 122.049C835.176 140.329 862.984 166.707 882.98 198.7C888.636 207.848 896.886 215.106 906.681 219.549C916.476 223.992 927.371 225.42 937.98 223.65C981.754 216.067 1026.8 224.24 1065.12 246.717C1103.44 269.195 1132.56 304.522 1147.3 346.43C1149.84 353.72 1153.9 360.39 1159.2 366.002C1164.5 371.613 1170.93 376.04 1178.07 378.99C1205.12 390.062 1228.26 408.932 1244.55 433.2C1260.84 457.467 1269.54 486.033 1269.54 515.26Z" fill="#D2E8F9"/>
<path d="M950.35 537.86H706.42L586.58 478.35L837.15 469.58L950.35 537.86Z" fill="#9AC3E8"/>
<path d="M809.73 332.94H576.58V401.22H809.73V332.94Z" fill="#F7F9FC"/>
<path d="M809.73 248.29H576.58V316.57H809.73V248.29Z" fill="#F7F9FC"/>
<path d="M616.3 431.93V387.8C616.301 385.773 616.848 383.783 617.884 382.041C618.92 380.298 620.407 378.867 622.188 377.898C623.968 376.929 625.977 376.457 628.003 376.533C630.029 376.609 631.997 377.23 633.7 378.33L691.7 415.85C693.654 417.111 695.171 418.945 696.041 421.101C696.912 423.258 697.094 425.631 696.563 427.895C696.031 430.159 694.813 432.203 693.074 433.748C691.335 435.292 689.161 436.26 686.85 436.52L628.85 443.13C627.272 443.309 625.674 443.152 624.161 442.671C622.648 442.19 621.254 441.395 620.069 440.338C618.885 439.28 617.936 437.985 617.287 436.536C616.637 435.087 616.301 433.518 616.3 431.93Z" fill="#F36B7F"/>
<path d="M833.151 392.58L843.301 419.76C843.941 421.465 844.153 423.301 843.916 425.107C843.679 426.913 843.001 428.632 841.944 430.115C840.884 431.597 839.479 432.796 837.847 433.606C836.216 434.416 834.41 434.812 832.59 434.76L796.151 433.76C793.972 433.708 791.857 433.016 790.069 431.77C788.28 430.524 786.899 428.779 786.096 426.753C785.293 424.727 785.104 422.509 785.553 420.376C786.002 418.244 787.069 416.29 788.621 414.76L814.911 388.59C816.228 387.281 817.852 386.322 819.635 385.803C821.418 385.283 823.303 385.219 825.118 385.616C826.931 386.012 828.618 386.858 830.021 388.075C831.424 389.291 832.5 390.84 833.151 392.58Z" fill="#F36B7F"/>
<path d="M648.79 442.28C648.79 428.754 654.163 415.782 663.728 406.218C673.292 396.653 686.264 391.28 699.79 391.28C713.316 391.28 726.288 396.653 735.852 406.218C745.417 415.782 750.79 428.754 750.79 442.28" fill="#518EEE"/>
<path d="M819.73 425.14H586.58V478.34H819.73V425.14Z" fill="#B5D6F4"/>
<path d="M776.54 331.11C772.54 337.55 758.97 329.17 755.01 335.6C751.05 342.03 764.66 350.41 760.7 356.85C756.74 363.29 743.13 354.91 739.16 361.34C735.19 367.77 748.82 376.16 744.86 382.6" stroke="#EF4C43" stroke-width="10" stroke-linecap="round"/>
<path d="M906.69 417.6H673.54V485.88H906.69V417.6Z" fill="#F7F9FC"/>
<path d="M693.16 380.31C700.466 380.31 706.39 374.387 706.39 367.08C706.39 359.773 700.466 353.85 693.16 353.85C685.853 353.85 679.93 359.773 679.93 367.08C679.93 374.387 685.853 380.31 693.16 380.31Z" fill="#B5D6F4"/>
<path d="M693.16 295.66C700.466 295.66 706.39 289.737 706.39 282.43C706.39 275.123 700.466 269.2 693.16 269.2C685.853 269.2 679.93 275.123 679.93 282.43C679.93 289.737 685.853 295.66 693.16 295.66Z" fill="#B5D6F4"/>
<path d="M1297.89 1143.42C1428.33 1143.42 1534.07 1139.91 1534.07 1135.59C1534.07 1131.27 1428.33 1127.76 1297.89 1127.76C1167.45 1127.76 1061.71 1131.27 1061.71 1135.59C1061.71 1139.91 1167.45 1143.42 1297.89 1143.42Z" fill="#E4EFF7"/>
<path d="M1030.37 784.86L990.07 847.42L1096.92 791.19L1070.97 763.08L1030.37 784.86Z" fill="#3361C2"/>
<path d="M909.01 676.81H1074.05" stroke="#1D2026" stroke-width="7"/>
<path d="M958.62 820.75H1123.66" stroke="#1D2026" stroke-width="7"/>
<path d="M1008.22 964.7H1173.26" stroke="#1D2026" stroke-width="7"/>
<path d="M1057.83 1108.65H1222.87" stroke="#1D2026" stroke-width="7"/>
<path d="M846.65 495.15L1070.03 1135.59" stroke="#1D2026" stroke-width="7"/>
<path d="M1009.45 495.15L1232.83 1135.59" stroke="#1D2026" stroke-width="7"/>
<path d="M859.4 532.86H1024.44" stroke="#1D2026" stroke-width="7"/>
<path d="M924.88 495.11C924.88 495.11 892.15 509.05 884.88 522.53C877.61 536.01 878.88 549.71 888.03 558.28C892.46 562.42 937.23 562.05 937.23 562.05L948.14 515.6L924.88 495.11Z" fill="#3361C2"/>
<path d="M860.61 532.86H903.92" stroke="#1D2026" stroke-width="7"/>
<path d="M1126.72 929.14L1057.13 949.32L1176.78 974.49L1174.64 936.31L1126.72 929.14Z" fill="#3361C2"/>
<path d="M893.69 550.49C893.69 550.49 906.6 520.96 912.85 522.34C919.1 523.72 909.17 552.19 909.17 552.19C909.17 552.19 921.38 519.96 927.36 522.26C932 524.06 924.58 552.26 924.58 552.26C924.58 552.26 933.51 527.65 938.74 528.74C943.97 529.83 931.1 557.42 931.1 557.42" fill="#3361C2"/>
<path d="M893.69 550.49C893.69 550.49 906.6 520.96 912.85 522.34C919.1 523.72 909.17 552.19 909.17 552.19C909.17 552.19 921.38 519.96 927.36 522.26C932 524.06 924.58 552.26 924.58 552.26C924.58 552.26 933.51 527.65 938.74 528.74C943.97 529.83 931.1 557.42 931.1 557.42" stroke="white" stroke-width="3"/>
<path d="M968.53 505.35L916.6 555.35C908.119 563.518 902.797 574.42 901.575 586.13C900.353 597.841 903.308 609.607 909.92 619.35L1016.27 792.35L1087.27 754.24L1005.7 609.87L1074.02 567.18L1117.92 927.89L1181.53 940.12L1184.18 527.57C1184.38 504.056 1179.97 480.731 1171.18 458.92L1158.96 428.55L1035.58 425.49L968.53 505.35Z" fill="#151E24"/>
<path d="M818.58 278.29C818.12 278.29 800.58 283.12 800.38 275.34C800.18 267.56 820.53 263.18 830.99 262.6C841.45 262.02 853.3 263.49 857.25 256.34C863.44 245.14 854.07 237.11 852.69 228.34C851.31 219.57 853.45 214.49 858.99 214.8C864.53 215.11 864.84 233.91 876.45 241.42C888.66 249.32 897.45 264.49 897.45 264.49L929.15 285.17C929.15 285.17 906.38 317.42 905.45 317.57C904.52 317.72 878.99 296.49 878.99 296.49C878.99 296.49 876.99 303.11 844.38 311.57" fill="#3361C2"/>
<path d="M1044.84 333.11L1057.3 416.67C1058.57 425.137 1057.52 433.789 1054.27 441.71C1051.02 449.632 1045.7 456.528 1038.85 461.67L947.6 530.23L912.3 495.77L981.3 414.42C981.3 414.42 947.62 303.54 1006.2 272.96C1059.25 245.26 1083.9 266.58 1098.61 288.49C1110.09 305.57 1121.12 345.01 1129.93 364.7C1138.74 384.39 1159.07 428.62 1159.07 428.62L1041.61 437.62" fill="#FFC774"/>
<mask id="mask0" mask-type="alpha" maskUnits="userSpaceOnUse" x="912" y="259" width="248" height="272">
<path fill-rule="evenodd" clip-rule="evenodd" d="M1044.84 333.11L1057.3 416.67C1058.57 425.137 1057.52 433.789 1054.27 441.71C1051.02 449.632 1045.7 456.528 1038.85 461.67L947.6 530.23L912.3 495.77L981.3 414.42C981.3 414.42 947.62 303.54 1006.2 272.96C1059.25 245.26 1083.9 266.58 1098.61 288.49C1110.09 305.57 1121.12 345.01 1129.93 364.7C1138.74 384.39 1159.07 428.62 1159.07 428.62L1041.61 437.62" fill="white"/>
</mask>
<g mask="url(#mask0)">
<path d="M1144.92 419.11C1161.49 419.11 1174.92 405.679 1174.92 389.11C1174.92 372.541 1161.49 359.11 1144.92 359.11C1128.35 359.11 1114.92 372.541 1114.92 389.11C1114.92 405.679 1128.35 419.11 1144.92 419.11Z" fill="#EF6E45"/>
<path d="M963 361C979.569 361 993 347.569 993 331C993 314.431 979.569 301 963 301C946.431 301 933 314.431 933 331C933 347.569 946.431 361 963 361Z" fill="#EF6E45"/>
<path d="M1064.2 287.97C1080.77 287.97 1094.2 274.539 1094.2 257.97C1094.2 241.401 1080.77 227.97 1064.2 227.97C1047.63 227.97 1034.2 241.401 1034.2 257.97C1034.2 274.539 1047.63 287.97 1064.2 287.97Z" fill="#EF6E45"/>
<path d="M1044.79 470.56C1061.36 470.56 1074.79 457.128 1074.79 440.56C1074.79 423.991 1061.36 410.56 1044.79 410.56C1028.22 410.56 1014.79 423.991 1014.79 440.56C1014.79 457.128 1028.22 470.56 1044.79 470.56Z" fill="#EF6E45"/>
<path d="M945.61 485.56C962.178 485.56 975.61 472.128 975.61 455.56C975.61 438.991 962.178 425.56 945.61 425.56C929.041 425.56 915.61 438.991 915.61 455.56C915.61 472.128 929.041 485.56 945.61 485.56Z" fill="#EF6E45"/>
<path d="M1056.79 373.18C1073.36 373.18 1086.79 359.749 1086.79 343.18C1086.79 326.611 1073.36 313.18 1056.79 313.18C1040.22 313.18 1026.79 326.611 1026.79 343.18C1026.79 359.749 1040.22 373.18 1056.79 373.18Z" fill="#EF6E45"/>
</g>
<path d="M919.64 259L886 315.92L999.02 405.36L1012.76 314.69L919.64 259Z" fill="#FFC774"/>
<mask id="mask1" mask-type="alpha" maskUnits="userSpaceOnUse" x="886" y="259" width="127" height="147">
<path fill-rule="evenodd" clip-rule="evenodd" d="M919.64 259L886 315.92L999.02 405.36L1012.76 314.69L919.64 259Z" fill="white"/>
</mask>
<g mask="url(#mask1)">
<path d="M963 361C979.569 361 993 347.569 993 331C993 314.431 979.569 301 963 301C946.431 301 933 314.431 933 331C933 347.569 946.431 361 963 361Z" fill="#EF6E45"/>
<path d="M910.24 287.87C926.808 287.87 940.24 274.439 940.24 257.87C940.24 241.301 926.808 227.87 910.24 227.87C893.671 227.87 880.24 241.301 880.24 257.87C880.24 274.439 893.671 287.87 910.24 287.87Z" fill="#EF6E45"/>
</g>
<path d="M975.6 389.88C971.12 365.08 967.6 326.56 981.32 298.88" stroke="white" stroke-width="3"/>
<path d="M1024.79 190.02L1046.73 267.45" stroke="#3361C2" stroke-width="40" stroke-linecap="round" stroke-linejoin="round"/>
<path d="M1026.84 249.57L1022.72 250.72C1017.92 252.047 1012.89 252.3 1007.98 251.462C1003.07 250.623 998.413 248.713 994.327 245.868C990.242 243.023 986.834 239.312 984.345 235C981.857 230.688 980.349 225.881 979.93 220.92L977.85 196.34C977.178 188.404 979.323 180.486 983.91 173.975C988.497 167.465 995.231 162.778 1002.93 160.74C1007.23 159.6 1011.72 159.319 1016.13 159.912C1020.54 160.506 1024.79 161.962 1028.63 164.198C1032.48 166.434 1035.85 169.406 1038.55 172.945C1041.25 176.483 1043.22 180.518 1044.36 184.82L1050.56 208.25C1052.84 216.873 1051.63 226.049 1047.19 233.786C1042.75 241.522 1035.44 247.194 1026.84 249.57Z" fill="#3361C2"/>
<path d="M1204.38 203.57C1208.92 257.23 1156.75 261.78 1156.75 261.78C1156.75 261.78 1185.62 320.67 1121.01 315.78C1056.4 310.89 1038.77 264.78 1041.27 238.41C1042.27 227.91 1047.71 219.77 1053.86 211.92C1018.45 206.45 1018.99 182.06 1018.99 182.06C1018.99 182.06 962.221 204.21 962.681 160.52C963.141 116.83 1007.92 102.83 1034.38 103.29C1039.96 103.407 1045.48 104.368 1050.77 106.14C1067.77 111.71 1081 121.78 1103.61 122.14C1166.07 123.14 1172.07 158.37 1172.07 158.37C1172.07 158.37 1201.3 167.26 1204.38 203.57Z" fill="#EF6E45"/>
<path d="M978.43 196.76L970.44 223.69L981 223.59" fill="#3361C2"/>
<path d="M988.89 206.66C991.624 206.66 993.84 204.444 993.84 201.71C993.84 198.976 991.624 196.76 988.89 196.76C986.156 196.76 983.94 198.976 983.94 201.71C983.94 204.444 986.156 206.66 988.89 206.66Z" fill="white"/>
<path d="M994.69 227.86C994.69 227.86 999.6 227.23 999.07 222.19L994.69 227.86Z" fill="#3361C2"/>
<path d="M994.69 227.86C994.69 227.86 999.6 227.23 999.07 222.19" stroke="white" stroke-width="3" stroke-linecap="square"/>
<path d="M1051.24 178.717L1051.03 178.631C1043.32 175.381 1034.44 178.996 1031.19 186.706L1025.71 199.689C1022.46 207.399 1026.08 216.284 1033.79 219.535L1033.99 219.62C1041.7 222.871 1050.59 219.256 1053.84 211.546L1059.31 198.562C1062.56 190.852 1058.94 181.967 1051.24 178.717Z" fill="#3361C2"/>
<path d="M1049.62 185.31L1040.83 206.13" stroke="white" stroke-width="3" stroke-linecap="square"/>
<path d="M1074.05 567.25C1083.84 561.403 1092.85 554.325 1100.84 546.19C1116.38 530.19 1120.69 513.57 1120.69 513.57" stroke="white" stroke-width="3"/>
<path d="M790.11 464.97C797.417 464.97 803.34 459.047 803.34 451.74C803.34 444.433 797.417 438.51 790.11 438.51C782.803 438.51 776.88 444.433 776.88 451.74C776.88 459.047 782.803 464.97 790.11 464.97Z" fill="#B5D6F4"/>
<path d="M1044.84 333.11L1057.3 416.67C1058.28 423.284 1057.86 430.031 1056.06 436.47" stroke="white" stroke-width="3"/>
<path d="M824.02 341.99C841.975 341.99 856.53 327.435 856.53 309.48C856.53 291.525 841.975 276.97 824.02 276.97C806.065 276.97 791.51 291.525 791.51 309.48C791.51 327.435 806.065 341.99 824.02 341.99Z" fill="#EF6E45"/>
<mask id="mask2" mask-type="alpha" maskUnits="userSpaceOnUse" x="791" y="276" width="66" height="66">
<path fill-rule="evenodd" clip-rule="evenodd" d="M824.02 341.99C841.975 341.99 856.53 327.435 856.53 309.48C856.53 291.525 841.975 276.97 824.02 276.97C806.065 276.97 791.51 291.525 791.51 309.48C791.51 327.435 806.065 341.99 824.02 341.99Z" fill="white"/>
</mask>
<g mask="url(#mask2)">
<path d="M797.3 284.96L860.22 315.11" stroke="#F8CF61" stroke-width="8"/>
<path d="M787.92 306.81L881.15 294.34" stroke="#F8CF61" stroke-width="8"/>
<path d="M857.92 330.11L789.46 319.19" stroke="#F8CF61" stroke-width="8"/>
</g>
<path d="M886.28 319.11L975.59 389.79L981.25 414.43L912.26 495.78" stroke="white" stroke-width="3"/>
</svg>
