<svg width="1770" height="1125" viewBox="0 0 1770 1125" fill="none" xmlns="http://www.w3.org/2000/svg">
<path d="M142.27 396.98C140.959 410.735 135.245 423.7 125.977 433.948C116.708 444.196 104.38 451.179 90.8263 453.86C77.2716 456.542 63.2135 454.778 50.7416 448.83C38.2696 442.883 28.0496 433.07 21.6006 420.85C20.2149 418.225 19.0088 415.509 17.9906 412.72C14.7154 403.667 13.5181 393.993 14.4874 384.415C15.4567 374.837 18.5677 365.599 23.5902 357.386C28.6128 349.173 35.4181 342.194 43.5026 336.967C51.5871 331.739 60.7438 328.397 70.2947 327.188C79.8456 325.978 89.5463 326.932 98.6787 329.979C107.811 333.026 116.141 338.087 123.052 344.789C129.964 351.491 135.28 359.661 138.606 368.695C141.933 377.73 143.185 387.396 142.27 396.98Z" fill="#EDF1F5"/>
<path d="M801.57 847.23C800.737 856.042 798.085 864.586 793.782 872.322C789.479 880.057 783.618 886.815 776.57 892.17C774.26 893.93 771.834 895.534 769.31 896.97C756.81 904.06 742.292 906.751 728.082 904.611C713.871 902.471 700.79 895.625 690.932 885.168C681.074 874.711 675.011 861.249 673.712 846.937C672.414 832.625 675.955 818.291 683.77 806.231C691.585 794.171 703.22 785.082 716.814 780.419C730.407 775.757 745.172 775.79 758.744 780.515C772.316 785.24 783.91 794.382 791.669 806.478C799.428 818.574 802.904 832.924 801.54 847.23H801.57Z" fill="#EDF1F5"/>
<path d="M1041.92 637.69C1041.51 642.096 1040.19 646.369 1038.04 650.239C1035.89 654.108 1032.96 657.49 1029.44 660.17C1028.28 661.044 1027.07 661.846 1025.81 662.57C1022.07 664.684 1017.94 666.027 1013.68 666.519C1009.41 667.012 1005.09 666.644 1000.96 665.438C996.84 664.232 993 662.211 989.671 659.496C986.342 656.781 983.591 653.426 981.58 649.63C980.889 648.316 980.287 646.956 979.78 645.56C978.142 641.034 977.544 636.197 978.028 631.408C978.513 626.618 980.068 622 982.58 617.893C985.091 613.786 988.494 610.297 992.536 607.683C996.578 605.07 1001.16 603.399 1005.93 602.794C1010.71 602.189 1015.56 602.666 1020.12 604.189C1024.69 605.713 1028.86 608.244 1032.31 611.594C1035.77 614.945 1038.42 619.031 1040.09 623.548C1041.75 628.065 1042.38 632.898 1041.92 637.69Z" fill="#EDF1F5"/>
<path d="M259.15 1063.26C258.732 1067.67 257.407 1071.94 255.258 1075.81C253.108 1079.68 250.181 1083.06 246.66 1085.74C245.505 1086.62 244.292 1087.42 243.03 1088.14C239.29 1090.26 235.162 1091.62 230.889 1092.11C226.617 1092.61 222.289 1092.25 218.161 1091.04C214.032 1089.83 210.189 1087.81 206.858 1085.09C203.527 1082.37 200.776 1079 198.77 1075.2C198.073 1073.89 197.471 1072.53 196.97 1071.13C195.332 1066.6 194.734 1061.77 195.218 1056.98C195.703 1052.19 197.258 1047.57 199.77 1043.46C202.281 1039.36 205.684 1035.87 209.726 1033.25C213.768 1030.64 218.346 1028.97 223.122 1028.36C227.897 1027.76 232.748 1028.24 237.314 1029.76C241.88 1031.28 246.045 1033.81 249.501 1037.16C252.957 1040.52 255.615 1044.6 257.278 1049.12C258.941 1053.63 259.567 1058.47 259.11 1063.26H259.15Z" fill="#EDF1F5"/>
<path d="M1475.05 329.74C1474.64 334.145 1473.31 338.416 1471.16 342.283C1469.02 346.151 1466.09 349.531 1462.57 352.21C1461.41 353.088 1460.2 353.89 1458.94 354.61C1455.2 356.729 1451.08 358.076 1446.81 358.572C1442.54 359.069 1438.22 358.703 1434.09 357.499C1429.97 356.294 1426.13 354.274 1422.8 351.559C1419.47 348.843 1416.72 345.488 1414.71 341.69C1414.02 340.379 1413.42 339.023 1412.91 337.63C1411.27 333.104 1410.67 328.267 1411.16 323.478C1411.64 318.688 1413.2 314.07 1415.71 309.963C1418.22 305.856 1421.62 302.367 1425.67 299.753C1429.71 297.14 1434.29 295.469 1439.06 294.864C1443.84 294.259 1448.69 294.736 1453.25 296.259C1457.82 297.783 1461.99 300.314 1465.44 303.664C1468.9 307.015 1471.55 311.101 1473.22 315.618C1474.88 320.135 1475.51 324.968 1475.05 329.76V329.74Z" fill="#EDF1F5"/>
<path d="M1755.86 155.96C1755.45 160.365 1754.12 164.636 1751.98 168.503C1749.83 172.371 1746.9 175.751 1743.38 178.43C1742.23 179.31 1741.01 180.112 1739.75 180.83C1736.01 182.951 1731.89 184.299 1727.62 184.795C1723.35 185.291 1719.03 184.925 1714.9 183.718C1710.78 182.511 1706.94 180.488 1703.61 177.769C1700.28 175.05 1697.53 171.691 1695.53 167.89C1694.83 166.582 1694.23 165.225 1693.73 163.83C1692.09 159.303 1691.49 154.465 1691.97 149.673C1692.45 144.882 1694.01 140.26 1696.52 136.151C1699.03 132.042 1702.43 128.55 1706.47 125.935C1710.52 123.319 1715.1 121.647 1719.87 121.042C1724.65 120.437 1729.5 120.914 1734.07 122.439C1738.64 123.964 1742.81 126.497 1746.26 129.85C1749.72 133.203 1752.37 137.291 1754.04 141.811C1755.7 146.331 1756.32 151.167 1755.86 155.96Z" fill="#EDF1F5"/>
<path d="M64.0499 189.36C63.6347 193.765 62.3104 198.037 60.1606 201.904C58.0108 205.772 55.0822 209.152 51.5599 211.83C45.1381 216.74 37.0961 219.037 29.0499 218.26C22.7324 217.656 16.7358 215.192 11.8185 211.18C6.9011 207.168 3.28373 201.788 1.42376 195.721C-0.436213 189.653 -0.455272 183.17 1.36899 177.091C3.19325 171.013 6.77891 165.612 11.6726 161.571C16.5663 157.53 22.5483 155.031 28.8621 154.39C35.176 153.749 41.5382 154.994 47.1444 157.968C52.7506 160.943 57.349 165.513 60.3581 171.1C63.3672 176.688 64.652 183.042 64.0499 189.36Z" fill="#EDF1F5"/>
<path d="M1498.95 1095.36C1498.45 1100.61 1496.66 1105.66 1493.74 1110.06C1490.82 1114.46 1486.86 1118.07 1482.21 1120.57C1477.56 1123.07 1472.37 1124.39 1467.09 1124.41C1461.81 1124.43 1456.61 1123.14 1451.95 1120.67C1446.28 1117.64 1441.64 1112.98 1438.63 1107.3C1437.94 1105.99 1437.33 1104.63 1436.82 1103.23C1435.18 1098.7 1434.58 1093.87 1435.07 1089.08C1435.55 1084.29 1437.11 1079.67 1439.62 1075.56C1442.13 1071.46 1445.53 1067.97 1449.58 1065.35C1453.62 1062.74 1458.2 1061.07 1462.97 1060.46C1467.75 1059.86 1472.6 1060.34 1477.16 1061.86C1481.73 1063.38 1485.9 1065.91 1489.35 1069.26C1492.81 1072.62 1495.46 1076.7 1497.13 1081.22C1498.79 1085.73 1499.42 1090.57 1498.96 1095.36H1498.95Z" fill="#EDF1F5"/>
<path d="M852.18 985.6C851.766 990.005 850.443 994.275 848.295 998.143C846.147 1002.01 843.221 1005.39 839.7 1008.07C838.545 1008.95 837.332 1009.75 836.07 1010.47C832.333 1012.59 828.207 1013.94 823.939 1014.43C819.67 1014.93 815.346 1014.56 811.222 1013.36C807.097 1012.15 803.258 1010.13 799.93 1007.41C796.602 1004.69 793.855 1001.33 791.85 997.53C791.155 996.221 790.553 994.864 790.05 993.47C788.409 988.943 787.807 984.104 788.289 979.313C788.771 974.522 790.325 969.9 792.836 965.791C795.346 961.682 798.75 958.19 802.793 955.575C806.836 952.959 811.416 951.287 816.194 950.682C820.971 950.077 825.823 950.554 830.391 952.079C834.959 953.604 839.125 956.137 842.581 959.49C846.037 962.843 848.694 966.931 850.356 971.451C852.018 975.971 852.641 980.807 852.18 985.6Z" fill="#EDF1F5"/>
<path d="M1769.29 999.42C1768.46 1008.23 1765.81 1016.78 1761.5 1024.51C1757.2 1032.25 1751.34 1039.01 1744.29 1044.36C1741.98 1046.12 1739.55 1047.73 1737.03 1049.17C1725 1056.01 1711.08 1058.77 1697.35 1057.04C1683.61 1055.31 1670.81 1049.19 1660.85 1039.58C1653.76 1032.76 1648.33 1024.41 1644.98 1015.16C1641.7 1006.11 1640.51 996.433 1641.48 986.855C1642.45 977.277 1645.56 968.039 1650.58 959.826C1655.6 951.613 1662.41 944.634 1670.49 939.407C1678.58 934.179 1687.73 930.837 1697.28 929.628C1706.83 928.418 1716.54 929.372 1725.67 932.419C1734.8 935.465 1743.13 940.527 1750.04 947.229C1756.95 953.931 1762.27 962.101 1765.6 971.135C1768.92 980.17 1770.17 989.836 1769.26 999.42H1769.29Z" fill="#EDF1F5"/>
<path d="M1097.48 70.29C1096.65 79.1024 1094 87.6462 1089.69 95.3815C1085.39 103.117 1079.53 109.875 1072.48 115.23C1070.17 116.996 1067.75 118.6 1065.22 120.03C1053.19 126.866 1039.27 129.627 1025.54 127.9C1011.81 126.174 999.005 120.052 989.04 110.45C984.115 105.702 979.974 100.204 976.77 94.16C972.123 85.3312 969.595 75.5416 969.387 65.5667C969.179 55.5917 971.296 45.7052 975.57 36.69C982.044 23.0519 993.117 12.1313 1006.84 5.84706C1020.57 -0.437193 1036.07 -1.68312 1050.63 2.32816C1065.18 6.33944 1077.85 15.3513 1086.42 27.7805C1094.99 40.2096 1098.91 55.261 1097.48 70.29Z" fill="#EDF1F5"/>
<path d="M89.7695 1013.65L286.69 860.69" stroke="#F9D0B5" stroke-width="14"/>
<path d="M839.31 333.92L1305.99 614.39" stroke="#F9D0B5" stroke-width="14"/>
<path d="M1102.69 1004.04L1419.66 815.38" stroke="#F9D0B5" stroke-width="14"/>
<path d="M574.69 448.38L486.08 582.54" stroke="#F9D0B5" stroke-width="14"/>
<path d="M1668.81 333.92L1580.21 553.15" stroke="#F9D0B5" stroke-width="14"/>
<path d="M1324.23 107.92L1663.93 312.84" stroke="#F9D0B5" stroke-width="14"/>
<path d="M248.54 97.4301L573.46 208.39" stroke="#F9D0B5" stroke-width="14"/>
<path d="M622.92 749.78C617.299 809.374 589.298 864.622 544.56 904.39C540.066 908.39 535.43 912.21 530.65 915.85C522.118 922.359 513.158 928.286 503.83 933.59C462.004 957.393 413.901 967.839 365.97 963.53L364.28 963.38C327.703 959.893 292.436 947.955 261.261 928.508C230.086 909.062 203.856 882.637 184.64 851.32C181.973 846.96 179.43 842.51 177.01 837.97C159.827 805.356 150.467 769.192 149.67 732.336C148.874 695.481 156.662 658.946 172.42 625.62C213.98 537.96 307.17 481.38 409.33 491.13C539.77 503.57 635.37 619.38 622.92 749.78Z" fill="#F9D0B5"/>
<path d="M142.27 1027.13C141.445 1035.95 138.797 1044.51 134.494 1052.25C130.19 1060 124.325 1066.77 117.27 1072.13C114.96 1073.89 112.534 1075.49 110.01 1076.93C102.534 1081.17 94.2833 1083.86 85.747 1084.85C77.2108 1085.84 68.5626 1085.11 60.3149 1082.7C52.0673 1080.28 44.3881 1076.24 37.7326 1070.8C31.0771 1065.37 25.5808 1058.65 21.5693 1051.05C20.1817 1048.43 18.9756 1045.71 17.9593 1042.92C14.6841 1033.87 13.4868 1024.19 14.4561 1014.62C15.4254 1005.04 18.5364 995.799 23.559 987.586C28.5815 979.373 35.3869 972.394 43.4714 967.167C51.5559 961.939 60.7125 958.597 70.2634 957.388C79.8143 956.178 89.5151 957.132 98.6475 960.179C107.78 963.225 116.111 968.287 123.022 974.989C129.934 981.691 135.249 989.861 138.576 998.895C141.903 1007.93 143.155 1017.6 142.24 1027.18L142.27 1027.13Z" fill="#F9D0B5"/>
<path d="M1704.3 742.15C1700.98 776.588 1690.16 809.882 1672.6 839.697C1655.05 869.511 1631.19 895.125 1602.69 914.741C1574.19 934.357 1541.74 947.501 1507.62 953.251C1473.51 959 1438.55 957.217 1405.19 948.025C1371.84 938.832 1340.9 922.454 1314.54 900.039C1288.19 877.625 1267.05 849.715 1252.62 818.269C1238.2 786.822 1230.82 752.6 1231.02 718.003C1231.22 683.405 1238.98 649.269 1253.77 617.99C1295.33 530.33 1388.52 473.75 1490.68 483.5C1621.12 495.94 1716.77 611.75 1704.3 742.15Z" fill="#F9D0B5"/>
<path d="M916.53 281.53C913.216 315.976 902.406 349.28 884.856 379.106C867.307 408.931 843.443 434.555 814.941 454.179C786.438 473.804 753.987 486.954 719.863 492.708C685.739 498.461 650.77 496.678 617.409 487.483C584.047 478.288 553.102 461.905 526.743 439.483C500.385 417.06 479.252 389.142 464.828 357.686C450.403 326.231 443.036 292 443.244 257.395C443.452 222.79 451.229 188.65 466.03 157.37C507.59 69.69 600.77 13.13 702.94 22.88C833.35 35.32 928.98 151.13 916.53 281.53Z" fill="#F9D0B5"/>
<path d="M323.19 105.2C321.877 118.954 316.162 131.918 306.893 142.164C297.624 152.411 285.296 159.393 271.741 162.073C258.187 164.753 244.13 162.988 231.659 157.04C219.188 151.093 208.968 141.28 202.52 129.06C201.13 126.438 199.927 123.721 198.92 120.93C195.649 111.879 194.455 102.208 195.427 92.6329C196.399 83.058 199.511 73.8241 204.534 65.6145C209.557 57.405 216.361 50.43 224.444 45.2055C232.526 39.9811 241.68 36.641 251.228 35.4325C260.776 34.2239 270.474 35.1778 279.603 38.2235C288.733 41.2692 297.06 46.3289 303.97 53.028C310.88 59.7271 316.195 67.8943 319.522 76.9251C322.849 85.9559 324.102 95.6192 323.19 105.2Z" fill="#F9D0B5"/>
<path d="M1144.55 1019.75C1143.41 1031.77 1138.9 1043.23 1131.55 1052.8C1124.19 1062.38 1114.28 1069.68 1102.96 1073.87C1091.63 1078.07 1079.36 1078.98 1067.54 1076.51C1055.72 1074.04 1044.83 1068.29 1036.14 1059.91C1029.06 1053.09 1023.63 1044.74 1020.28 1035.49C1017.01 1026.44 1015.81 1016.77 1016.79 1007.19C1017.76 997.619 1020.87 988.385 1025.89 980.176C1030.91 971.966 1037.72 964.991 1045.8 959.766C1053.88 954.541 1063.03 951.2 1072.58 949.991C1082.13 948.782 1091.83 949.735 1100.96 952.78C1110.09 955.824 1118.41 960.883 1125.32 967.581C1132.23 974.28 1137.55 982.446 1140.88 991.476C1144.21 1000.51 1145.46 1010.17 1144.55 1019.75Z" fill="#F9D0B5"/>
<path d="M1737.71 321.02C1736.4 334.775 1730.68 347.74 1721.42 357.988C1712.15 368.235 1699.82 375.219 1686.27 377.9C1672.71 380.582 1658.65 378.817 1646.18 372.87C1633.71 366.923 1623.49 357.11 1617.04 344.89C1615.65 342.266 1614.45 339.549 1613.43 336.76C1610.15 327.707 1608.96 318.033 1609.93 308.455C1610.9 298.877 1614.01 289.639 1619.03 281.426C1624.05 273.213 1630.86 266.234 1638.94 261.007C1647.03 255.779 1656.18 252.437 1665.73 251.228C1675.29 250.018 1684.99 250.972 1694.12 254.019C1703.25 257.065 1711.58 262.127 1718.49 268.829C1725.4 275.531 1730.72 283.701 1734.05 292.735C1737.37 301.77 1738.62 311.436 1737.71 321.02Z" fill="#F9D0B5"/>
<path d="M1369.89 100.53C1369.06 109.342 1366.41 117.886 1362.1 125.621C1357.8 133.357 1351.94 140.115 1344.89 145.47C1342.58 147.236 1340.16 148.84 1337.63 150.27C1325.6 157.106 1311.68 159.867 1297.95 158.14C1284.22 156.414 1271.41 150.292 1261.45 140.69C1254.37 133.869 1248.94 125.515 1245.59 116.27C1242.32 107.219 1241.13 97.5485 1242.1 87.9737C1243.07 78.399 1246.18 69.1652 1251.2 60.9556C1256.22 52.7459 1263.03 45.7706 1271.11 40.5458C1279.19 35.321 1288.35 31.9803 1297.89 30.771C1307.44 29.5617 1317.14 30.5147 1326.27 33.5596C1335.4 36.6044 1343.72 41.6631 1350.64 48.3614C1357.55 55.0596 1362.86 63.226 1366.19 72.2562C1369.52 81.2864 1370.77 90.9493 1369.86 100.53H1369.89Z" fill="#F9D0B5"/>
<path d="M1237.77 598.43L1243.88 587.32C1246.45 581.774 1248.73 576.1 1250.72 570.32C1253.8 561.25 1252.72 548.32 1266.21 536.11C1279.7 523.9 1259.75 527.27 1253.01 532.9C1247.39 537.59 1242.82 550.9 1237.23 553.9C1235.95 552.093 1234.94 550.113 1234.23 548.02L1222.01 490.76C1221.83 489.843 1221.33 489.02 1220.6 488.443C1219.86 487.867 1218.94 487.574 1218.01 487.62L1215.77 487.69C1215.23 487.719 1214.7 487.861 1214.21 488.107C1213.73 488.353 1213.3 488.697 1212.96 489.118C1212.61 489.539 1212.36 490.027 1212.22 490.551C1212.07 491.075 1212.04 491.623 1212.12 492.16C1214 504.41 1220.53 540.86 1219.87 540.88L1218.52 541.52L1199.78 483.52C1199.52 482.604 1198.93 481.817 1198.13 481.307C1197.32 480.798 1196.36 480.603 1195.42 480.76L1192.42 481.26C1191.9 481.342 1191.4 481.529 1190.96 481.811C1190.51 482.092 1190.13 482.461 1189.83 482.896C1189.54 483.33 1189.33 483.821 1189.23 484.338C1189.13 484.854 1189.14 485.386 1189.25 485.9C1192.13 499.24 1205.6 543.63 1204.92 543.67L1203.27 544.23L1182.94 496.23C1182.66 495.274 1182.02 494.463 1181.15 493.964C1180.29 493.465 1179.27 493.317 1178.3 493.55L1175.91 494.14C1175.41 494.262 1174.94 494.481 1174.53 494.784C1174.12 495.087 1173.77 495.469 1173.5 495.907C1173.24 496.346 1173.06 496.832 1172.98 497.339C1172.9 497.845 1172.93 498.362 1173.05 498.86L1191.34 546.08L1189.66 547.14L1170.5 513.03C1170.13 512.152 1169.45 511.44 1168.59 511.027C1167.74 510.614 1166.76 510.53 1165.84 510.79L1164.7 511.13C1163.72 511.417 1162.9 512.072 1162.4 512.957C1161.9 513.842 1161.76 514.887 1162.02 515.87C1163.86 522.87 1173.02 537.56 1178.35 552.87C1182.52 564.73 1182.81 574.23 1189.69 588.59C1192.59 594.68 1198.11 601.91 1201.12 605.94" fill="#3361C2"/>
<path d="M1585.21 925.96C1540.74 951.176 1489.31 961.35 1438.58 954.967C1387.86 948.585 1340.55 925.987 1303.71 890.54L1306.57 817.21L1214.77 802.05C1201.22 798.328 1189.44 789.899 1181.55 778.275C1173.66 766.651 1170.17 752.595 1171.71 738.63L1179.22 594.69L1251.75 599.69L1253.75 618.01L1264.96 714.69C1264.96 714.69 1340.84 724.18 1444.39 750.69C1545.19 776.5 1574.88 866.01 1585.21 925.96Z" fill="#EF6E45"/>
<path d="M1305.57 816.28L1306.42 791.29" stroke="white" stroke-width="3" stroke-linecap="square"/>
<path d="M1506.23 660.934C1534.03 625.492 1530.07 575.976 1497.38 550.337C1464.7 524.698 1415.66 532.645 1387.86 568.087C1360.06 603.529 1364.02 653.045 1396.71 678.684C1429.4 704.323 1478.43 696.376 1506.23 660.934Z" fill="#24272D"/>
<path d="M1396.64 779.35C1391.18 775.398 1387.16 769.775 1385.19 763.334C1383.21 756.892 1383.39 749.982 1385.69 743.65L1421.79 644.53C1423.02 640.509 1425.06 636.781 1427.78 633.572C1430.49 630.364 1433.84 627.742 1437.6 625.866C1441.37 623.99 1445.47 622.9 1449.67 622.661C1453.87 622.422 1458.07 623.04 1462.02 624.477C1465.98 625.914 1469.59 628.141 1472.66 631.02C1475.72 633.9 1478.17 637.373 1479.85 641.229C1481.53 645.084 1482.41 649.241 1482.43 653.446C1482.45 657.651 1481.62 661.817 1479.98 665.69L1443.87 764.82C1442.22 769.314 1439.56 773.366 1436.09 776.659C1432.62 779.952 1428.43 782.396 1423.86 783.801C1419.28 785.205 1414.44 785.531 1409.72 784.754C1405 783.977 1400.52 782.117 1396.64 779.32V779.35Z" fill="#3361C2"/>
<path d="M1402.77 724.08L1396.77 721.85C1389.79 719.26 1383.47 715.164 1378.26 709.853C1373.04 704.542 1369.07 698.148 1366.6 691.124C1364.14 684.101 1363.26 676.621 1364.02 669.218C1364.78 661.814 1367.16 654.669 1370.99 648.29L1389.99 616.69C1396.12 606.485 1405.65 598.766 1416.91 594.889C1428.16 591.012 1440.42 591.225 1451.54 595.49C1464.08 600.303 1474.19 609.9 1479.66 622.17C1485.12 634.441 1485.49 648.379 1480.68 660.92L1467.68 694.75C1462.9 707.201 1453.41 717.265 1441.25 722.756C1429.1 728.247 1415.27 728.723 1402.77 724.08Z" fill="#3361C2"/>
<path d="M1407.56 634.62L1381.55 655.74L1391.76 663.41" stroke="white" stroke-width="3" stroke-linecap="square"/>
<path d="M1414.17 649.54C1417.2 649.54 1419.66 647.082 1419.66 644.05C1419.66 641.018 1417.2 638.56 1414.17 638.56C1411.14 638.56 1408.68 641.018 1408.68 644.05C1408.68 647.082 1411.14 649.54 1414.17 649.54Z" fill="white"/>
<path d="M1391.34 637.99C1394.37 637.99 1396.83 635.532 1396.83 632.5C1396.83 629.468 1394.37 627.01 1391.34 627.01C1388.31 627.01 1385.85 629.468 1385.85 632.5C1385.85 635.532 1388.31 637.99 1391.34 637.99Z" fill="white"/>
<path d="M1557.77 808.25C1557.77 808.25 1532.45 871.64 1483.13 843.48C1401.48 796.85 1418.25 735.53 1441.27 707.48C1450.44 696.31 1463.27 691.36 1476.66 687.3C1437.73 652.97 1456.87 625.63 1456.87 625.63C1456.87 625.63 1352.75 618.94 1386.42 569.55C1420.09 520.16 1480.23 526.63 1512.11 548.08C1586.21 597.96 1560.99 648.8 1577.9 667.52C1673.77 773.75 1557.77 808.25 1557.77 808.25Z" fill="#24272D"/>
<path d="M1487.6 691.649C1498.37 685.104 1501.79 671.072 1495.24 660.308C1488.7 649.544 1474.67 646.124 1463.9 652.668L1446.18 663.443C1435.42 669.988 1432 684.019 1438.54 694.784C1445.09 705.548 1459.12 708.968 1469.88 702.424L1487.6 691.649Z" fill="#3361C2"/>
<path d="M1482.76 668.88L1457.62 684.15" stroke="white" stroke-width="3" stroke-linecap="square"/>
<path d="M1406.91 678.88C1407.17 682.374 1406.04 685.831 1403.76 688.489C1401.47 691.147 1398.23 692.79 1394.73 693.055C1391.24 693.32 1387.78 692.187 1385.13 689.903C1382.47 687.62 1380.82 684.374 1380.56 680.88C1380 673.6 1387.37 673.67 1394.64 673.11C1401.91 672.55 1406.35 671.6 1406.91 678.88Z" fill="white"/>
<path d="M832.5 441.01L824.26 447.6C815.728 454.109 806.768 460.036 797.44 465.34C769.813 480.998 739.324 490.951 707.779 494.61C676.235 498.268 644.277 495.557 613.8 486.637C583.322 477.717 554.946 462.771 530.351 442.682C505.757 422.594 485.445 397.773 470.62 369.69C508.28 342.01 571.33 308.94 651.98 315.69C786.88 327.04 832.5 441.01 832.5 441.01Z" fill="#3361C2"/>
<path d="M671.77 371.92C670.252 371.924 668.736 371.834 667.23 371.65C657.223 370.458 648.1 365.341 641.867 357.423C635.633 349.506 632.8 339.437 633.99 329.43L651.99 178.02C653.183 168.012 658.303 158.888 666.224 152.655C670.146 149.569 674.637 147.286 679.441 145.935C684.246 144.585 689.269 144.194 694.225 144.785C699.18 145.376 703.971 146.937 708.323 149.38C712.675 151.822 716.503 155.098 719.589 159.019C722.675 162.941 724.959 167.433 726.309 172.237C727.66 177.041 728.051 182.065 727.46 187.02L709.46 338.43C708.357 347.655 703.914 356.155 696.969 362.326C690.024 368.497 681.06 371.91 671.77 371.92Z" fill="#EF6E45"/>
<path d="M703.58 294.57L711.64 295.47C721.012 296.527 730.503 295.505 739.436 292.477C748.368 289.449 756.524 284.49 763.322 277.951C770.12 271.413 775.394 263.457 778.767 254.648C782.14 245.84 783.531 236.397 782.84 226.99L779.42 180.39C778.314 165.34 771.942 151.16 761.421 140.341C750.9 129.522 736.903 122.755 721.89 121.23C704.953 119.512 688.028 124.592 674.836 135.353C661.645 146.114 653.269 161.674 651.55 178.61L646.91 224.3C645.202 241.115 650.195 257.924 660.805 271.08C671.415 284.236 686.785 292.676 703.58 294.57Z" fill="#EF6E45"/>
<path d="M666.244 245.039L666.252 245.033C677.354 238.204 680.817 223.668 673.987 212.566L666.971 201.162C660.141 190.061 645.605 186.598 634.504 193.427L634.495 193.432C623.394 200.262 619.931 214.798 626.761 225.899L633.777 237.304C640.607 248.405 655.142 251.868 666.244 245.039Z" fill="#EF6E45"/>
<path d="M637.16 211.87L656.08 231.87" stroke="white" stroke-width="3" stroke-linecap="square"/>
<path d="M749.66 186.31L750.99 223.76L737.67 224.3" stroke="white" stroke-width="3" stroke-linecap="square"/>
<path d="M709.98 235.93C708.879 237.965 708.19 240.198 707.951 242.5C707.713 244.802 707.93 247.128 708.591 249.346C709.251 251.564 710.343 253.63 711.802 255.426C713.261 257.223 715.06 258.714 717.095 259.815C719.131 260.916 721.363 261.606 723.665 261.844C725.967 262.082 728.293 261.865 730.511 261.204C732.729 260.544 734.795 259.452 736.591 257.993C738.388 256.534 739.879 254.736 740.98 252.7C745.61 244.13 736.6 240.22 727.98 235.59C719.36 230.96 714.61 227.37 709.98 235.93Z" fill="white"/>
<path d="M671.201 229.16L689.201 161.55L693.471 145.55C697.483 149.85 702.18 153.456 707.371 156.22C726.211 166.36 783.011 162.32 790.881 122.49C797.301 90.01 762.811 108.68 745.151 106.65C717.401 103.45 698.151 87.12 660.151 107.65C614.701 132.24 636.231 192.52 636.231 192.52C636.231 192.52 656.231 184.69 671.201 229.16Z" fill="#24272D"/>
<path d="M713.65 295.67L689.58 293.48L711.56 314.93L713.65 295.67Z" fill="#24272D"/>
<path d="M724.01 206.54C727.66 206.54 730.62 203.581 730.62 199.93C730.62 196.279 727.66 193.32 724.01 193.32C720.359 193.32 717.4 196.279 717.4 199.93C717.4 203.581 720.359 206.54 724.01 206.54Z" fill="white"/>
<path d="M763.44 206.54C767.091 206.54 770.05 203.581 770.05 199.93C770.05 196.279 767.091 193.32 763.44 193.32C759.789 193.32 756.83 196.279 756.83 199.93C756.83 203.581 759.789 206.54 763.44 206.54Z" fill="white"/>
<path d="M582.01 862.07C571.249 877.612 558.678 891.819 544.56 904.39C540.066 908.39 535.43 912.21 530.65 915.85C522.118 922.359 513.158 928.286 503.83 933.59C489.922 941.503 475.247 947.983 460.03 952.93L365.97 963.53L364.28 963.38C327.703 959.893 292.436 947.955 261.261 928.508C230.086 909.061 203.856 882.637 184.64 851.32C220.19 786.13 283.7 719 396.46 702.79C503.96 687.34 563.04 812.59 582.01 862.07Z" fill="#24272D"/>
<path d="M410.84 758.87L409.64 758.95C398.192 759.474 387.005 755.43 378.539 747.708C370.072 739.986 365.019 729.217 364.49 717.77L357.49 565.93C357.227 560.262 358.083 554.597 360.01 549.259C361.937 543.922 364.896 539.016 368.718 534.822C376.438 526.352 387.207 521.296 398.655 520.765C410.103 520.235 421.293 524.274 429.763 531.994C438.233 539.714 443.289 550.482 443.82 561.93L450.82 713.76C451.345 725.006 447.461 736.012 439.994 744.437C432.527 752.863 422.067 758.041 410.84 758.87Z" fill="#3361C2"/>
<path d="M436.41 679.47L444.24 677.47C453.337 675.102 461.801 670.759 469.03 664.75C476.259 658.74 482.076 651.212 486.066 642.701C490.057 634.189 492.123 624.903 492.118 615.502C492.114 606.102 490.038 596.818 486.04 588.31L466.21 546.16C459.802 532.554 448.808 521.638 435.155 515.33C421.503 509.021 406.065 507.722 391.55 511.66C375.173 516.107 361.233 526.875 352.794 541.598C344.356 556.32 342.109 573.792 346.55 590.17L358.55 634.35C362.977 650.604 373.635 664.458 388.211 672.905C402.787 681.352 420.106 683.711 436.41 679.47Z" fill="#3361C2"/>
<path d="M351.006 651.042C361.329 658.937 376.097 656.969 383.991 646.647C391.886 636.325 389.918 621.557 379.596 613.662L369 605.558C358.678 597.663 343.91 599.631 336.015 609.953C328.12 620.275 330.088 635.043 340.41 642.938L351.006 651.042Z" fill="#3361C2"/>
<path d="M497.98 632.17C504.08 657.52 499.98 694.7 469.28 702.47C438.58 710.24 400.47 685.69 394.07 660.39C387.67 635.09 394.68 620.96 425.4 613.18C456.12 605.4 490.01 599.1 497.98 632.17Z" fill="#24272D"/>
<path d="M345.06 626.22L365.23 638.12" stroke="white" stroke-width="3" stroke-linecap="square"/>
<path d="M421.77 636.08C421.266 640.653 422.576 645.24 425.418 648.858C428.259 652.475 432.407 654.834 436.969 655.427C441.531 656.02 446.143 654.801 449.816 652.03C453.488 649.26 455.927 645.159 456.61 640.61C457.86 630.99 448.07 630.61 438.45 629.31C428.83 628.01 423.02 626.46 421.77 636.08Z" fill="white"/>
<path d="M448.6 675.88L424.57 677.66L449.69 695.16L448.6 675.88Z" fill="#24272D"/>
<path d="M418.81 598.02C422.444 598.02 425.39 595.074 425.39 591.44C425.39 587.806 422.444 584.86 418.81 584.86C415.176 584.86 412.23 587.806 412.23 591.44C412.23 595.074 415.176 598.02 418.81 598.02Z" fill="white"/>
<path d="M464.84 585.02C468.474 585.02 471.42 582.074 471.42 578.44C471.42 574.806 468.474 571.86 464.84 571.86C461.206 571.86 458.26 574.806 458.26 578.44C458.26 582.074 461.206 585.02 464.84 585.02Z" fill="white"/>
<path d="M347.06 958.41L373.38 976.06C373.38 976.06 372.21 1038.84 399.82 1035.49C399.82 1035.49 399.93 1045.41 405.54 1046.36C411.15 1047.31 426.44 1023.89 426.44 1023.89C426.44 1023.89 447.44 1015.97 451.59 995.69C455.74 975.41 456.5 927.51 450.02 923.9C443.54 920.29 379.61 918.71 379.61 918.71C379.61 918.71 353.07 921.93 347.06 958.41Z" fill="#3361C2"/>
<path d="M391.46 910.69L285.33 871.51" stroke="white" stroke-width="3" stroke-linecap="square"/>
<path d="M306.4 877.37L365.95 804.89" stroke="white" stroke-width="3" stroke-linecap="square"/>
<path d="M346.9 961.13C346.9 961.13 344.13 923.02 393.39 911.28" stroke="white" stroke-width="3" stroke-linecap="square"/>
<path d="M446.15 568.34L460.75 602.71L448.55 607.97" stroke="white" stroke-width="3" stroke-linecap="square"/>
</svg>
