<svg width="1667" height="1092" viewBox="0 0 1667 1092" fill="none" xmlns="http://www.w3.org/2000/svg">
<path d="M899.49 584.5C899.49 584.5 932.13 523.06 993.72 523.06C1033.87 523.06 1043.66 550.6 1082.83 550.6C1122 550.6 1170.96 423.68 1237.55 423.68C1304.14 423.68 1390.32 573.23 1440.26 573.23C1490.2 573.23 1502.93 516.23 1545.04 516.23C1587.15 516.23 1666.47 613.66 1666.47 613.66" fill="url(#paint0_linear)"/>
<path d="M0 633.7C0 633.7 111.61 385.7 226 385.7C340.39 385.7 328.78 600.47 453 600.47C577.22 600.47 684.69 469.75 795 469.75C905.31 469.75 1019.08 652.22 1019.08 652.22" fill="url(#paint1_linear)"/>
<path d="M769.28 877.9C798.64 877.9 822.44 854.099 822.44 824.74C822.44 795.381 798.64 771.58 769.28 771.58C739.921 771.58 716.12 795.381 716.12 824.74C716.12 854.099 739.921 877.9 769.28 877.9Z" fill="#FFC774"/>
<path d="M844.08 829.74C854.734 829.739 865.283 831.836 875.125 835.912C884.967 839.989 893.91 845.964 901.443 853.497C908.976 861.029 914.951 869.972 919.027 879.815C923.104 889.657 925.201 900.206 925.2 910.859L937.2 910.861C937.201 898.632 934.794 886.522 930.114 875.223C925.435 863.925 918.576 853.659 909.929 845.011C901.281 836.364 891.015 829.505 879.717 824.826C868.418 820.146 856.308 817.739 844.079 817.74L844.08 829.74Z" fill="#3971D3"/>
<path d="M943.725 942.162C939.648 932.32 937.55 921.772 937.55 911.12H925.55C925.55 923.348 927.958 935.457 932.638 946.754C937.318 958.051 944.177 968.316 952.825 976.962C961.472 985.609 971.737 992.467 983.035 997.146C994.333 1001.82 1006.44 1004.23 1018.67 1004.23V992.23C1008.02 992.231 997.468 990.134 987.627 986.059C977.785 981.983 968.842 976.009 961.309 968.477C953.777 960.945 947.801 952.003 943.725 942.162Z" fill="#3971D3"/>
<mask id="mask0" mask-type="alpha" maskUnits="userSpaceOnUse" x="844" y="817" width="175" height="188">
<path fill-rule="evenodd" clip-rule="evenodd" d="M844.08 829.74C854.734 829.739 865.283 831.836 875.125 835.912C884.967 839.989 893.91 845.964 901.443 853.497C908.976 861.029 914.951 869.972 919.027 879.815C923.104 889.657 925.201 900.206 925.2 910.859L937.2 910.861C937.201 898.632 934.794 886.522 930.114 875.223C925.435 863.925 918.576 853.659 909.929 845.011C901.281 836.364 891.015 829.505 879.717 824.826C868.418 820.146 856.308 817.739 844.079 817.74L844.08 829.74ZM943.725 942.162C939.648 932.32 937.55 921.772 937.55 911.12H925.55C925.55 923.348 927.958 935.457 932.638 946.754C937.318 958.051 944.177 968.316 952.825 976.962C961.472 985.609 971.737 992.467 983.035 997.146C994.333 1001.82 1006.44 1004.23 1018.67 1004.23V992.23C1008.02 992.231 997.468 990.134 987.627 986.059C977.785 981.983 968.842 976.009 961.309 968.477C953.777 960.945 947.801 952.003 943.725 942.162Z" fill="white"/>
</mask>
<g mask="url(#mask0)">
<path d="M987.21 892.43H902.63V938.14H987.21V892.43Z" fill="white"/>
</g>
<path d="M1545.41 173.93H1155.54C1155.54 173.93 1182.15 107.27 1236.79 110.08C1291.43 112.89 1285.08 153.31 1317.08 153.31C1349.08 153.31 1371.81 70.2598 1434.31 70.2598C1517.39 70.2598 1545.41 173.93 1545.41 173.93Z" fill="#F2F6F9"/>
<path d="M865.18 287.64H1282.77C1267.17 254.59 1243.43 225.41 1211.09 224.43C1172.49 223.27 1155.09 269.31 1118.09 269.31C1081.09 269.31 1059.99 156.7 987.57 156.7C914.26 156.7 880.38 230.88 865.18 287.64Z" fill="#F2F6F9"/>
<path d="M130.55 85.1398H526.86C526.86 85.1398 507.76 32.9598 458.86 32.9598C422.22 32.9598 405.74 55.0098 370.56 55.0098C335.38 55.0098 302.42 0.00976562 233.7 0.00976562C164.13 -0.000234378 130.55 85.1398 130.55 85.1398Z" fill="#F2F6F9"/>
<path d="M1395.58 383.46C1395.58 419.41 1330.49 528.17 1330.49 528.17C1330.49 528.17 1265.4 419.41 1265.4 383.46C1265.4 366.197 1272.26 349.641 1284.46 337.434C1296.67 325.228 1313.23 318.37 1330.49 318.37C1347.75 318.37 1364.31 325.228 1376.52 337.434C1388.72 349.641 1395.58 366.197 1395.58 383.46Z" fill="#3361C2"/>
<path d="M1330.49 416.47C1349.49 416.47 1364.89 401.069 1364.89 382.07C1364.89 363.071 1349.49 347.67 1330.49 347.67C1311.49 347.67 1296.09 363.071 1296.09 382.07C1296.09 401.069 1311.49 416.47 1330.49 416.47Z" fill="#FFC774"/>
<path fill-rule="evenodd" clip-rule="evenodd" d="M1333.24 588.39V652.39C1333.24 665.039 1328.22 677.17 1319.27 686.115C1310.33 695.06 1298.2 700.087 1285.55 700.09H1112.63L1112.55 694.09V700.09H1112.63C1097.7 700.278 1083.45 706.339 1072.96 716.961C1062.47 727.582 1056.59 741.908 1056.59 756.835C1056.59 771.762 1062.47 786.088 1072.96 796.709C1083.45 807.331 1097.7 813.392 1112.63 813.58H1112.55V819.58L1112.63 813.58H1531.96H1531.99H1532.02C1557.13 813.846 1581.12 824.006 1598.78 841.854C1616.44 859.702 1626.35 883.797 1626.35 908.905C1626.35 934.013 1616.44 958.108 1598.78 975.956C1581.12 993.804 1557.13 1003.96 1532.02 1004.23H1531.99H1531.96H1016.15V992.23H1531.9L1531.96 998.23V992.23H1531.9C1553.84 991.998 1574.81 983.117 1590.25 967.516C1605.69 951.914 1614.35 930.853 1614.35 908.905C1614.35 886.957 1605.69 865.896 1590.25 850.294C1574.81 834.693 1553.84 825.812 1531.9 825.58H1531.96V819.58L1531.9 825.58H1112.55H1112.51H1112.47C1094.39 825.351 1077.13 818.008 1064.42 805.141C1051.72 792.274 1044.59 774.918 1044.59 756.835C1044.59 738.752 1051.72 721.396 1064.42 708.529C1077.13 695.662 1094.39 688.319 1112.47 688.091L1112.51 688.09H1112.55H1285.55C1295.02 688.088 1304.09 684.325 1310.79 677.631C1317.48 670.936 1321.24 661.857 1321.24 652.39V588.39H1333.24Z" fill="#3971D3"/>
<mask id="mask1" mask-type="alpha" maskUnits="userSpaceOnUse" x="1016" y="588" width="605" height="411">
<path fill-rule="evenodd" clip-rule="evenodd" d="M1016.15 998.23H1531.96C1555.49 997.981 1577.97 988.46 1594.51 971.736C1611.06 955.011 1620.35 932.433 1620.35 908.905C1620.35 885.377 1611.06 862.799 1594.51 846.074C1577.97 829.35 1555.49 819.829 1531.96 819.58H1112.55C1096.05 819.372 1080.29 812.669 1068.69 800.925C1057.1 789.181 1050.59 773.34 1050.59 756.835C1050.59 740.33 1057.1 724.489 1068.69 712.745C1080.29 701.001 1096.05 694.298 1112.55 694.09H1285.55C1296.61 694.087 1307.21 689.693 1315.03 681.873C1322.85 674.053 1327.24 663.448 1327.24 652.39V588.39" fill="white"/>
</mask>
<g mask="url(#mask1)">
<path d="M1423.66 856.9H1511.7V779.7H1423.66V856.9Z" fill="white"/>
<path d="M1295.68 856.9H1368.42V779.7H1295.68V856.9Z" fill="white"/>
<path d="M1202.91 964.72H1150.93V1038.08H1202.91V964.72Z" fill="white"/>
<path d="M1192.93 660.9H1146.85V738.1H1192.93V660.9Z" fill="white"/>
</g>
<path d="M1551.08 1091.43H1324.81C1324.81 1091.43 1336.27 911.36 1425.07 911.36C1513.87 911.36 1551.08 1091.43 1551.08 1091.43Z" fill="url(#paint2_linear)"/>
<path d="M1067.08 913.56H1257.23C1257.23 913.56 1247.61 731.42 1172.99 731.42C1098.37 731.42 1067.08 913.56 1067.08 913.56Z" fill="url(#paint3_linear)"/>
<path d="M432.72 1063.36C640.092 1063.36 808.2 1060.25 808.2 1056.41C808.2 1052.57 640.092 1049.46 432.72 1049.46C225.348 1049.46 57.2402 1052.57 57.2402 1056.41C57.2402 1060.25 225.348 1063.36 432.72 1063.36Z" fill="#E4EFF7"/>
<path d="M626.59 224.46L638.31 250.88L627.51 252.17" fill="#3361C2"/>
<path d="M687.76 236.34L729.37 241.19" stroke="#32373F" stroke-width="36" stroke-linecap="round"/>
<path d="M701.082 238.136C702.255 228.058 698.874 219.385 693.531 218.763C688.188 218.141 682.906 225.806 681.733 235.883C680.559 245.961 683.94 254.634 689.283 255.256C694.626 255.878 699.909 248.213 701.082 238.136Z" fill="#2B292D"/>
<path d="M632.45 229.61L687.6 235.97" stroke="#32373F" stroke-width="23"/>
<path d="M638.19 230.268C638.93 223.916 636.955 218.466 633.778 218.096C630.602 217.726 627.428 222.576 626.688 228.929C625.949 235.282 627.924 240.731 631.1 241.101C634.277 241.471 637.451 236.621 638.19 230.268Z" fill="#2B292D"/>
<path d="M637.41 218.54C637.41 218.54 637.31 216.54 640.69 214.37C654.69 205.54 696.09 199 693.81 235.66C691.6 271.21 658.24 256.97 645.01 248.23C641.22 245.73 642.18 242.32 642.18 242.32C642.18 242.32 662.34 245.27 663 232.52C663.66 219.77 637.41 218.54 637.41 218.54Z" fill="#3361C2"/>
<path d="M438.65 574.88C438.65 574.88 433.19 607.07 440.65 620.42C448.11 633.77 460.22 641.12 472.17 639.59C477.95 638.86 501.04 606.05 501.04 606.05L467.92 570.23L438.65 574.88Z" fill="#3361C2"/>
<path d="M584.43 1056.3H443.94L454.55 1014.21L517.37 1013.52L584.43 1056.3Z" fill="#162C56"/>
<path d="M755.97 752.16L756.85 760.85L832.42 764.43L708.01 829.41L700.28 763.98L755.97 752.16Z" fill="#162C56"/>
<path d="M698.93 370.96L636.31 380.21L649.01 475.21L518.63 478.43L533.63 570.1L425.63 583.99C411.5 478.24 493.08 322.03 493.08 322.03L496.08 340.14C507.37 318.07 518.35 304.48 576.62 306.01C635.33 307.56 652.94 309.48 652.94 309.48L640.69 254.64L697.62 238.42L723.83 332.62C724.991 336.785 725.253 341.149 724.599 345.423C723.944 349.697 722.387 353.783 720.032 357.409C717.677 361.036 714.578 364.119 710.939 366.456C707.301 368.792 703.207 370.327 698.93 370.96Z" fill="#FFC774"/>
<mask id="mask2" mask-type="alpha" maskUnits="userSpaceOnUse" x="423" y="238" width="302" height="346">
<path fill-rule="evenodd" clip-rule="evenodd" d="M698.93 370.96L636.31 380.21L649.01 475.21L518.63 478.43L533.63 570.1L425.63 583.99C411.5 478.24 493.08 322.03 493.08 322.03L496.08 340.14C507.37 318.07 518.35 304.48 576.62 306.01C635.33 307.56 652.94 309.48 652.94 309.48L640.69 254.64L697.62 238.42L723.83 332.62C724.991 336.785 725.253 341.149 724.599 345.423C723.944 349.697 722.387 353.783 720.032 357.409C717.677 361.036 714.578 364.119 710.939 366.456C707.301 368.792 703.207 370.327 698.93 370.96Z" fill="white"/>
</mask>
<g mask="url(#mask2)">
<path d="M442.6 483.22C442.6 493.5 423.99 523.65 423.99 523.65C423.99 523.65 405.37 493.5 405.37 483.22C405.482 478.358 407.493 473.733 410.972 470.333C414.45 466.934 419.121 465.031 423.985 465.031C428.848 465.031 433.519 466.934 436.998 470.333C440.476 473.733 442.487 478.358 442.6 483.22Z" fill="#B49AC9"/>
<path d="M490.91 552.14C490.91 562.42 472.29 592.58 472.29 592.58C472.29 592.58 453.68 562.42 453.68 552.14C453.792 547.278 455.803 542.652 459.282 539.253C462.761 535.854 467.431 533.951 472.295 533.951C477.158 533.951 481.829 535.854 485.308 539.253C488.786 542.652 490.797 547.278 490.91 552.14Z" fill="#B49AC9"/>
<path d="M499.83 420.14C499.83 430.42 481.22 460.58 481.22 460.58C481.22 460.58 462.6 430.41 462.6 420.14C462.712 415.278 464.723 410.652 468.202 407.253C471.68 403.854 476.351 401.951 481.215 401.951C486.078 401.951 490.749 403.854 494.227 407.253C497.706 410.652 499.717 415.278 499.83 420.14Z" fill="#B49AC9"/>
<path d="M552.209 351.21C552.209 361.49 533.589 391.64 533.589 391.64C533.589 391.64 514.979 361.49 514.979 351.21C515.092 346.348 517.103 341.722 520.582 338.323C524.06 334.924 528.731 333.021 533.594 333.021C538.458 333.021 543.129 334.924 546.607 338.323C550.086 341.722 552.097 346.348 552.209 351.21Z" fill="#B49AC9"/>
<path d="M600.51 420.14C600.51 430.42 581.9 460.58 581.9 460.58C581.9 460.58 563.29 430.41 563.29 420.14C563.29 415.204 565.25 410.471 568.74 406.981C572.23 403.491 576.964 401.53 581.9 401.53C586.835 401.53 591.569 403.491 595.059 406.981C598.549 410.471 600.51 415.204 600.51 420.14Z" fill="#B49AC9"/>
<path d="M609.439 288.14C609.439 298.42 590.819 328.58 590.819 328.58C590.819 328.58 572.209 298.4 572.209 288.14C572.322 283.278 574.333 278.653 577.812 275.254C581.29 271.854 585.961 269.952 590.824 269.952C595.688 269.952 600.359 271.854 603.837 275.254C607.316 278.653 609.327 283.278 609.439 288.14Z" fill="#B49AC9"/>
<path d="M665.52 348.29C665.52 358.57 646.91 388.72 646.91 388.72C646.91 388.72 628.3 358.57 628.3 348.29C628.3 343.354 630.26 338.621 633.751 335.131C637.241 331.641 641.974 329.68 646.91 329.68C651.846 329.68 656.579 331.641 660.069 335.131C663.559 338.621 665.52 343.354 665.52 348.29Z" fill="#B49AC9"/>
<path d="M722.75 285.2C722.75 295.48 704.14 325.64 704.14 325.64C704.14 325.64 685.53 295.48 685.53 285.2C685.53 280.264 687.49 275.531 690.981 272.041C694.471 268.551 699.204 266.59 704.14 266.59C709.075 266.59 713.809 268.551 717.299 272.041C720.789 275.531 722.75 280.264 722.75 285.2Z" fill="#B49AC9"/>
</g>
<path d="M790.15 533.75L766.47 756.96L691.21 773.04L691.37 574.27L594.76 592.84L523.68 1014.21L445.92 1015.3L473.08 568.91C474.038 553.389 476.043 537.951 479.08 522.7L487.69 479.14L614.08 475.84L736.08 474.07C743.697 473.967 751.248 475.486 758.233 478.526C765.217 481.566 771.474 486.058 776.588 491.703C781.703 497.348 785.557 504.017 787.896 511.267C790.234 518.516 791.003 526.18 790.15 533.75Z" fill="#EA6F57"/>
<path d="M507.77 354.96L488.69 479.14C488.69 479.14 469.62 535.59 468.76 639.76" stroke="white" stroke-width="3"/>
<path d="M563.29 223.26L565.33 306.04" stroke="#3361C2" stroke-width="40" stroke-linecap="round" stroke-linejoin="round"/>
<path d="M584.16 284.75L588.53 285.37C593.602 286.091 598.771 285.685 603.668 284.181C608.565 282.677 613.07 280.113 616.863 276.67C620.657 273.227 623.645 268.99 625.614 264.261C627.584 259.533 628.488 254.428 628.26 249.31L627.14 223.96C626.771 215.776 623.532 207.984 617.991 201.95C612.451 195.916 604.963 192.025 596.84 190.96C587.679 189.759 578.416 192.245 571.087 197.87C563.757 203.495 558.96 211.8 557.75 220.96L554.51 245.69C553.313 254.793 555.755 264.002 561.306 271.315C566.858 278.628 575.07 283.456 584.16 284.75Z" fill="#3361C2"/>
<path d="M409.92 263.24C412.37 318.6 453.21 314.36 453.21 314.36C453.21 314.36 423.53 378.27 488.81 364.71C554.09 351.15 574 301.8 567.97 275.23C565.56 264.65 568.62 248.03 561.31 240.83C596.72 230.57 596.85 214.68 596.85 214.68C596.85 214.68 644.12 229.89 637.85 185.37C631.58 140.85 584.08 132.47 557.16 136.44C551.485 137.29 545.971 139 540.81 141.51C524.16 149.44 512.02 161.46 489 164.81C425.39 174.08 442.92 213.81 442.92 213.81C442.92 213.81 408.27 225.79 409.92 263.24Z" fill="#2B292D"/>
<path d="M620.88 233.75C623.432 233.75 625.5 232.089 625.5 230.04C625.5 227.991 623.432 226.33 620.88 226.33C618.329 226.33 616.26 227.991 616.26 230.04C616.26 232.089 618.329 233.75 620.88 233.75Z" fill="white"/>
<path d="M618.73 257.38C618.73 257.38 613.63 257.38 613.51 252.17L618.73 257.38Z" fill="#3361C2"/>
<path d="M618.73 257.38C618.73 257.38 613.63 257.38 613.51 252.17" stroke="white" stroke-width="3" stroke-linecap="square"/>
<path d="M584.32 255.38L585.11 254.83C591 250.63 593.01 241.31 589.57 234.11L583.24 220.82C579.8 213.63 572.17 211.17 566.24 215.36L565.46 215.92C559.56 220.12 557.55 229.44 560.99 236.64L567.33 249.92C570.8 257.14 578.43 259.58 584.32 255.38Z" fill="#3361C2"/>
<path d="M567.82 222.17L577.41 242.25" stroke="white" stroke-width="3" stroke-linecap="square"/>
<path d="M595.75 595.14C595.75 595.14 581.27 595.28 567.93 591.04C551.69 585.88 546.47 581.3 546.47 581.3" stroke="white" stroke-width="3"/>
<path d="M653.47 308.02L669.13 309.32" stroke="white" stroke-width="3" stroke-linecap="square"/>
<path d="M256.57 850.25V960.92L296 1032.26C298.952 1032.26 301.876 1032.84 304.604 1033.97C307.332 1035.1 309.811 1036.75 311.899 1038.84C313.986 1040.93 315.642 1043.41 316.771 1046.14C317.901 1048.86 318.481 1051.79 318.48 1054.74V1056.3H264.27L199.67 943.62" fill="#162C56"/>
<path d="M235.9 787.55V740.05C235.899 729.417 240.089 719.212 247.562 711.648C255.035 704.083 265.188 699.769 275.82 699.64L287.36 699.5C292.706 699.436 298.012 700.434 302.969 702.436C307.927 704.438 312.438 707.404 316.242 711.161C320.045 714.919 323.065 719.394 325.126 724.327C327.187 729.26 328.249 734.553 328.25 739.9H377.25C377.25 775.62 374.15 804.57 338.43 804.57L318.36 815.81L321.36 847.39C323.076 865.605 319.824 883.945 311.95 900.46L272.69 982.79C262.198 1004.79 245.688 1023.38 225.072 1036.39C204.456 1049.39 180.577 1056.3 156.2 1056.3H137.28C85.9801 1056.3 58.1701 996.3 91.3401 957.13L235.9 787.55Z" fill="#FFC774"/>
<path d="M315.8 742.88C317.86 742.88 319.53 740.315 319.53 737.15C319.53 733.985 317.86 731.42 315.8 731.42C313.74 731.42 312.07 733.985 312.07 737.15C312.07 740.315 313.74 742.88 315.8 742.88Z" fill="white"/>
<path d="M137.28 1056.31H285.36C285.36 1049.45 282.634 1042.87 277.783 1038.02C272.931 1033.17 266.351 1030.44 259.49 1030.44H178.49" fill="#FFC774"/>
<path d="M312.77 850.25V960.92L352.2 1032.26C355.153 1032.26 358.077 1032.84 360.806 1033.97C363.534 1035.1 366.014 1036.75 368.102 1038.84C370.191 1040.93 371.847 1043.41 372.978 1046.14C374.108 1048.86 374.69 1051.79 374.69 1054.74V1056.3H320.47L255.88 943.62" fill="#FFC774"/>
<path d="M241.08 1028.71H209.75C209.75 1028.71 207.89 934.34 150.21 934.34" stroke="white" stroke-width="3"/>
<path d="M142.01 1055.97H116.4C116.4 1055.97 40.3099 1018.68 60.7199 929.44C81.1299 840.2 76.9899 1037.23 142.01 1055.97Z" fill="#FFC774"/>
<path d="M325.22 822.64L227.48 789.31" stroke="#292C33" stroke-width="18"/>
<path d="M258.58 734.5L250.53 774.5C249.914 777.559 250.194 780.731 251.336 783.635C252.479 786.538 254.435 789.051 256.97 790.87L284.08 810.31C285.422 811.258 286.999 811.82 288.638 811.935C290.277 812.051 291.916 811.715 293.378 810.965C294.841 810.215 296.069 809.079 296.932 807.68C297.794 806.281 298.257 804.673 298.27 803.03V715.35" fill="#FFC774"/>
<path d="M258.58 734.5L250.53 774.5C249.914 777.559 250.194 780.731 251.336 783.635C252.479 786.538 254.435 789.051 256.97 790.87L284.08 810.31C285.422 811.258 286.999 811.82 288.638 811.935C290.277 812.051 291.916 811.715 293.378 810.965C294.841 810.215 296.069 809.079 296.932 807.68C297.794 806.281 298.257 804.673 298.27 803.03V715.35" stroke="white" stroke-width="3"/>
<path d="M377.29 739.9H361.9C361.9 739.9 361.6 754.57 375.85 754.59C376.914 749.768 377.398 744.837 377.29 739.9Z" fill="#292C33"/>
<defs>
<linearGradient id="paint0_linear" x1="960.007" y1="433.52" x2="960.007" y2="593.52" gradientUnits="userSpaceOnUse">
<stop offset="0.01" stop-color="#DFE5EA" stop-opacity="0.6"/>
<stop offset="1" stop-color="white"/>
</linearGradient>
<linearGradient id="paint1_linear" x1="55.1828" y1="384.738" x2="54.9516" y2="624.301" gradientUnits="userSpaceOnUse">
<stop offset="0.01" stop-color="#D3DBE0"/>
<stop offset="1" stop-color="white"/>
</linearGradient>
<linearGradient id="paint2_linear" x1="1310.33" y1="899.402" x2="1310.41" y2="1075.69" gradientUnits="userSpaceOnUse">
<stop offset="0.01" stop-color="#DFE5EA"/>
<stop offset="1" stop-color="white"/>
</linearGradient>
<linearGradient id="paint3_linear" x1="1.96837e+06" y1="155184" x2="1.96832e+06" y2="187675" gradientUnits="userSpaceOnUse">
<stop offset="0.01" stop-color="#DFE5EA"/>
<stop offset="1" stop-color="white"/>
</linearGradient>
</defs>
</svg>
