<svg width="1707" height="1071" viewBox="0 0 1707 1071" fill="none" xmlns="http://www.w3.org/2000/svg">
<path d="M73.1104 72.8799H175.27V156.62H265.12V248.95" stroke="#F2F6F9" stroke-width="33" stroke-linecap="round" stroke-linejoin="round"/>
<path d="M722.02 322.81L628.71 229.51L705.21 153.01L623.14 70.9502" stroke="#F2F6F9" stroke-width="33" stroke-linecap="round" stroke-linejoin="round"/>
<path d="M498.58 261.99L336.52 424.05" stroke="#F2F6F9" stroke-width="33" stroke-linecap="round" stroke-linejoin="round"/>
<path d="M375.12 37.1797L460.56 122.63" stroke="#EDF1F4" stroke-width="33" stroke-linecap="round" stroke-linejoin="round"/>
<path d="M990.54 855.41L1075.99 940.86" stroke="#F2F6F9" stroke-width="33" stroke-linecap="round" stroke-linejoin="round"/>
<path d="M1206.58 16.5L1292.03 101.95" stroke="#EDF1F4" stroke-width="33" stroke-linecap="round" stroke-linejoin="round"/>
<path d="M1539.05 213.16L1663.86 337.97" stroke="#F2F6F9" stroke-width="33" stroke-linecap="round" stroke-linejoin="round"/>
<path d="M16.5 261.99L95.48 340.97" stroke="#F2F6F9" stroke-width="33" stroke-linecap="round" stroke-linejoin="round"/>
<path d="M85.4199 496.42L260.68 671.68" stroke="#EDF1F4" stroke-width="33" stroke-linecap="round" stroke-linejoin="round"/>
<path d="M558.59 446.9C575.208 446.9 588.68 433.428 588.68 416.81C588.68 400.192 575.208 386.72 558.59 386.72C541.972 386.72 528.5 400.192 528.5 416.81C528.5 433.428 541.972 446.9 558.59 446.9Z" fill="#F2F6F9"/>
<path d="M1140.74 801.52V699.37H1224.49V609.52H1316.82" stroke="#F2F6F9" stroke-width="33" stroke-linecap="round" stroke-linejoin="round"/>
<path d="M1395.68 192.62L1302.37 285.93L1225.88 209.43L1143.82 291.5" stroke="#F2F6F9" stroke-width="33" stroke-linecap="round" stroke-linejoin="round"/>
<path d="M400.66 814.27L307.35 907.58L230.86 831.08L148.8 913.15" stroke="#F2F6F9" stroke-width="33" stroke-linecap="round" stroke-linejoin="round"/>
<path d="M1330.86 438.06L1492.92 600.12" stroke="#F2F6F9" stroke-width="33" stroke-linecap="round" stroke-linejoin="round"/>
<path d="M824.39 167.92L986.45 329.98" stroke="#EDF1F4" stroke-width="33" stroke-linecap="round" stroke-linejoin="round"/>
<path d="M1321.86 858.14L1400.84 779.16" stroke="#EDF1F4" stroke-width="33" stroke-linecap="round" stroke-linejoin="round"/>
<path d="M668.94 535.91L747.92 456.93" stroke="#F2F6F9" stroke-width="33" stroke-linecap="round" stroke-linejoin="round"/>
<path d="M1514.51 767.44L1689.77 592.18" stroke="#F2F6F9" stroke-width="33" stroke-linecap="round" stroke-linejoin="round"/>
<path d="M1485.68 393.14C1502.3 393.14 1515.77 379.668 1515.77 363.05C1515.77 346.432 1502.3 332.96 1485.68 332.96C1469.06 332.96 1455.59 346.432 1455.59 363.05C1455.59 379.668 1469.06 393.14 1485.68 393.14Z" fill="#F2F6F9"/>
<path d="M1527.36 89.3099C1543.98 89.3099 1557.45 75.8382 1557.45 59.2199C1557.45 42.6017 1543.98 29.1299 1527.36 29.1299C1510.74 29.1299 1497.27 42.6017 1497.27 59.2199C1497.27 75.8382 1510.74 89.3099 1527.36 89.3099Z" fill="#F2F6F9"/>
<path d="M549.5 943.24C566.118 943.24 579.59 929.768 579.59 913.15C579.59 896.532 566.118 883.06 549.5 883.06C532.882 883.06 519.41 896.532 519.41 913.15C519.41 929.768 532.882 943.24 549.5 943.24Z" fill="#F2F6F9"/>
<path d="M1564.61 928.23C1581.23 928.23 1594.7 914.758 1594.7 898.14C1594.7 881.522 1581.23 868.05 1564.61 868.05C1547.99 868.05 1534.52 881.522 1534.52 898.14C1534.52 914.758 1547.99 928.23 1564.61 928.23Z" fill="#F2F6F9"/>
<path d="M1056.13 167.2C1072.75 167.2 1086.22 153.728 1086.22 137.11C1086.22 120.492 1072.75 107.02 1056.13 107.02C1039.51 107.02 1026.04 120.492 1026.04 137.11C1026.04 153.728 1039.51 167.2 1056.13 167.2Z" fill="#F2F6F9"/>
<path d="M73.1203 755.51C89.7386 755.51 103.21 742.038 103.21 725.42C103.21 708.802 89.7386 695.33 73.1203 695.33C56.5021 695.33 43.0303 708.802 43.0303 725.42C43.0303 742.038 56.5021 755.51 73.1203 755.51Z" fill="#F2F6F9"/>
<path d="M1144.05 513.52L1229.5 428.07" stroke="#F2F6F9" stroke-width="33" stroke-linecap="round" stroke-linejoin="round"/>
<path d="M995.35 142.28L990.21 164.86L989.04 164.44C988.2 164.13 987.39 163.8 986.61 163.44L986 163.17C985.11 162.77 984.27 162.35 983.45 161.92C983.06 161.72 982.68 161.5 982.29 161.29C981.52 160.84 980.77 160.4 980.06 159.93C979.83 159.78 979.59 159.63 979.37 159.47C978.66 159 977.97 158.47 977.3 158.02L976.3 157.26C975.75 156.85 975.22 156.42 974.7 155.99C974.37 155.72 974.04 155.45 973.7 155.18L972.62 154.25L971.62 153.37L970.62 152.49L968.62 150.79C968.2 150.42 967.76 150.04 967.31 149.67L972.45 127.09C978.82 132.41 983.84 138.01 994.1 141.84C994.57 142.01 994.96 142.15 995.35 142.28Z" fill="white"/>
<path d="M946.37 114.54L941.23 137.11C929.23 133.99 915.84 131.67 915.84 131.67L920.98 109.1C920.98 109.1 934.35 111.41 946.37 114.54Z" fill="white"/>
<path d="M990.22 164.87C991.953 165.49 993.646 166.05 995.3 166.55C993.64 166.06 991.94 165.5 990.22 164.87Z" fill="white"/>
<path d="M1014.14 170.6C1013.71 170.6 1013.24 170.49 1012.74 170.42L1014.14 170.6Z" fill="white"/>
<path d="M990.21 164.86L984.53 189.86L983.36 189.44C973.11 185.6 968.08 180.01 961.72 174.68L967.4 149.73C967.85 150.1 968.29 150.48 968.71 150.85L970.71 152.55L971.71 153.43L972.71 154.31L973.79 155.24C974.1 155.51 974.43 155.78 974.79 156.05C975.31 156.48 975.79 156.91 976.39 157.32L977.39 158.08C978.06 158.57 978.75 159.08 979.46 159.53C979.68 159.69 979.92 159.84 980.15 159.99C980.86 160.46 981.61 160.9 982.38 161.35C982.77 161.56 983.15 161.78 983.54 161.98C984.36 162.41 985.2 162.83 986.09 163.23L986.7 163.5C987.48 163.84 988.29 164.17 989.13 164.5L990.21 164.86Z" fill="#24272D"/>
<path d="M941.23 137.11L935.55 162.06C923.55 158.93 910.15 156.62 910.15 156.62L915.84 131.67C915.84 131.67 929.2 133.95 941.23 137.11Z" fill="#24272D"/>
<path d="M995.3 166.55C993.64 166.06 991.94 165.5 990.22 164.87C991.953 165.49 993.646 166.05 995.3 166.55Z" fill="white"/>
<path d="M1014.14 170.6C1013.71 170.6 1013.24 170.49 1012.74 170.42L1014.14 170.6Z" fill="white"/>
<path d="M984.5 189.82L979.71 210.82C968.79 206.82 962.38 202.5 956.26 198.42L961.69 174.61C968.05 179.94 973.08 185.53 983.33 189.37L984.5 189.82Z" fill="white"/>
<path d="M935.55 162.06L930.09 186C915.14 181.58 904.58 181.1 904.58 181.1L910.15 156.62C910.15 156.62 923.5 158.95 935.55 162.06Z" fill="white"/>
<path d="M961.72 174.64L956.29 198.45C950.58 194.66 945.13 191.05 936.52 188.06C934.3 187.29 932.16 186.61 930.09 186L935.55 162.06C937.78 162.65 939.97 163.25 942.03 163.88C949.284 166.025 955.997 169.693 961.72 174.64Z" fill="#24272D"/>
<path d="M967.4 149.69L961.72 174.64C955.997 169.693 949.284 166.025 942.03 163.88C939.97 163.25 937.78 162.65 935.55 162.06L941.23 137.11C942.35 137.4 943.46 137.7 944.54 138C945.62 138.3 946.68 138.61 947.71 138.93C948.29 139.1 948.85 139.29 949.4 139.48C949.95 139.67 950.49 139.85 951.01 140.04C951.53 140.23 952.01 140.43 952.54 140.63L953.28 140.94C953.77 141.14 954.28 141.34 954.71 141.55L955.4 141.87C955.86 142.08 956.31 142.3 956.76 142.53C957.21 142.76 957.56 142.93 957.95 143.15C958.33 143.35 958.69 143.55 959.05 143.77C960.709 144.72 962.311 145.765 963.85 146.9L964.53 147.41C965.543 148.17 966.5 148.93 967.4 149.69Z" fill="white"/>
<path d="M972.5 127.11L967.36 149.69C966.46 148.93 965.52 148.18 964.54 147.44L963.86 146.93C962.321 145.795 960.719 144.75 959.06 143.8C958.7 143.58 958.34 143.38 957.96 143.18C957.57 142.96 957.17 142.76 956.77 142.56C956.37 142.36 955.87 142.11 955.41 141.9L954.72 141.58C954.26 141.37 953.78 141.16 953.29 140.97L952.55 140.66C952.05 140.46 951.55 140.26 951.02 140.07C950.49 139.88 949.96 139.69 949.41 139.51C948.86 139.33 948.3 139.13 947.72 138.96C946.72 138.64 945.62 138.34 944.55 138.03C943.48 137.72 942.36 137.43 941.24 137.14L946.38 114.57C948.62 115.15 950.81 115.75 952.86 116.39C960.098 118.517 966.796 122.173 972.5 127.11Z" fill="#24272D"/>
<path d="M1012.16 195.95L1007.29 217.35C1007.29 217.35 996.88 216.85 981.49 211.47L979.74 210.84L984.53 189.84C993.454 193.004 1002.73 195.056 1012.16 195.95Z" fill="#24272D"/>
<path d="M1017.85 171.01L1012.16 195.95C1002.73 195.046 993.453 192.984 984.53 189.81L990.21 164.81C991.93 165.44 993.63 166 995.29 166.49L996.95 166.98L998.57 167.43C1003.2 168.676 1007.9 169.648 1012.64 170.34H1012.73C1013.23 170.41 1013.73 170.48 1014.13 170.52H1014.22L1015.05 170.62C1016.84 170.95 1017.85 171.01 1017.85 171.01Z" fill="white"/>
<path d="M1022.99 148.42L1017.85 171.01C1017.85 171.01 1016.85 170.94 1015.06 170.72L1014.23 170.62H1014.14L1012.74 170.44H1012.65C1007.91 169.748 1003.21 168.776 998.58 167.53L996.96 167.08L995.3 166.59C993.64 166.09 991.946 165.53 990.22 164.91L995.36 142.33C1004.28 145.491 1013.56 147.537 1022.99 148.42Z" fill="#24272D"/>
<path d="M990.22 164.87C991.953 165.49 993.646 166.05 995.3 166.55C993.64 166.06 991.94 165.5 990.22 164.87Z" fill="white"/>
<path d="M1012.74 170.42L1014.14 170.6C1013.71 170.56 1013.24 170.49 1012.74 170.42Z" fill="white"/>
<path d="M882.67 261.99L917.73 108.08" stroke="#1C2028" stroke-width="7"/>
<path d="M366.44 410.5L330.9 528.21L326.59 543.1L377.68 546.13L389.46 491.59L366.44 410.5Z" fill="#3361C2"/>
<path d="M870 784.25L849.68 806.95C833.192 825.357 810.376 836.879 785.776 839.222C761.175 841.564 736.595 834.555 716.93 819.59L365.36 552.07L418.08 478.31L870 784.25Z" fill="#EA6F57"/>
<path d="M862.73 323.95C862.73 323.95 847.96 233.49 862.73 226.72C877.5 219.95 899.04 234.1 899.04 234.1C899.04 234.1 919.96 240.26 921.19 247.64C922.42 255.02 913.81 290.1 908.89 292.57C903.97 295.04 903.95 314.72 903.95 314.72" fill="#EA6F57"/>
<path d="M799.81 1070.95C1031.71 1070.95 1219.71 1067.84 1219.71 1064C1219.71 1060.16 1031.71 1057.05 799.81 1057.05C567.905 1057.05 379.91 1060.16 379.91 1064C379.91 1067.84 567.905 1070.95 799.81 1070.95Z" fill="#E4EFF7"/>
<path d="M445.66 548.91L500.31 653.63L541.44 621.78L519.64 577.78L445.66 548.91Z" fill="#3361C2"/>
<path d="M889.74 235.33L881.74 272.05C881.74 272.05 901.23 269.39 906.56 252.77" stroke="white" stroke-width="3" stroke-linecap="square"/>
<path d="M866.42 240.26C866.42 240.26 883.19 239.04 887.42 241.42" stroke="white" stroke-width="3" stroke-linecap="square"/>
<path d="M863.65 256.41C863.65 256.41 879.65 253.95 884.17 256.41" stroke="white" stroke-width="3" stroke-linecap="square"/>
<path d="M864.42 279.33C864.42 279.33 896.12 274.41 897.81 285.64" stroke="white" stroke-width="3" stroke-linecap="square"/>
<path d="M526.86 540.5L509.89 543.11L530.81 640.16L651.83 625.1" stroke="white" stroke-width="3" stroke-linecap="square"/>
<path d="M704.76 660.95L713.16 780.48C713.16 780.48 717.67 814.75 738.1 830.16" stroke="white" stroke-width="3" stroke-linecap="square"/>
<path d="M950.73 909.18L946.56 918.6C944.811 922.413 943.441 926.389 942.47 930.47C940.56 938.01 943.41 942.47 938.72 954.36C933.4 967.83 948.52 961.84 952.28 955.93C955.21 951.31 954.04 945.19 958.28 942.33C960.09 944.52 963.97 947.62 968.28 966.78C969.06 970.22 965.12 993.78 980.64 997.05C993.41 997.51 1002.81 976.58 1004.1 969.85C1005.8 961.224 1005.46 952.319 1003.1 943.85C1000.73 934.5 1000.86 931.33 994.85 919.93C991.946 914.726 988.6 909.781 984.85 905.15" fill="#EA6F57"/>
<path d="M811.763 888.216L415.533 589.31C403.166 579.98 385.577 582.443 376.248 594.81L376.241 594.818C366.912 607.185 369.374 624.774 381.742 634.104L777.972 933.01C790.339 942.339 807.928 939.877 817.258 927.51L817.264 927.502C826.593 915.134 824.131 897.546 811.763 888.216Z" fill="#72A065"/>
<path d="M1238.3 357.498L774.081 892.083C763.924 903.78 765.172 921.496 776.869 931.654L776.876 931.66C788.573 941.817 806.29 940.569 816.447 928.872L1280.66 394.287C1290.82 382.59 1289.57 364.874 1277.88 354.717L1277.87 354.71C1266.17 344.553 1248.45 345.801 1238.3 357.498Z" fill="#72A065"/>
<path d="M908.361 296L835.741 312.62C835.741 312.62 841.281 435.62 849.591 461.5C855.228 479.054 880.257 536.516 895.778 571.671C893.658 572.8 891.693 574.041 889.901 575.39C883.182 580.435 878.24 589.295 871.55 601.289C860.06 621.89 843.413 651.738 803.741 687.39C776.141 712.19 842.211 830.77 842.211 830.77L949.371 712.749C950.35 733.65 950.496 755.467 948.471 771.9C943.041 815.97 927.471 910.77 927.471 910.77H1006.17C1006.17 910.77 1025.17 795.93 1027.17 763.22C1029.17 730.51 1019.66 604.31 1019.66 604.31L1010.91 609.002C1009.99 595.718 1005 582.911 991.286 576.172L992.511 575.82L923.591 438.16L908.361 296Z" fill="#3361C2"/>
<mask id="mask0" mask-type="alpha" maskUnits="userSpaceOnUse" x="797" y="296" width="231" height="615">
<path fill-rule="evenodd" clip-rule="evenodd" d="M908.361 296L835.741 312.62C835.741 312.62 841.281 435.62 849.591 461.5C855.228 479.054 880.257 536.516 895.778 571.671C893.658 572.8 891.693 574.041 889.901 575.39C883.182 580.435 878.24 589.295 871.55 601.289C860.06 621.89 843.413 651.738 803.741 687.39C776.141 712.19 842.211 830.77 842.211 830.77L949.371 712.749C950.35 733.65 950.496 755.467 948.471 771.9C943.041 815.97 927.471 910.77 927.471 910.77H1006.17C1006.17 910.77 1025.17 795.93 1027.17 763.22C1029.17 730.51 1019.66 604.31 1019.66 604.31L1010.91 609.002C1009.99 595.718 1005 582.911 991.286 576.172L992.511 575.82L923.591 438.16L908.361 296Z" fill="white"/>
</mask>
<g mask="url(#mask0)">
<path d="M806.12 351.03H856.17V394.72H894.19V438.7" stroke="#FFC774" stroke-width="18" stroke-linecap="round" stroke-linejoin="round"/>
<path d="M888.74 333.18H935.55" stroke="#FFC774" stroke-width="18" stroke-linecap="round" stroke-linejoin="round"/>
<path d="M827.649 463.64L903.949 515.03" stroke="#FFC774" stroke-width="18" stroke-linecap="round" stroke-linejoin="round"/>
<path d="M920.06 481.49L977.07 424.48" stroke="#FFC774" stroke-width="18" stroke-linecap="round" stroke-linejoin="round"/>
<path d="M945.91 540.5L935.55 555.88" stroke="#FFC774" stroke-width="18" stroke-linecap="round" stroke-linejoin="round"/>
<path d="M829.28 726.8L857.08 739.36" stroke="#FFC774" stroke-width="18" stroke-linecap="round" stroke-linejoin="round"/>
<path d="M873.91 571.16L915.84 594.11L900.2 637.18L940.73 650.72" stroke="#FFC774" stroke-width="18" stroke-linecap="round" stroke-linejoin="round"/>
<path d="M873.91 696.26L840.58 614.41" stroke="#FFC774" stroke-width="18" stroke-linecap="round" stroke-linejoin="round"/>
<path d="M910.15 690.11L900.2 778.11" stroke="#FFC774" stroke-width="18" stroke-linecap="round" stroke-linejoin="round"/>
<path d="M972.27 745.54L1052.08 800.26" stroke="#FFC774" stroke-width="18" stroke-linecap="round" stroke-linejoin="round"/>
<path d="M950.78 792L936.5 819.04L971.53 838.81L946.9 870.62L974.06 894.83" stroke="#FFC774" stroke-width="18" stroke-linecap="round" stroke-linejoin="round"/>
<path d="M1006.08 838.41L1033.99 874.11" stroke="#FFC774" stroke-width="18" stroke-linecap="round" stroke-linejoin="round"/>
</g>
<path d="M1074.32 510.445C1099.82 494.765 1110.54 465.868 1098.26 445.902C1085.98 425.936 1055.36 422.462 1029.86 438.143C1004.36 453.823 993.642 482.72 1005.92 502.686C1018.2 522.652 1048.82 526.126 1074.32 510.445Z" fill="#24272D"/>
<path d="M957.71 607.44C954.405 602.062 952.946 595.754 953.552 589.472C954.159 583.189 956.798 577.276 961.07 572.63L1027.94 499.87C1033.16 494.266 1040.38 490.955 1048.04 490.658C1055.69 490.361 1063.15 493.103 1068.79 498.286C1074.42 503.468 1077.78 510.671 1078.13 518.321C1078.48 525.971 1075.78 533.448 1070.64 539.12L1003.77 611.88C1000.74 615.182 996.976 617.735 992.789 619.339C988.601 620.942 984.098 621.553 979.635 621.123C975.171 620.693 970.868 619.233 967.064 616.859C963.259 614.485 960.057 611.261 957.71 607.44Z" fill="#EA6F57"/>
<path d="M979.78 562.75L975.93 559.17C971.456 555.005 967.954 549.905 965.675 544.234C963.395 538.562 962.394 532.458 962.741 526.355C963.089 520.253 964.777 514.301 967.685 508.925C970.594 503.549 974.652 498.88 979.57 495.25L1003.94 477.25C1011.81 471.444 1021.47 468.595 1031.23 469.204C1040.99 469.813 1050.22 473.841 1057.31 480.58C1065.3 488.185 1069.94 498.654 1070.22 509.683C1070.49 520.711 1066.37 531.397 1058.77 539.39L1038.26 560.95C1030.71 568.887 1020.34 573.527 1009.39 573.864C998.442 574.201 987.802 570.207 979.78 562.75Z" fill="#EA6F57"/>
<path d="M1011.64 496.42L985.25 504.24L990.57 513.27" stroke="#25282D" stroke-width="3"/>
<path d="M1013.8 515.03C1016.61 515.03 1018.89 512.751 1018.89 509.94C1018.89 507.129 1016.61 504.85 1013.8 504.85C1010.99 504.85 1008.71 507.129 1008.71 509.94C1008.71 512.751 1010.99 515.03 1013.8 515.03Z" fill="#24272D"/>
<path d="M1000.99 494.19C1003.8 494.19 1006.08 491.911 1006.08 489.1C1006.08 486.289 1003.8 484.01 1000.99 484.01C998.179 484.01 995.9 486.289 995.9 489.1C995.9 491.911 998.179 494.19 1000.99 494.19Z" fill="#24272D"/>
<path d="M987.64 527.73C987.64 527.73 991.21 532.87 997.19 532.22" stroke="#25282D" stroke-width="3"/>
<path d="M1114.58 725.67C1061.41 764.95 1050.5 706.29 1050.5 706.29C1050.5 706.29 1007.56 774.49 970.97 703.47C934.38 632.45 971.19 584.27 1000.38 569.94C1012 564.24 1024.03 564.72 1036.22 566.13C1019.06 525.42 1044.92 510.29 1044.92 510.29C1044.92 510.29 985.08 464.92 1031.07 437.29C1077.06 409.66 1120.63 447.7 1137.24 475.79C1140.72 481.705 1143.28 488.11 1144.85 494.79C1150.03 516.27 1149.07 535.96 1163.3 559.94C1202.61 626.18 1144.53 670.58 1144.53 670.58C1144.53 670.58 1150.57 699.08 1114.58 725.67Z" fill="#24272D"/>
<path d="M1054.44 564.936C1064.67 563.365 1071.69 553.801 1070.12 543.574C1068.55 533.347 1058.99 526.329 1048.76 527.9L1031.92 530.485C1021.69 532.056 1014.67 541.62 1016.24 551.847C1017.81 562.074 1027.38 569.092 1037.61 567.521L1054.44 564.936Z" fill="#EA6F57"/>
<path d="M1057.87 546.12L1033.99 549.77" stroke="#25282D" stroke-width="3"/>
<path d="M509.89 543.11C510.77 550.11 530.81 640.16 530.81 640.16L701.81 618.88L712.7 776.01C713.464 787.032 716.424 797.789 721.406 807.65C726.388 817.512 733.292 826.277 741.71 833.431C750.129 840.586 759.893 845.985 770.429 849.311C780.965 852.637 792.059 853.824 803.06 852.8C810.465 852.107 817.638 849.84 824.096 846.149C830.553 842.458 836.148 837.43 840.504 831.401C844.86 825.371 847.877 818.481 849.352 811.19C850.828 803.9 850.728 796.379 849.06 789.13L795.65 557.13C792.145 541.9 783.008 528.56 770.074 519.788C757.14 511.016 741.366 507.462 725.92 509.84L509.89 543.11Z" fill="#EA6F57"/>
</svg>
