<svg viewBox="0 0 1697 1036" fill="none" xmlns="http://www.w3.org/2000/svg">
<path d="M1613.11 698.82H1500.63V967.84H1613.11V698.82Z" fill="#E9EEF2"/>
<path d="M342.03 347.82C381.632 347.82 419.613 363.552 447.615 391.555C475.618 419.558 491.35 457.538 491.35 497.14C491.35 536.742 475.618 574.722 447.615 602.725C419.613 630.728 381.632 646.46 342.03 646.46" fill="#F2F6F9"/>
<path d="M1265.19 329.71C1265.19 285.35 1282.81 242.807 1314.18 211.439C1345.55 180.072 1388.09 162.45 1432.45 162.45C1476.81 162.45 1519.35 180.072 1550.72 211.439C1582.09 242.807 1599.71 285.35 1599.71 329.71" fill="#E9EEF2"/>
<path d="M722.101 779.25C722.101 734.89 739.723 692.347 771.09 660.979C802.457 629.612 845 611.99 889.361 611.99C933.721 611.99 976.264 629.612 1007.63 660.979C1039 692.347 1056.62 734.89 1056.62 779.25" fill="#F2F6F9"/>
<path d="M909.6 337.69L765.95 122.3L622.3 337.69H909.6Z" fill="#F2F6F9"/>
<path d="M306.28 843.19L191.07 670.45L75.8701 843.19H306.28Z" fill="#F2F6F9"/>
<path d="M1110.16 18.6797L1237.4 209.46L1364.64 18.6797H1110.16Z" fill="#F2F6F9"/>
<path d="M396.55 0H284.07V269.02H396.55V0Z" fill="#E9EEF2"/>
<path d="M191.07 494.29C151.681 493.968 114.014 478.094 86.2753 450.127C58.5363 422.16 42.9717 384.365 42.9717 344.975C42.9717 305.585 58.5363 267.79 86.2753 239.823C114.014 211.856 151.681 195.982 191.07 195.66" fill="#F2F6F9"/>
<path d="M610.601 40.9102L528.141 123.37" stroke="#F2F6F9" stroke-width="14"/>
<path d="M955.53 129.34L1037.99 211.8" stroke="#F2F6F9" stroke-width="14"/>
<path d="M4.9502 606.68L87.4102 689.14" stroke="#F2F6F9" stroke-width="14"/>
<path d="M1580.64 415.49L1663.1 497.95" stroke="#F2F6F9" stroke-width="14"/>
<path d="M756.87 405.89L839.33 488.35" stroke="#F2F6F9" stroke-width="14"/>
<path d="M99.4102 5.29004L181.86 87.75" stroke="#F2F6F9" stroke-width="14"/>
<path d="M725.44 866.39L642.98 948.84" stroke="#F2F6F9" stroke-width="14"/>
<path d="M1576.35 5.29004L1493.89 87.75" stroke="#F2F6F9" stroke-width="14"/>
<path d="M202.72 995.57L382.64 815.75C398.824 799.561 409.445 778.648 412.97 756.03L428.36 657.34L495.69 755.51L390.05 958.03L504.84 992.03L613.41 817.13C623.334 801.137 628.322 782.573 627.749 763.759C627.176 744.946 621.069 726.72 610.19 711.36L519.06 582.84L356.28 483.36L321.21 538.36C307.96 559.149 300.21 582.964 298.69 607.57L291.12 730.03L87.4102 939.67L202.72 995.57Z" fill="#72A065"/>
<path fill-rule="evenodd" clip-rule="evenodd" d="M593.11 365.828C647 392.828 684.96 516.718 684.96 516.718L797.81 568.028L769.63 643.528L619.26 579.618L608.015 560.025L582.12 632.548L468.12 590.018C459.243 586.705 451.439 581.03 445.553 573.605C439.666 566.18 435.921 557.287 434.72 547.888L432.412 529.859L356 483.158C356 483.158 397.2 426.578 412.82 409.288C443.9 374.888 509.31 323.828 593.11 365.828ZM558.616 534.017L602.565 550.529L578.89 509.278L558.616 534.017Z" fill="#FFBA5F"/>
<mask id="mask0" mask-type="alpha" maskUnits="userSpaceOnUse" x="356" y="350" width="442" height="294">
<path fill-rule="evenodd" clip-rule="evenodd" d="M593.11 365.828C647 392.828 684.96 516.718 684.96 516.718L797.81 568.028L769.63 643.528L619.26 579.618L608.015 560.025L582.12 632.548L468.12 590.018C459.243 586.705 451.439 581.03 445.553 573.605C439.666 566.18 435.921 557.287 434.72 547.888L432.412 529.859L356 483.158C356 483.158 397.2 426.578 412.82 409.288C443.9 374.888 509.31 323.828 593.11 365.828ZM558.616 534.017L602.565 550.529L578.89 509.278L558.616 534.017Z" fill="white"/>
</mask>
<g mask="url(#mask0)">
<path d="M439.02 448L409.01 403L379 448H439.02Z" fill="#EA6F57"/>
<path d="M559.38 450.83L529.37 405.83L499.36 450.83H559.38Z" fill="#EA6F57"/>
<path d="M676.5 450.83L646.49 405.83L616.48 450.83H676.5Z" fill="#EA6F57"/>
<path d="M559.38 612.06L529.37 567.06L499.36 612.06H559.38Z" fill="#EA6F57"/>
<path d="M792.8 612.06L762.79 567.06L732.78 612.06H792.8Z" fill="#EA6F57"/>
<path d="M559.38 491.6L589.39 536.6L619.4 491.6H559.38Z" fill="#EA6F57"/>
<path d="M442.67 491.6L472.68 536.6L502.69 491.6H442.67Z" fill="#EA6F57"/>
<path d="M442.67 346L472.68 391L502.69 346H442.67Z" fill="#EA6F57"/>
</g>
<path d="M421 517L363.5 484" stroke="white" stroke-width="14" stroke-linecap="square"/>
<path d="M853.97 1035.01C1300.84 1035.01 1663.1 1031.5 1663.1 1027.18C1663.1 1022.86 1300.84 1019.35 853.97 1019.35C407.1 1019.35 44.8398 1022.86 44.8398 1027.18C44.8398 1031.5 407.1 1035.01 853.97 1035.01Z" fill="#E4EFF7"/>
<path d="M1696.78 686.57L1333 1026.18H1193.56L1557.35 686.57H1696.78Z" fill="#E09B8C"/>
<path d="M1559.31 682.07L1178.48 274.14H1305.61L1686.42 682.07H1559.31Z" fill="white"/>
<path fill-rule="evenodd" clip-rule="evenodd" d="M1168.12 269.64H1307.56L1696.78 686.57H1557.35L1168.12 269.64ZM1676.06 677.57L1303.65 278.64H1188.84L1561.26 677.57H1676.06Z" fill="#F9D0B5"/>
<path d="M789.54 579.39C789.54 579.39 820.33 592.3 833.84 607.53C847.35 622.76 855.84 655.53 855.84 655.53C855.84 655.53 773.84 665.88 765.95 591.53" fill="#3361C2"/>
<path d="M114.969 943.93L62.6895 997.06L111.279 1026.18H261.069L181.319 983.74L114.969 943.93Z" fill="#162C56"/>
<path d="M409.76 959.49L376.31 1026.18H567.77L488.02 983.74L409.76 959.49Z" fill="#162C56"/>
<path d="M668.08 311.83L587.12 379.57" stroke="#3361C2" stroke-width="65" stroke-linecap="round" stroke-linejoin="round"/>
<path d="M613.19 395.42L618.08 398.18C623.77 401.386 630.096 403.298 636.608 403.782C643.121 404.265 649.66 403.307 655.761 400.977C661.861 398.646 667.374 395 671.905 390.298C676.437 385.596 679.877 379.953 681.98 373.77L692.39 343.15C695.755 333.259 695.528 322.498 691.747 312.758C687.967 303.018 680.876 294.922 671.72 289.89C661.389 284.217 649.228 282.878 637.911 286.169C626.594 289.461 617.047 297.112 611.37 307.44L596.06 335.31C590.426 345.567 589.065 357.631 592.272 368.885C595.479 380.139 602.996 389.674 613.19 395.42Z" fill="#3361C2"/>
<path d="M602.002 353.934L603.525 353.703C612.027 352.414 617.874 344.477 616.585 335.975L614.965 325.288C613.676 316.786 605.739 310.938 597.237 312.227L595.715 312.458C587.213 313.747 581.365 321.684 582.654 330.186L584.274 340.874C585.563 349.376 593.5 355.223 602.002 353.934Z" fill="#3361C2"/>
<path d="M593.21 324.75L599.87 342.61" stroke="white" stroke-width="3" stroke-linecap="square"/>
<path d="M668.69 345.93L661.5 370.85L652.62 368.34" stroke="white" stroke-width="3" stroke-linecap="square"/>
<path d="M610.23 345.03L639.99 306.81L647.05 297.73C648.453 301.557 650.48 305.126 653.05 308.29C662.32 319.85 699.62 332.63 715.4 309.37C728.27 290.37 701.24 292.98 690.53 286.91C673.71 277.37 665.83 261.75 636.08 264.57C600.43 267.9 597.84 312.14 597.84 312.14C597.84 312.14 612.71 312.61 610.23 345.03Z" fill="#24272D"/>
<path d="M616.63 397.41L605.28 385.12L605.77 406.33L616.63 397.41Z" fill="#24272D"/>
<path d="M654.549 348.51C657.073 348.51 659.12 346.464 659.12 343.94C659.12 341.416 657.073 339.37 654.549 339.37C652.026 339.37 649.979 341.416 649.979 343.94C649.979 346.464 652.026 348.51 654.549 348.51Z" fill="white"/>
<path d="M679.64 359.58C682.164 359.58 684.21 357.534 684.21 355.01C684.21 352.486 682.164 350.44 679.64 350.44C677.116 350.44 675.07 352.486 675.07 355.01C675.07 357.534 677.116 359.58 679.64 359.58Z" fill="white"/>
<path d="M1557.35 686.57L1193.56 1026.18L804.34 609.26L1168.12 269.64L1557.35 686.57Z" fill="#F9D0B5"/>
<path d="M653.44 555.27L637.88 577.41" stroke="#1F2128" stroke-width="8" stroke-linecap="round"/>
<path d="M685.98 447.12L698.09 492.52L738.31 497.14L722.78 530.5L687.77 559.41L652.54 556.55L642.32 527.87L647.99 492.39L685.98 447.12Z" fill="#FFBA5F"/>
<mask id="mask1" mask-type="alpha" maskUnits="userSpaceOnUse" x="642" y="447" width="97" height="113">
<path fill-rule="evenodd" clip-rule="evenodd" d="M685.98 447.12L698.09 492.52L738.31 497.14L722.78 530.5L687.77 559.41L652.54 556.55L642.32 527.87L647.99 492.39L685.98 447.12Z" fill="white"/>
</mask>
<g mask="url(#mask1)">
<path d="M626.74 474.97L678.95 553.25L731.15 474.97H626.74Z" fill="#EA6F57"/>
</g>
<path fill-rule="evenodd" clip-rule="evenodd" d="M728.105 520.276C749.205 487.809 750.907 451.48 731.907 439.131C712.907 426.783 680.399 443.092 659.299 475.559C638.199 508.025 636.496 544.355 655.497 556.703C674.497 569.051 707.004 552.742 728.105 520.276Z" stroke="#1F2128" stroke-width="8"/>
<path d="M770.43 1026.18L735.33 973.54L700.22 1026.18H770.43Z" fill="#EA6F57"/>
<path d="M1174.34 671.16L1187.89 614.88L1130.73 624L1174.34 671.16Z" fill="#2B292D"/>
<path d="M1088.84 1026.18L996.76 888.11L904.67 1026.18H1088.84Z" fill="#3361C2"/>
<path d="M912.07 846.42H836.91V1026.18H912.07V846.42Z" fill="#FFBA5F"/>
<path d="M1227.66 657.848L1192.3 690.545L1270.5 775.111L1305.86 742.414L1227.66 657.848Z" fill="#2B292D"/>
<path d="M815.2 1026.18C815.2 998.831 826.065 972.602 845.403 953.263C864.742 933.924 890.971 923.06 918.32 923.06C945.669 923.06 971.898 933.924 991.237 953.263C1010.58 972.602 1021.44 998.831 1021.44 1026.18" fill="#72A065"/>
<path d="M1112.38 604.16C1117.02 599.867 1120.77 594.702 1123.42 588.959C1126.07 583.216 1127.56 577.008 1127.81 570.689C1128.05 564.371 1127.05 558.065 1124.86 552.133C1122.67 546.201 1119.34 540.758 1115.04 536.115C1110.75 531.472 1105.59 527.72 1099.84 525.074C1094.1 522.427 1087.89 520.937 1081.57 520.69C1075.26 520.442 1068.95 521.442 1063.02 523.631C1057.09 525.821 1051.64 529.157 1047 533.45L1112.38 604.16Z" fill="#2B292D"/>
<path d="M634.53 365.53C634.53 365.53 632.18 374.76 641.84 379.31L634.53 365.53Z" fill="white"/>
<path d="M559.21 532.68L521.67 518.02L520.64 435.76" stroke="white" stroke-width="3" stroke-linecap="square"/>
<path d="M429.91 516.69L426.09 459.05" stroke="white" stroke-width="3" stroke-linecap="square"/>
<path d="M296.279 752.34L287.609 728.95L308.919 725.64" stroke="white" stroke-width="3" stroke-linecap="square"/>
<path d="M511.21 772.5L491.34 754.7L518.87 740.93" stroke="white" stroke-width="3" stroke-linecap="square"/>
<path d="M431.38 628.73L425 698.44" stroke="white" stroke-width="3" stroke-linecap="square"/>
<path d="M604.74 571.44C604.74 571.44 617.24 564.91 636.56 566.44L657.32 574.25C657.32 574.25 675.75 589.03 650.48 615.17C625.21 641.31 583.5 625.5 583.5 625.5" fill="#3361C2"/>
</svg>
