<svg width="1673" height="1016" viewBox="0 0 1673 1016" fill="none" xmlns="http://www.w3.org/2000/svg">
<path d="M976.34 214.51H1365.76C1365.76 214.51 1347 158.1 1298.92 158.1C1262.92 158.1 1246.71 181.93 1212.15 181.93C1177.59 181.93 1145.15 122.51 1077.66 122.51C1009.34 122.51 976.34 214.51 976.34 214.51Z" fill="#F2F6F9"/>
<path d="M1600.86 101.87H1217.76C1217.76 101.87 1243.91 36.37 1297.6 39.13C1351.29 41.89 1345.07 81.61 1376.51 81.61C1407.95 81.61 1430.29 0 1491.7 0C1573.32 0 1600.86 101.87 1600.86 101.87Z" fill="#F2F6F9"/>
<path d="M15.6699 144.19H426.02C410.68 111.71 387.36 83.04 355.58 82.08C317.65 80.94 300.58 126.18 264.15 126.18C227.72 126.18 207.06 15.52 135.89 15.52C63.9099 15.52 30.6199 88.41 15.6699 144.19Z" fill="#F2F6F9"/>
<path d="M227.706 350.124L188.781 348.717L186.839 402.442L225.764 403.849L227.706 350.124Z" fill="#F9D0B5"/>
<path d="M807.87 1015.31C1254.04 1015.31 1615.74 1012.25 1615.74 1008.48C1615.74 1004.71 1254.04 1001.65 807.87 1001.65C361.696 1001.65 0 1004.71 0 1008.48C0 1012.25 361.696 1015.31 807.87 1015.31Z" fill="#E4EFF7"/>
<path d="M143.13 1006.6H51.4399L13.3799 969.93L38.2299 930.18L80.1599 968.39L143.13 1006.6Z" fill="#162C56"/>
<path d="M90.2604 976.06L189.22 801.56L179.15 972.75H268.96L277.87 757.55L255.56 521.79L104.51 520.59L112.32 746.67L20.6504 923.15L90.2604 976.06Z" fill="#274992"/>
<path d="M168.28 840.58L188.28 800.58C196.706 783.788 201.62 765.455 202.72 746.7L206.84 675.99" stroke="white" stroke-width="3" stroke-linecap="square"/>
<path d="M182.76 971.66L169.16 1006.6H322.87L257.2 971.66H182.76Z" fill="#162C56"/>
<path d="M217.85 361.19L222.33 361.29C227.537 361.402 232.705 360.364 237.465 358.251C242.225 356.137 246.461 353.001 249.871 349.064C253.281 345.127 255.78 340.487 257.192 335.474C258.604 330.461 258.894 325.198 258.04 320.06L253.82 294.61C252.459 286.39 248.244 278.912 241.916 273.491C235.588 268.07 227.552 265.053 219.22 264.97C214.566 264.922 209.948 265.792 205.63 267.529C201.312 269.267 197.379 271.838 194.054 275.095C190.73 278.353 188.08 282.233 186.255 286.515C184.43 290.797 183.467 295.396 183.42 300.05L183.16 325.4C183.063 334.732 186.652 343.725 193.148 350.426C199.643 357.128 208.52 360.996 217.85 361.19Z" fill="#F9D0B5"/>
<path d="M194.828 335.857L194.836 335.851C200.597 331.539 201.77 323.372 197.458 317.612L193.023 311.688C188.71 305.927 180.544 304.753 174.783 309.066L174.775 309.072C169.014 313.385 167.84 321.551 172.153 327.312L176.588 333.236C180.901 338.996 189.067 340.17 194.828 335.857Z" fill="#3361C2"/>
<path d="M177.18 319.05L186.14 328.43" stroke="white" stroke-width="3" stroke-linecap="square"/>
<path d="M240.63 306.38L243.24 326.91L235.94 327.87" stroke="#24252D" stroke-width="3" stroke-linecap="square"/>
<path d="M216.58 335.86C216.077 337.035 215.811 338.297 215.796 339.575C215.78 340.852 216.017 342.121 216.492 343.307C216.967 344.493 217.671 345.574 218.564 346.488C219.457 347.403 220.521 348.132 221.695 348.635C222.87 349.138 224.132 349.405 225.41 349.42C226.688 349.435 227.956 349.198 229.142 348.723C230.328 348.248 231.41 347.544 232.324 346.652C233.238 345.759 233.967 344.695 234.47 343.52C236.59 338.58 231.47 336.88 226.47 334.77C221.47 332.66 218.7 330.92 216.58 335.86Z" fill="#24272D"/>
<path d="M197.06 338.77L203.56 300.69L205.11 291.69C207.532 293.854 210.296 295.601 213.29 296.86C224.15 301.49 254.63 299.6 256.96 277.31C257.18 275.17 245.26 276.56 244.96 275.19C242.85 264.88 240.21 267.91 231.55 267.71C216.13 267.34 204.71 259.33 184.86 272.53C161.1 288.33 175.96 320.39 175.96 320.39C175.96 320.39 186.6 315.08 197.06 338.77Z" fill="#24272D"/>
<path d="M227.16 360.93H213.81L226.98 371.62L227.16 360.93Z" fill="#24272D"/>
<path d="M224.68 314.8C226.696 314.8 228.33 313.166 228.33 311.15C228.33 309.134 226.696 307.5 224.68 307.5C222.664 307.5 221.03 309.134 221.03 311.15C221.03 313.166 222.664 314.8 224.68 314.8Z" fill="#24272D"/>
<path d="M251.14 314.8C253.156 314.8 254.79 313.166 254.79 311.15C254.79 309.134 253.156 307.5 251.14 307.5C249.124 307.5 247.49 309.134 247.49 311.15C247.49 313.166 249.124 314.8 251.14 314.8Z" fill="#24272D"/>
<path d="M168.65 303.7C164.974 292.053 166.075 279.423 171.712 268.588C177.348 257.753 187.058 249.601 198.705 245.925C210.352 242.249 222.982 243.35 233.817 248.987C244.652 254.623 252.804 264.333 256.48 275.98" fill="#274992"/>
<path d="M168.65 303.64L285.8 266.68" stroke="#274992" stroke-width="5"/>
<path d="M406 751.43L396.96 764.46L406.9 775.11" stroke="white" stroke-width="3" stroke-linecap="square"/>
<path d="M246.08 665.41H153.03L158.67 482.95H260.77L246 665.15L246.08 665.41Z" fill="#EA6F57"/>
<path d="M161.78 381.88H121.56L103.97 284.72H150L161.78 381.88Z" fill="#EA6F57"/>
<path d="M208.35 381.88H147.13L135.35 284.72H197.37L208.35 381.88Z" fill="#FFBA5F"/>
<path d="M232.96 381.88L223.52 482.95H155.09L153.83 381.88H232.96Z" fill="#EA6F57"/>
<path d="M187.11 381.88L202.15 482.95H301.51L294.81 381.88H187.11Z" fill="#FFBA5F"/>
<path d="M148.09 300.81H178.59" stroke="white" stroke-width="4" stroke-linecap="square"/>
<path d="M148.96 311.63H179.46" stroke="white" stroke-width="4" stroke-linecap="square"/>
<path d="M151.83 322.44H182.33" stroke="white" stroke-width="4" stroke-linecap="square"/>
<path d="M199.97 392.37H241.38" stroke="white" stroke-width="4" stroke-linecap="square"/>
<path d="M203.86 403.18H245.28" stroke="white" stroke-width="4" stroke-linecap="square"/>
<path d="M314.27 665.41H206.85L220.13 483.22L220.06 482.95H336.92L314.27 665.41Z" fill="#FFBA5F"/>
<path d="M215.43 547.66L212.35 589.93H164.54V547.66H215.43Z" fill="#ED9A98"/>
<path d="M328.89 547.66L323.64 589.93H212.35L215.43 547.66H328.89Z" fill="#FFD39F"/>
<path opacity="0.33" d="M330.3 547.66V589.93H323.64L328.89 547.66H330.3Z" fill="white"/>
<path d="M249 665.15C248.71 674.15 226.24 685.94 205.44 684.33C184.64 682.72 172.44 661.79 172.44 661.79L202.53 641.92C202.53 641.92 207.94 641.57 215.05 645.61C221.9 649.5 242.93 648.61 242.93 648.61C242.93 648.61 242.99 653.39 234.59 655.91C228.74 657.67 217.59 659.18 217.85 661.79C218.41 666.92 249 665.15 249 665.15Z" fill="#F9D0B5"/>
<path d="M206.14 642.32C210.844 643.32 215.387 644.966 219.64 647.21C226.14 650.78 242.92 648.62 242.92 648.62C242.92 648.62 246.77 656.01 218.48 660.62C214.91 661.21 218.94 667.95 249 665.12" stroke="white" stroke-width="3" stroke-linecap="square"/>
<path fill-rule="evenodd" clip-rule="evenodd" d="M244.31 517.84C250.368 517.84 255.28 512.929 255.28 506.87C255.28 500.811 250.368 495.9 244.31 495.9C238.251 495.9 233.34 500.811 233.34 506.87C233.34 512.929 238.251 517.84 244.31 517.84Z" stroke="white" stroke-width="4" stroke-linecap="square"/>
<path d="M154.09 403.18C154.09 403.18 28.5594 485.26 159.32 675.98L218.48 634.1C218.48 634.1 153.63 538.19 161.08 467.61" fill="#274992"/>
<path d="M352.9 1006.6H239.87L265.49 824.15H367.59L352.82 1006.34L352.9 1006.6Z" fill="#EA6F57"/>
<path d="M403.96 1006.6H298.44L327.9 824.41L327.84 824.15H444.69L403.96 1006.6Z" fill="#FFBA5F"/>
<path d="M270.37 500.6H311.79" stroke="white" stroke-width="4" stroke-linecap="square"/>
<path d="M266.57 512.02H307.98" stroke="white" stroke-width="4" stroke-linecap="square"/>
<path d="M192.76 481.71H301.46" stroke="#EF6E45" stroke-width="3"/>
<path d="M173.57 665.89L159.32 675.98C159.32 675.98 124.22 634.48 103.53 565.1" stroke="white" stroke-width="3" stroke-linecap="square"/>
<path fill-rule="evenodd" clip-rule="evenodd" d="M357.39 865.13C363.448 865.13 368.36 860.218 368.36 854.16C368.36 848.101 363.448 843.19 357.39 843.19C351.331 843.19 346.42 848.101 346.42 854.16C346.42 860.218 351.331 865.13 357.39 865.13Z" stroke="white" stroke-width="4" stroke-linecap="square"/>
<path d="M358.54 835.44H336.92V856.14H358.54V835.44Z" fill="white"/>
<path d="M385.51 840.31H425.84" stroke="white" stroke-width="4" stroke-linecap="square"/>
<path d="M382.17 851.86H422.5" stroke="white" stroke-width="4" stroke-linecap="square"/>
<path d="M378.27 863.41H402.37" stroke="white" stroke-width="4" stroke-linecap="square"/>
<path d="M275.44 665.41C275.44 665.41 304.83 683.81 311.8 665.41H275.44Z" fill="#F9D0B5"/>
<path d="M315.24 657.63L326.5 658.26L322.77 596.94L315.24 657.63Z" fill="#274992"/>
<path d="M910.12 1006.61C942.595 1006.61 968.92 980.284 968.92 947.81C968.92 915.336 942.595 889.01 910.12 889.01C877.646 889.01 851.32 915.336 851.32 947.81C851.32 980.284 877.646 1006.61 910.12 1006.61Z" fill="#274992"/>
<path d="M1477.59 1006.61C1510.06 1006.61 1536.39 980.284 1536.39 947.81C1536.39 915.336 1510.06 889.01 1477.59 889.01C1445.12 889.01 1418.79 915.336 1418.79 947.81C1418.79 980.284 1445.12 1006.61 1477.59 1006.61Z" fill="#274992"/>
<path d="M1560.66 942.44H573.72L564.66 880.94L541.8 725.65L463.94 196.99H1291.21L1546.23 902.52L1560.66 942.44Z" fill="#EA6F57"/>
<path d="M996.08 717.08H651.55L605.9 407.13H950.43L996.08 717.08Z" fill="#274992"/>
<path d="M1560.66 942.44H1408.97L1139.51 196.99H1291.21L1560.66 942.44Z" fill="#FFC774"/>
<path d="M1497.33 778.27H1381.55L1217.23 323.69H1333.01L1497.33 778.27Z" fill="white"/>
<path d="M1288.6 778.27H1175.85L1108.9 323.69H1124.28L1288.6 778.27Z" fill="white"/>
<path d="M1493.72 819.43H1285.83V942.44H1493.72V819.43Z" fill="#EA6F57"/>
<path d="M1672.59 942.44H1453.03L1434.92 819.43H1654.47L1672.59 942.44Z" fill="#FFC774"/>
<path d="M611.07 943.7C611.07 904.59 644.32 872.89 685.34 872.89C726.36 872.89 759.61 904.59 759.61 943.7" fill="white"/>
<path d="M1178.54 943.7C1178.54 904.59 1211.79 872.89 1252.81 872.89C1293.83 872.89 1327.08 904.59 1327.08 943.7" fill="white"/>
<path d="M1252.81 1006.61C1285.29 1006.61 1311.61 980.284 1311.61 947.81C1311.61 915.336 1285.29 889.01 1252.81 889.01C1220.34 889.01 1194.01 915.336 1194.01 947.81C1194.01 980.284 1220.34 1006.61 1252.81 1006.61Z" fill="#274992"/>
<path d="M1142.64 894.48C1148.28 872.32 1161.14 852.671 1179.19 838.636C1197.24 824.601 1219.45 816.981 1242.32 816.98" stroke="white" stroke-width="3"/>
<path d="M1622.89 904.95C1634.29 904.95 1643.54 893.6 1643.54 879.6C1643.54 865.6 1634.29 854.25 1622.89 854.25C1611.49 854.25 1602.24 865.6 1602.24 879.6C1602.24 893.6 1611.49 904.95 1622.89 904.95Z" fill="white"/>
<path d="M1492.42 904.95C1503.83 904.95 1513.07 893.6 1513.07 879.6C1513.07 865.6 1503.83 854.25 1492.42 854.25C1481.02 854.25 1471.77 865.6 1471.77 879.6C1471.77 893.6 1481.02 904.95 1492.42 904.95Z" fill="white"/>
<path d="M599.56 880.94H569.65L546.79 725.65H576.7L599.56 880.94Z" fill="white"/>
<path d="M578.33 819.43H1059.21" stroke="white" stroke-width="3"/>
<path d="M511.561 289.24H1324.55" stroke="white" stroke-width="3"/>
<path d="M1142.65 894.48L1053.73 290.65" stroke="white" stroke-width="3"/>
<path d="M1211.5 553.69H1243.3V670H1211.5C1207.23 670 1203.14 668.304 1200.12 665.284C1197.1 662.265 1195.4 658.17 1195.4 653.9V569.79C1195.4 565.52 1197.1 561.425 1200.12 558.406C1203.14 555.386 1207.23 553.69 1211.5 553.69Z" fill="#274992"/>
<path d="M1263.36 620.01H1243.3V669.96H1263.36V620.01Z" fill="#274992"/>
<path d="M1376.37 693.05L1444.9 780.27" stroke="#3361C2" stroke-width="3"/>
<path d="M1417.28 693.05L1485.81 780.27" stroke="#3361C2" stroke-width="3"/>
<path d="M605.9 407.13L797.58 580.71L950.43 407.13" stroke="white" stroke-width="3"/>
<path d="M755 578.25L670.66 686.34" stroke="white" stroke-width="3"/>
<path d="M840.091 573.13L959.231 683.27" stroke="white" stroke-width="3"/>
<path d="M685.34 1006.61C717.814 1006.61 744.14 980.284 744.14 947.81C744.14 915.336 717.814 889.01 685.34 889.01C652.866 889.01 626.54 915.336 626.54 947.81C626.54 980.284 652.866 1006.61 685.34 1006.61Z" fill="#274992"/>
<path d="M1216.13 669.97V553.69" stroke="white" stroke-width="3"/>
<path d="M1582.16 868.65H1539.17V890.55H1582.16V868.65Z" fill="#EA6F57"/>
</svg>
