<svg width="1770" height="1082" viewBox="0 0 1770 1082" fill="none" xmlns="http://www.w3.org/2000/svg">
<path d="M1056.05 511.15C1079.03 511.15 1097.65 492.525 1097.65 469.55C1097.65 446.575 1079.03 427.95 1056.05 427.95C1033.08 427.95 1014.45 446.575 1014.45 469.55C1014.45 492.525 1033.08 511.15 1056.05 511.15Z" fill="#F2F6F9"/>
<path d="M1084.93 168.59H1027.18V397.62H1084.93V168.59Z" fill="#F2F6F9"/>
<path d="M1358.64 941.96C1381.62 941.96 1400.24 923.335 1400.24 900.36C1400.24 877.385 1381.62 858.76 1358.64 858.76C1335.67 858.76 1317.04 877.385 1317.04 900.36C1317.04 923.335 1335.67 941.96 1358.64 941.96Z" fill="#F2F6F9"/>
<path d="M1387.52 599.4H1329.77V828.43H1387.52V599.4Z" fill="#F2F6F9"/>
<path d="M218.17 853.34C241.145 853.34 259.77 834.715 259.77 811.74C259.77 788.765 241.145 770.14 218.17 770.14C195.195 770.14 176.57 788.765 176.57 811.74C176.57 834.715 195.195 853.34 218.17 853.34Z" fill="#F2F6F9"/>
<path d="M247.041 510.77H189.291V739.8H247.041V510.77Z" fill="#F2F6F9"/>
<path d="M700.121 320.3H318.951L509.541 0L700.121 320.3Z" fill="#F2F6F9"/>
<path d="M509.541 279.77C521.741 279.77 531.631 269.88 531.631 257.68C531.631 245.48 521.741 235.59 509.541 235.59C497.341 235.59 487.451 245.48 487.451 257.68C487.451 269.88 497.341 279.77 509.541 279.77Z" fill="white"/>
<path d="M524.871 97.86H494.201V219.48H524.871V97.86Z" fill="white"/>
<path d="M987.82 940.9H606.65L797.23 620.6L987.82 940.9Z" fill="#F2F6F9"/>
<path d="M797.231 900.37C809.431 900.37 819.321 890.48 819.321 878.28C819.321 866.08 809.431 856.19 797.231 856.19C785.031 856.19 775.141 866.08 775.141 878.28C775.141 890.48 785.031 900.37 797.231 900.37Z" fill="white"/>
<path d="M812.57 718.46H781.9V840.08H812.57V718.46Z" fill="white"/>
<path d="M1769.03 409.65H1387.86L1578.45 89.35L1769.03 409.65Z" fill="#F2F6F9"/>
<path d="M1578.45 369.12C1590.65 369.12 1600.54 359.23 1600.54 347.03C1600.54 334.83 1590.65 324.94 1578.45 324.94C1566.25 324.94 1556.36 334.83 1556.36 347.03C1556.36 359.23 1566.25 369.12 1578.45 369.12Z" fill="white"/>
<path d="M1593.79 187.21H1563.12V308.83H1593.79V187.21Z" fill="white"/>
<path d="M913.489 1081.98C1351.11 1081.98 1705.87 1079.19 1705.87 1075.75C1705.87 1072.31 1351.11 1069.52 913.489 1069.52C475.87 1069.52 121.109 1072.31 121.109 1075.75C121.109 1079.19 475.87 1081.98 913.489 1081.98Z" fill="#E4EFF7"/>
<path d="M1287.79 222.7L1346.7 281.67L1420.42 208.03L1361.51 149.05L1356.39 182.44L1325.62 184.91L1322.45 216.34L1287.79 222.7Z" fill="#EF6E45"/>
<path d="M1403.15 205.74L1324.85 192.56" stroke="white" stroke-width="6"/>
<path d="M1341.85 209.58L1345.04 260.76" stroke="white" stroke-width="6"/>
<path d="M1665.66 1023.02L1685.59 1075.75H1519.37L1594.02 1033.02L1665.66 1023.02Z" fill="#72A065"/>
<path d="M1249.59 368.75L1222.96 360.34L1313.93 72.52L1354.1 38.08L1249.59 368.75Z" fill="#3361C2"/>
<path d="M1249.59 368.75L1276.22 377.17L1367.18 89.35L1354.1 38.08L1249.59 368.75Z" fill="#274992"/>
<path d="M1256.78 380.794L1236.79 374.475L1214.18 445.988L1234.18 452.307L1256.78 380.794Z" fill="#3361C2"/>
<path d="M1203.3 348.01L1196.98 368.005L1293.08 398.381L1299.4 378.385L1203.3 348.01Z" fill="#3361C2"/>
<path d="M1220.95 478.34C1231.43 478.34 1239.92 469.847 1239.92 459.37C1239.92 448.893 1231.43 440.4 1220.95 440.4C1210.47 440.4 1201.98 448.893 1201.98 459.37C1201.98 469.847 1210.47 478.34 1220.95 478.34Z" fill="#3361C2"/>
<path d="M1291.69 446.63C1291.69 446.63 1290.96 433.84 1293.15 426.51C1295.52 418.56 1299.82 405.32 1284.48 399.24C1269.14 393.16 1229.99 378.62 1219.26 384.02C1208.53 389.42 1194.97 424.68 1207.14 433.38C1219.31 442.08 1260.71 452.98 1260.71 452.98" fill="#3361C2"/>
<path d="M1250.12 395.21C1249.63 396.797 1248.79 398.253 1247.65 399.466C1246.52 400.678 1245.12 401.617 1243.57 402.21C1243.57 402.21 1251.74 404.44 1250.36 410.32C1248.82 416.83 1243.36 416.4 1243.36 416.4C1243.36 416.4 1251.06 418.69 1249.6 425.97C1248.01 433.97 1239.25 431.19 1239.25 431.19C1239.25 431.19 1246.13 434.43 1243.82 440.37C1241.51 446.31 1233.98 444.93 1233.98 444.93" stroke="white" stroke-width="3" stroke-linecap="square"/>
<path d="M1244.12 402.39L1219.93 396.62" stroke="white" stroke-width="3" stroke-linecap="square"/>
<path d="M1244.28 416.74L1212.82 409.67" stroke="white" stroke-width="3" stroke-linecap="square"/>
<path d="M1240.55 431.64L1210.62 422.12" stroke="white" stroke-width="3" stroke-linecap="square"/>
<path d="M1270.98 413.67L1257.35 406.19C1257.35 406.19 1243.91 419.63 1235.35 418.95C1235.35 418.95 1248.6 391.58 1248.12 388.28C1247.64 384.98 1278.49 399.17 1278.49 399.17" fill="#3361C2"/>
<path d="M1271.27 412.57L1257.63 405.1C1257.63 405.1 1246.34 418.77 1237.82 418.1" stroke="white" stroke-width="3" stroke-linecap="square"/>
<path d="M1565.18 1036.03L1490.8 720.21L1482.68 795.21L1500.68 1036.05H1381.25L1366.41 780.21C1365.39 762.669 1367.06 745.076 1371.36 728.04L1427.15 506.77L1604.43 505.35L1622.03 781.47L1680.03 1027.01L1565.18 1036.03Z" fill="#24272D"/>
<path d="M1492.28 737.07L1480.37 612.38" stroke="white" stroke-width="3" stroke-linecap="square"/>
<path d="M1480.73 1036.02L1500.65 1075.75H1321.44L1396.09 1036.02H1480.73Z" fill="#72A065"/>
<path d="M1355.25 426.47C1355.25 426.47 1411.78 337.99 1499.49 339.91C1602.91 342.19 1652.11 416.13 1673.22 464.16C1675.16 468.567 1675.97 473.387 1675.59 478.186C1675.21 482.986 1673.64 487.615 1671.02 491.659C1668.41 495.702 1664.83 499.033 1660.61 501.353C1656.39 503.673 1651.66 504.909 1646.85 504.95L1552.68 505.69L1427.15 506.76L1418.15 476.33L1400.94 496.47C1392.2 506.714 1379.98 513.351 1366.63 515.095C1353.28 516.839 1339.75 513.566 1328.68 505.91L1259.49 458.11L1285.82 393.75L1355.25 426.47Z" fill="#72A065"/>
<path d="M1486.96 246.76L1489.66 345.53" stroke="#3361C2" stroke-width="65" stroke-linecap="round" stroke-linejoin="round"/>
<path d="M1471.4 318.26L1466.14 318.37C1460.03 318.498 1453.96 317.277 1448.38 314.795C1442.79 312.314 1437.82 308.631 1433.82 304.011C1429.82 299.39 1426.88 293.944 1425.22 288.061C1423.56 282.177 1423.22 276.001 1424.22 269.97L1429.22 240.1C1430.82 230.454 1435.77 221.68 1443.19 215.319C1450.62 208.959 1460.05 205.418 1469.83 205.32C1480.86 205.211 1491.48 209.487 1499.36 217.207C1507.23 224.928 1511.72 235.461 1511.83 246.49L1512.13 276.25C1512.24 287.205 1508.02 297.761 1500.4 305.626C1492.77 313.491 1482.35 318.031 1471.4 318.26Z" fill="#3361C2"/>
<path d="M1524.97 278.496C1530.03 271.732 1528.66 262.145 1521.89 257.082C1515.13 252.02 1505.55 253.399 1500.48 260.164L1495.29 267.104C1490.22 273.869 1491.6 283.456 1498.36 288.519C1505.12 293.581 1514.71 292.201 1519.77 285.437L1524.97 278.496Z" fill="#3361C2"/>
<path d="M1519.14 268.8L1508.62 279.8" stroke="white" stroke-width="3" stroke-linecap="square"/>
<path d="M1445.82 253.93L1442.76 278.01L1451.32 279.15" stroke="white" stroke-width="3" stroke-linecap="square"/>
<path d="M1496.14 277.96L1488.51 233.26L1486.7 222.66C1483.85 225.195 1480.61 227.245 1477.1 228.73C1464.35 234.16 1427.92 228.2 1425.19 202.04C1422.97 180.69 1444.12 194.78 1455.64 194.51C1473.74 194.08 1487.14 184.68 1510.44 200.17C1538.32 218.71 1520.88 256.34 1520.88 256.34C1520.88 256.34 1508.42 250.16 1496.14 277.96Z" fill="#24272D"/>
<path d="M1460.98 318.37L1476.64 318.38L1461.19 330.92L1460.98 318.37Z" fill="#24272D"/>
<path d="M1458.21 264.35C1460.57 264.35 1462.49 262.434 1462.49 260.07C1462.49 257.706 1460.57 255.79 1458.21 255.79C1455.85 255.79 1453.93 257.706 1453.93 260.07C1453.93 262.434 1455.85 264.35 1458.21 264.35Z" fill="white"/>
<path d="M1435.76 264.35C1438.12 264.35 1440.04 262.434 1440.04 260.07C1440.04 257.706 1438.12 255.79 1435.76 255.79C1433.4 255.79 1431.48 257.706 1431.48 260.07C1431.48 262.434 1433.4 264.35 1435.76 264.35Z" fill="white"/>
<path d="M1571.28 445.52L1527.17 403.4" stroke="white" stroke-width="3" stroke-linecap="square"/>
<path d="M1418.13 476.32L1407.25 441.67" stroke="white" stroke-width="3" stroke-linecap="square"/>
<path d="M1465.08 780.89L1482.69 795.19L1467.02 811.69" stroke="white" stroke-width="3" stroke-linecap="square"/>
<path d="M1446.03 560.76L1474.37 469.77L1559.41 425.12L1650.41 453.45L1695.06 538.5L1666.72 629.5L1581.67 674.15L1490.68 645.81L1446.03 560.76Z" fill="#EF6E45"/>
<path d="M1465.62 284.89C1465.62 284.89 1459.11 286.75 1456.87 291.99" stroke="white" stroke-width="3" stroke-linecap="square"/>
<path d="M1433.98 243.4L1441.34 245.48" stroke="white" stroke-width="3" stroke-linecap="square"/>
<path d="M1464.74 244.64L1453.48 246.9" stroke="white" stroke-width="3" stroke-linecap="square"/>
<path d="M925.01 433.88H762.65V538.09H925.01V433.88Z" fill="#EF6E45"/>
<path d="M771.881 445.9L843.831 491.98L915.881 445.9" stroke="white" stroke-width="6"/>
<path d="M818.85 489.92L776.6 523.56" stroke="white" stroke-width="6"/>
<path d="M869.561 489.92L911.811 523.56" stroke="white" stroke-width="6"/>
<path d="M599.88 728.79H437.52V833H599.88V728.79Z" fill="#EF6E45"/>
<path d="M446.75 740.82L518.7 786.89L590.75 740.82" stroke="white" stroke-width="6"/>
<path d="M493.721 784.83L451.471 818.47" stroke="white" stroke-width="6"/>
<path d="M544.43 784.83L586.69 818.47" stroke="white" stroke-width="6"/>
<path d="M286.03 597.17H123.67V701.38H286.03V597.17Z" fill="#72A065"/>
<path d="M132.9 609.19L204.85 655.27L276.9 609.19" stroke="white" stroke-width="6"/>
<path d="M179.879 653.2L137.619 686.85" stroke="white" stroke-width="6"/>
<path d="M230.58 653.2L272.84 686.85" stroke="white" stroke-width="6"/>
<path d="M609.11 393.01H446.75V497.22H609.11V393.01Z" fill="#72A065"/>
<path d="M455.98 405.04L527.93 451.11L599.98 405.04" stroke="white" stroke-width="6"/>
<path d="M502.959 449.05L460.699 482.69" stroke="white" stroke-width="6"/>
<path d="M553.66 449.05L595.92 482.69" stroke="white" stroke-width="6"/>
<path d="M1056.05 214.43H893.689V318.64H1056.05V214.43Z" fill="#72A065"/>
<path d="M902.92 226.46L974.87 272.54L1046.92 226.46" stroke="white" stroke-width="6"/>
<path d="M949.901 270.47L907.641 304.11" stroke="white" stroke-width="6"/>
<path d="M1000.6 270.47L1042.86 304.11" stroke="white" stroke-width="6"/>
<path d="M1073.42 670.03H911.061V774.24H1073.42V670.03Z" fill="#72A065"/>
<path d="M920.289 682.05L992.239 728.13L1064.29 682.05" stroke="white" stroke-width="6"/>
<path d="M967.26 726.06L925.01 759.7" stroke="white" stroke-width="6"/>
<path d="M1017.97 726.06L1060.22 759.7" stroke="white" stroke-width="6"/>
<path d="M422.649 160.15H260.289V264.36H422.649V160.15Z" fill="#EF6E45"/>
<path d="M269.52 172.18L341.47 218.25L413.52 172.18" stroke="white" stroke-width="6"/>
<path d="M316.49 216.19L274.24 249.83" stroke="white" stroke-width="6"/>
<path d="M367.199 216.19L409.459 249.83" stroke="white" stroke-width="6"/>
<path d="M1293.72 234.15L1224.99 259.78L1188.57 162.15L1257.31 136.51L1285.56 155.02L1275.03 184.04L1302.32 199.97L1293.72 234.15Z" fill="#EF6E45"/>
<path d="M1203.29 164.69L1276.17 180.9" stroke="white" stroke-width="6"/>
<path d="M1259.19 195.72L1234.8 241.27" stroke="white" stroke-width="6"/>
<path d="M1596.05 615.82C1605.77 615.82 1613.65 607.94 1613.65 598.22C1613.65 588.5 1605.77 580.62 1596.05 580.62C1586.33 580.62 1578.45 588.5 1578.45 598.22C1578.45 607.94 1586.33 615.82 1596.05 615.82Z" fill="#FFC774"/>
<path d="M1547.68 479.835L1526.04 491.191L1571.09 576.994L1592.72 565.638L1547.68 479.835Z" fill="#FFC774"/>
<path d="M251.959 160.15H137.869" stroke="#EDF0F4" stroke-width="3"/>
<path d="M251.96 264.35H176.57" stroke="#EDF0F4" stroke-width="3"/>
<path d="M251.96 172.18H208.43" stroke="#EDF0F4" stroke-width="3"/>
<path d="M251.959 252.24H211.199" stroke="#EDF0F4" stroke-width="3"/>
<path d="M437.52 393.01H323.43" stroke="#EDF0F4" stroke-width="3"/>
<path d="M437.521 497.22H362.131" stroke="#EDF0F4" stroke-width="3"/>
<path d="M437.52 405.04H393.99" stroke="#EDF0F4" stroke-width="3"/>
<path d="M437.52 485.1H396.76" stroke="#EDF0F4" stroke-width="3"/>
<path d="M881.209 214.43H767.119" stroke="#EDF0F4" stroke-width="3"/>
<path d="M881.21 318.64H805.82" stroke="#EDF0F4" stroke-width="3"/>
<path d="M881.21 226.46H837.68" stroke="#EDF0F4" stroke-width="3"/>
<path d="M881.209 306.52H840.449" stroke="#EDF0F4" stroke-width="3"/>
<path d="M753.82 433.88H639.73" stroke="#EDF0F4" stroke-width="3"/>
<path d="M753.819 538.08H678.439" stroke="#EDF0F4" stroke-width="3"/>
<path d="M753.821 445.9H710.301" stroke="#EDF0F4" stroke-width="3"/>
<path d="M753.821 525.96H713.061" stroke="#EDF0F4" stroke-width="3"/>
<path d="M900.561 670.03H786.471" stroke="#EDF0F4" stroke-width="3"/>
<path d="M900.56 774.23H825.17" stroke="#EDF0F4" stroke-width="3"/>
<path d="M900.559 682.05H857.029" stroke="#EDF0F4" stroke-width="3"/>
<path d="M900.561 762.11H859.801" stroke="#EDF0F4" stroke-width="3"/>
<path d="M424.24 728.79H310.15" stroke="#EDF0F4" stroke-width="3"/>
<path d="M424.239 833H348.859" stroke="#EDF0F4" stroke-width="3"/>
<path d="M424.241 740.82H380.721" stroke="#EDF0F4" stroke-width="3"/>
<path d="M424.24 820.88H383.49" stroke="#EDF0F4" stroke-width="3"/>
<path d="M114.09 597.17H0" stroke="#EDF0F4" stroke-width="3"/>
<path d="M114.091 701.37H38.7109" stroke="#EDF0F4" stroke-width="3"/>
<path d="M114.091 609.19H70.5605" stroke="#EDF0F4" stroke-width="3"/>
<path d="M114.09 689.25H73.3301" stroke="#EDF0F4" stroke-width="3"/>
</svg>
