<svg width="1733" height="1151" viewBox="0 0 1733 1151" fill="none" xmlns="http://www.w3.org/2000/svg">
<path d="M1715.73 380.95L1581.2 515.03L1470.91 405.12L1352.59 523.04" stroke="#F2F6F9" stroke-width="33" stroke-linecap="round" stroke-linejoin="round"/>
<path d="M1462.22 689.01L1695.88 921.87" stroke="#F2F6F9" stroke-width="33" stroke-linecap="round" stroke-linejoin="round"/>
<path d="M1275.14 1021.23L1398.34 898.45" stroke="#F2F6F9" stroke-width="33" stroke-linecap="round" stroke-linejoin="round"/>
<path d="M16.5 806.49L139.7 683.71" stroke="#EDF1F4" stroke-width="33" stroke-linecap="round" stroke-linejoin="round"/>
<path d="M318.63 260.36L498.58 81.02" stroke="#F2F6F9" stroke-width="33" stroke-linecap="round" stroke-linejoin="round"/>
<path d="M1151.3 745.1H1004.01V624.76H874.47V492.1" stroke="#F2F6F9" stroke-width="33" stroke-linecap="round" stroke-linejoin="round"/>
<path d="M231.63 533.63L366.16 667.71L255.88 777.62L374.2 895.54" stroke="#F2F6F9" stroke-width="33" stroke-linecap="round" stroke-linejoin="round"/>
<path d="M673.39 532.23L907.05 299.37" stroke="#F2F6F9" stroke-width="33" stroke-linecap="round" stroke-linejoin="round"/>
<path d="M772.21 1037.18L957.23 852.16" stroke="#EDF1F4" stroke-width="33" stroke-linecap="round" stroke-linejoin="round"/>
<path d="M782.19 800.66L658.99 677.87" stroke="#F2F6F9" stroke-width="33" stroke-linecap="round" stroke-linejoin="round"/>
<path d="M1576.09 194.16L1462.22 80.6699" stroke="#EDF1F4" stroke-width="33" stroke-linecap="round" stroke-linejoin="round"/>
<path d="M181.7 202.21L67.8203 88.7202" stroke="#F2F6F9" stroke-width="33" stroke-linecap="round" stroke-linejoin="round"/>
<path d="M1148.3 268.33L895.61 16.5" stroke="#F2F6F9" stroke-width="33" stroke-linecap="round" stroke-linejoin="round"/>
<path d="M146.524 400.077C147.487 376.215 128.861 356.089 104.922 355.123C80.9835 354.158 60.7971 372.718 59.8345 396.58C58.872 420.441 77.4978 440.567 101.437 441.533C125.375 442.499 145.562 423.938 146.524 400.077Z" fill="#F2F6F9"/>
<path d="M1336.74 239.59C1360.7 239.59 1380.12 220.231 1380.12 196.35C1380.12 172.469 1360.7 153.11 1336.74 153.11C1312.78 153.11 1293.36 172.469 1293.36 196.35C1293.36 220.231 1312.78 239.59 1336.74 239.59Z" fill="#F2F6F9"/>
<path d="M155.64 1046.22C179.598 1046.22 199.02 1026.86 199.02 1002.98C199.02 979.099 179.598 959.74 155.64 959.74C131.682 959.74 112.26 979.099 112.26 1002.98C112.26 1026.86 131.682 1046.22 155.64 1046.22Z" fill="#F2F6F9"/>
<path d="M1127.89 987.91C1151.85 987.91 1171.27 968.551 1171.27 944.67C1171.27 920.789 1151.85 901.43 1127.89 901.43C1103.93 901.43 1084.51 920.789 1084.51 944.67C1084.51 968.551 1103.93 987.91 1127.89 987.91Z" fill="#F2F6F9"/>
<path d="M565.24 353.01C589.198 353.01 608.62 333.651 608.62 309.77C608.62 285.889 589.198 266.53 565.24 266.53C541.282 266.53 521.86 285.889 521.86 309.77C521.86 333.651 541.282 353.01 565.24 353.01Z" fill="#F2F6F9"/>
<path d="M880.06 1150.71C1201.58 1150.71 1462.22 1147.92 1462.22 1144.48C1462.22 1141.04 1201.58 1138.25 880.06 1138.25C558.542 1138.25 297.9 1141.04 297.9 1144.48C297.9 1147.92 558.542 1150.71 880.06 1150.71Z" fill="#E4EFF7"/>
<path d="M647.66 182.24L632.06 168.15C632.06 168.15 592.67 179.56 590.06 161.06C590.06 161.06 583.79 162.68 582.24 159.19C580.69 155.7 592.86 141.81 592.86 141.81C592.86 141.81 594.28 126.81 606.37 120.69C618.46 114.57 648.53 105.93 651.91 109.53C655.29 113.13 667.16 154.37 667.16 154.37C667.16 154.37 669.65 172.15 647.66 182.24Z" fill="#EF6E45"/>
<path d="M514.08 1098.52L558.48 733.13L579.48 829.13L563.31 1098.52H685.31L702.48 802.52C703.659 782.226 701.731 761.871 696.76 742.16L632.21 486.16L427.1 484.52L426.32 786.67L395.12 1098.52H514.08Z" fill="#24272D"/>
<path d="M559.08 741.07L572.85 596.81" stroke="white" stroke-width="3" stroke-linecap="square"/>
<path d="M570.13 1098.52L547.08 1144.48H754.42L668.05 1098.52H570.13Z" fill="#004599"/>
<path d="M402.141 1098.52L379.091 1144.48H586.431L500.061 1098.52H402.141Z" fill="#004599"/>
<path d="M588.701 805.44L576.431 823.13L589.931 837.6" stroke="white" stroke-width="3" stroke-linecap="square"/>
<path d="M623.06 396.676L274.571 430.539L298.06 672.27L646.549 638.408L623.06 396.676Z" fill="#CFD0D1"/>
<path d="M458.58 522.67L341.24 618.67" stroke="#889099" stroke-width="4"/>
<path d="M1183.08 494.29V614.12H1267.68V494.29C1267.68 483.095 1263.24 472.357 1255.33 464.428C1247.43 456.5 1236.71 452.027 1225.51 451.99H1225.38L1223.32 452.05C1212.82 452.557 1202.89 456.954 1195.46 464.384C1188.03 471.814 1183.64 481.745 1183.13 492.24C1183.09 492.91 1183.08 493.6 1183.08 494.29Z" fill="#24272D"/>
<path d="M1299.08 1144.47H1317.85V614.12H1299.08V1144.47Z" fill="#24272D"/>
<path d="M1317.85 1144.47H1336.62V614.12H1317.85V1144.47Z" fill="#54565B"/>
<path d="M1183.08 614.13H1267.68L1239.16 651.37C1233.46 658.807 1226.13 664.833 1217.73 668.979C1209.33 673.126 1200.09 675.282 1190.72 675.28H1166.57C1163.78 675.271 1161.05 674.484 1158.68 673.007C1156.31 671.53 1154.41 669.423 1153.17 666.921C1151.94 664.419 1151.42 661.623 1151.69 658.846C1151.96 656.068 1152.99 653.421 1154.68 651.2L1183.08 614.13Z" fill="#8A8B96"/>
<path d="M1336.63 614.13V642.76L1317.85 675.28V614.13H1336.63Z" fill="#24272D"/>
<path d="M376.151 387.8C369.346 399.795 363.288 412.199 358.011 424.94C362.933 412.042 369.004 399.612 376.151 387.8Z" fill="#004599"/>
<path d="M680.941 279.59C680.941 279.59 648.941 282.74 548.431 293.13C429.381 305.43 378.941 362.98 354.011 435.9C346.201 458.78 353.751 483.9 377.931 484.06L632.16 486.16L657.59 400.41L760.03 368.94C802.82 355.79 818.181 303.13 789.171 269.03L682.48 143.67L622.4 183.02L680.941 279.59Z" fill="#004599"/>
<mask id="mask0" mask-type="alpha" maskUnits="userSpaceOnUse" x="351" y="143" width="454" height="344">
<path fill-rule="evenodd" clip-rule="evenodd" d="M680.941 279.59C680.941 279.59 648.941 282.74 548.431 293.13C429.381 305.43 378.941 362.98 354.011 435.9C346.201 458.78 353.751 483.9 377.931 484.06L486.931 484.93L632.16 486.16L657.59 400.41L760.03 368.94C802.82 355.79 818.181 303.13 789.171 269.03L682.48 143.67L622.4 183.02L680.941 279.59Z" fill="white"/>
</mask>
<g mask="url(#mask0)">
<path d="M363.94 435.05C381.028 435.05 394.88 421.198 394.88 404.11C394.88 387.022 381.028 373.17 363.94 373.17C346.852 373.17 333 387.022 333 404.11C333 421.198 346.852 435.05 363.94 435.05Z" fill="#3361C2"/>
<path d="M497.42 435.05C514.508 435.05 528.36 421.198 528.36 404.11C528.36 387.022 514.508 373.17 497.42 373.17C480.333 373.17 466.48 387.022 466.48 404.11C466.48 421.198 480.333 435.05 497.42 435.05Z" fill="#3361C2"/>
<path d="M631.9 435.05C648.988 435.05 662.84 421.198 662.84 404.11C662.84 387.022 648.988 373.17 631.9 373.17C614.812 373.17 600.96 387.022 600.96 404.11C600.96 421.198 614.812 435.05 631.9 435.05Z" fill="#3361C2"/>
<path d="M432.55 358.79C449.638 358.79 463.49 344.938 463.49 327.85C463.49 310.762 449.638 296.91 432.55 296.91C415.463 296.91 401.61 310.762 401.61 327.85C401.61 344.938 415.463 358.79 432.55 358.79Z" fill="#3361C2"/>
<path d="M566.04 358.79C583.127 358.79 596.98 344.938 596.98 327.85C596.98 310.762 583.127 296.91 566.04 296.91C548.952 296.91 535.1 310.762 535.1 327.85C535.1 344.938 548.952 358.79 566.04 358.79Z" fill="#3361C2"/>
<path d="M699.52 358.79C716.608 358.79 730.46 344.938 730.46 327.85C730.46 310.762 716.608 296.91 699.52 296.91C682.432 296.91 668.58 310.762 668.58 327.85C668.58 344.938 682.432 358.79 699.52 358.79Z" fill="#3361C2"/>
<path d="M631.9 277.13C648.988 277.13 662.84 263.278 662.84 246.19C662.84 229.102 648.988 215.25 631.9 215.25C614.812 215.25 600.96 229.102 600.96 246.19C600.96 263.278 614.812 277.13 631.9 277.13Z" fill="#3361C2"/>
<path d="M766.14 277.13C783.228 277.13 797.08 263.278 797.08 246.19C797.08 229.102 783.228 215.25 766.14 215.25C749.053 215.25 735.2 229.102 735.2 246.19C735.2 263.278 749.053 277.13 766.14 277.13Z" fill="#3361C2"/>
<path d="M699.52 203.88C716.608 203.88 730.46 190.028 730.46 172.94C730.46 155.852 716.608 142 699.52 142C682.432 142 668.58 155.852 668.58 172.94C668.58 190.028 682.432 203.88 699.52 203.88Z" fill="#3361C2"/>
<path d="M432.55 519.28C449.638 519.28 463.49 505.428 463.49 488.34C463.49 471.252 449.638 457.4 432.55 457.4C415.463 457.4 401.61 471.252 401.61 488.34C401.61 505.428 415.463 519.28 432.55 519.28Z" fill="#3361C2"/>
</g>
<path d="M377.911 384.96C377.371 385.82 376.831 386.68 376.301 387.54C377.301 385.86 377.811 384.97 377.811 384.97L377.911 384.96Z" fill="#004599"/>
<path d="M559.86 332.14H558.86C554.594 332.023 550.393 331.067 546.496 329.327C542.599 327.586 539.084 325.094 536.15 321.995C533.216 318.895 530.922 315.247 529.399 311.261C527.875 307.274 527.152 303.026 527.27 298.76L530.39 184.48C530.626 175.86 534.277 167.688 540.539 161.76C546.801 155.832 555.161 152.634 563.78 152.87C572.4 153.106 580.573 156.757 586.501 163.018C592.429 169.28 595.626 177.64 595.39 186.26L592.26 300.54C592.029 308.986 588.516 317.01 582.467 322.909C576.419 328.809 568.31 332.12 559.86 332.14Z" fill="#EF6E45"/>
<path d="M580.931 268.08L587.011 268.21C594.082 268.36 601.1 266.95 607.564 264.079C614.028 261.208 619.78 256.947 624.41 251.6C629.04 246.253 632.434 239.951 634.351 233.143C636.268 226.334 636.661 219.187 635.501 212.21L629.771 177.67C627.918 166.507 622.191 156.354 613.596 148.995C605 141.635 594.086 137.541 582.771 137.43C576.451 137.365 570.181 138.546 564.318 140.905C558.455 143.263 553.115 146.754 548.601 151.177C544.087 155.6 540.488 160.868 538.011 166.682C535.533 172.496 534.225 178.741 534.161 185.06L533.861 219.48C533.734 232.144 538.604 244.349 547.415 253.446C556.227 262.544 568.269 267.802 580.931 268.08Z" fill="#EF6E45"/>
<path d="M524.91 230.102C530.769 237.927 541.86 239.523 549.683 233.666C557.507 227.809 559.099 216.718 553.241 208.892L547.23 200.863C541.372 193.038 530.28 191.442 522.457 197.298C514.634 203.155 513.041 214.247 518.899 222.072L524.91 230.102Z" fill="#EF6E45"/>
<path d="M525.69 210.86L537.86 223.59" stroke="white" stroke-width="3" stroke-linecap="square"/>
<path d="M610.52 193.66L614.06 221.53L604.15 222.84" stroke="white" stroke-width="3" stroke-linecap="square"/>
<path d="M552.29 221.45L561.13 169.75L563.22 157.48C566.514 160.408 570.267 162.773 574.33 164.48C589.08 170.76 631.22 163.87 634.33 133.6C636.91 108.91 612.43 125.2 599.1 124.89C578.17 124.39 562.66 113.51 535.71 131.43C503.44 152.89 523.63 196.43 523.63 196.43C523.63 196.43 538.09 189.29 552.29 221.45Z" fill="#24272D"/>
<path d="M592.981 268.22L574.851 268.23L592.731 282.74L592.981 268.22Z" fill="#24272D"/>
<path d="M597.011 209.03C599.744 209.03 601.961 206.814 601.961 204.08C601.961 201.346 599.744 199.13 597.011 199.13C594.277 199.13 592.061 201.346 592.061 204.08C592.061 206.814 594.277 209.03 597.011 209.03Z" fill="white"/>
<path d="M626.19 209.03C628.924 209.03 631.14 206.814 631.14 204.08C631.14 201.346 628.924 199.13 626.19 199.13C623.456 199.13 621.24 201.346 621.24 204.08C621.24 206.814 623.456 209.03 626.19 209.03Z" fill="white"/>
<path d="M583.79 228.73C584.23 228.73 598.33 227.73 600.55 238.67L583.79 228.73Z" fill="white"/>
<path d="M1225.51 451.99C1236.71 452.027 1247.43 456.5 1255.33 464.428C1263.24 472.357 1267.68 483.095 1267.68 494.29V614.12H1435.43V494.42C1435.43 483.166 1430.96 472.374 1423 464.417C1415.04 456.46 1404.24 451.99 1392.99 451.99H1225.51Z" fill="#EF6E45"/>
<path d="M1297.17 410.37V545.81H1313.73V418.14H1334.73V402.07L1310.98 398.5C1309.27 398.239 1307.53 398.351 1305.86 398.828C1304.2 399.305 1302.66 400.135 1301.35 401.262C1300.04 402.39 1298.98 403.787 1298.26 405.359C1297.54 406.931 1297.17 408.641 1297.17 410.37Z" fill="#24272D"/>
<path d="M440.181 656.84C440.181 656.84 523.181 715.03 537.881 624.31C550.881 543.75 455.571 645.31 455.571 645.31" fill="#EF6E45"/>
<path d="M670.179 417.814L329.826 404.084L320.302 640.182L660.655 653.912L670.179 417.814Z" fill="#E1E2E5"/>
<path d="M343.7 418.47L496.73 531.43L657.14 433.24" stroke="#889099" stroke-width="4"/>
<path d="M541.681 522.67L643.601 634.23" stroke="#889099" stroke-width="4"/>
<path d="M473.861 621.95C480.225 623.883 486.48 626.157 492.601 628.76C502.161 632.89 510.871 639.93 531.471 640.9C551.221 641.82 538.521 657.58 524.541 654.9C515.151 653.1 496.701 647.59 493.271 655.68L437.381 641.43" fill="#EF6E45"/>
<path d="M339.74 488.81C330.4 555.81 433.28 664.89 433.28 664.89L494.91 619.81L444.04 498.52L508.55 373.38L377.86 384.97C377.86 384.97 347.27 434.79 339.74 488.81Z" fill="#004599"/>
<mask id="mask1" mask-type="alpha" maskUnits="userSpaceOnUse" x="339" y="373" width="170" height="292">
<path fill-rule="evenodd" clip-rule="evenodd" d="M339.74 488.81C330.4 555.81 433.28 664.89 433.28 664.89L494.91 619.81L444.04 498.52L508.55 373.38L377.86 384.97C377.86 384.97 347.27 434.79 339.74 488.81Z" fill="white"/>
</mask>
<g mask="url(#mask1)">
<path d="M364.18 435.26C381.268 435.26 395.12 421.408 395.12 404.32C395.12 387.232 381.268 373.38 364.18 373.38C347.093 373.38 333.24 387.232 333.24 404.32C333.24 421.408 347.093 435.26 364.18 435.26Z" fill="#3361C2"/>
<path d="M497.661 435.26C514.748 435.26 528.601 421.408 528.601 404.32C528.601 387.232 514.748 373.38 497.661 373.38C480.573 373.38 466.721 387.232 466.721 404.32C466.721 421.408 480.573 435.26 497.661 435.26Z" fill="#3361C2"/>
<path d="M365.411 606.03C382.498 606.03 396.351 592.178 396.351 575.09C396.351 558.002 382.498 544.15 365.411 544.15C348.323 544.15 334.471 558.002 334.471 575.09C334.471 592.178 348.323 606.03 365.411 606.03Z" fill="#3361C2"/>
<path d="M498.89 606.03C515.978 606.03 529.83 592.178 529.83 575.09C529.83 558.002 515.978 544.15 498.89 544.15C481.803 544.15 467.95 558.002 467.95 575.09C467.95 592.178 481.803 606.03 498.89 606.03Z" fill="#3361C2"/>
<path d="M432.791 519.49C449.878 519.49 463.731 505.638 463.731 488.55C463.731 471.462 449.878 457.61 432.791 457.61C415.703 457.61 401.851 471.462 401.851 488.55C401.851 505.638 415.703 519.49 432.791 519.49Z" fill="#3361C2"/>
</g>
</svg>
