<svg width="1696" height="1119" viewBox="0 0 1696 1119" fill="none" xmlns="http://www.w3.org/2000/svg">
<path d="M25.54 1055.02C25.54 1055.02 79.97 902.86 174.2 899.94C273.61 896.87 271.01 1009.73 350.84 1007.02C430.67 1004.31 422.44 965.39 527.77 961.33C633.1 957.27 727.04 1055.02 727.04 1055.02H25.54Z" fill="#DCE2E5"/>
<path d="M1263.79 1055.02H911.97C916.595 1011.6 937.121 971.416 969.594 942.218C1002.07 913.02 1044.19 896.865 1087.86 896.865C1131.54 896.865 1173.66 913.02 1206.14 942.218C1238.61 971.416 1259.13 1011.6 1263.76 1055.02H1263.79Z" fill="#DCE2E5"/>
<path d="M612.31 1055.02C612.31 1055.02 676.31 868.36 817.16 867.64C918.78 867.11 963.4 992.38 1082.6 988.95C1201.8 985.52 1225.97 882.56 1383.28 882.94C1550.28 883.36 1659.74 1055.02 1659.74 1055.02H612.31Z" fill="#E9EEF2"/>
<path d="M768.3 603.33V1053.3" stroke="#DCE2E5" stroke-width="26"/>
<path d="M819.1 182.47C819.1 182.47 850.3 98.86 968.05 95.07C1085.8 91.28 1141.11 4.89997 1240.82 1.06997C1340.53 -2.76003 1378.04 108.92 1509.59 103.22C1641.14 97.52 1695.24 182.44 1695.24 182.44L819.1 182.47Z" fill="#F2F6F9"/>
<path d="M611.53 331.41C611.53 331.41 568.33 244.09 486.28 241.41C404.23 238.73 406.89 306.24 337.41 303.6C267.93 300.96 265.99 213.6 174.32 209.66C82.6498 205.72 0.969727 331.41 0.969727 331.41H611.53Z" fill="#F2F6F9"/>
<path d="M722.78 487.86H807.78C824.632 487.86 840.794 494.554 852.71 506.47C864.626 518.386 871.32 534.548 871.32 551.4V611.08H659.24V551.4C659.24 534.548 665.934 518.386 677.85 506.47C689.767 494.554 705.928 487.86 722.78 487.86Z" fill="#E9EEF2"/>
<path d="M868.71 676.32H891.41C893.575 676.328 895.702 675.75 897.565 674.648C899.429 673.546 900.959 671.96 901.995 670.058C903.03 668.157 903.531 666.011 903.446 663.847C903.361 661.684 902.692 659.584 901.51 657.77L871.36 611.08H806.12L837.12 659.13C840.527 664.409 845.204 668.75 850.723 671.753C856.242 674.756 862.427 676.326 868.71 676.32Z" fill="#E9EEF2"/>
<path d="M868.82 1118.97C1252.79 1118.97 1564.05 1115.86 1564.05 1112.02C1564.05 1108.18 1252.79 1105.07 868.82 1105.07C484.855 1105.07 173.59 1108.18 173.59 1112.02C173.59 1115.86 484.855 1118.97 868.82 1118.97Z" fill="#E4EFF7"/>
<path d="M1333.55 1066.06L1356.61 1112.02H1149.26L1235.63 1066.06H1333.55Z" fill="#162C56"/>
<path d="M1501.54 1066.06L1524.59 1112.02H1317.25L1403.62 1066.06H1501.54Z" fill="#162C56"/>
<path d="M1249.28 369.78L1382.76 408.3L1364.09 581.79" stroke="#3361C2" stroke-width="46" stroke-linejoin="round"/>
<path d="M927.39 514.02L1074.6 606.64L1086.93 522.12" stroke="#3361C2" stroke-width="46" stroke-linejoin="round"/>
<path d="M1047.48 524.94C1047.48 524.94 1031.28 437.56 1112.97 377.38C1194.66 317.2 1288.7 347.45 1288.7 347.45L1266.87 427.74L1345.22 529.61L1181.97 623.9L1118.87 555.46L1116.87 566.15L1047.48 524.94Z" fill="#72A065"/>
<path d="M1305.72 478.22L1141.31 579.75L1118.91 555.46L1116.86 566.14L1050.06 526.47L1286.11 357.04L1266.89 427.74L1305.72 478.22Z" fill="#319374"/>
<path d="M1343.5 804.59L1355.74 813.38L1349.62 830.83" stroke="white" stroke-width="3" stroke-linecap="square"/>
<path d="M1118.91 555.46L1048.58 479.03" stroke="white" stroke-width="3" stroke-linecap="square"/>
<path d="M1268.61 427.74L1263.85 448.17L1201.16 438.66" stroke="white" stroke-width="3" stroke-linecap="square"/>
<path d="M1036.56 307.12L1107.55 396.73" stroke="#3361C2" stroke-width="65" stroke-linecap="round" stroke-linejoin="round"/>
<path d="M1071.72 384.14L1066.93 387.89C1061.36 392.247 1054.9 395.322 1048 396.897C1041.1 398.472 1033.95 398.507 1027.04 397.002C1020.13 395.496 1013.63 392.486 1008.02 388.185C1002.4 383.885 997.804 378.4 994.55 372.12L978.43 341.02C973.221 330.977 971.719 319.418 974.188 308.377C976.657 297.336 982.939 287.518 991.93 280.65C996.95 276.81 1002.68 273.996 1008.78 272.37C1014.89 270.744 1021.26 270.337 1027.52 271.173C1033.79 272.009 1039.83 274.071 1045.3 277.241C1050.76 280.411 1055.55 284.628 1059.39 289.65L1080.3 317C1088 327.067 1091.41 339.763 1089.81 352.333C1088.2 364.903 1081.7 376.332 1071.72 384.14Z" fill="#3361C2"/>
<path d="M1093.79 310.12C1093.79 300.345 1085.87 292.42 1076.1 292.42C1066.32 292.42 1058.4 300.345 1058.4 310.12V320.15C1058.4 329.925 1066.32 337.85 1076.1 337.85C1085.87 337.85 1093.79 329.925 1093.79 320.15V310.12Z" fill="#3361C2"/>
<path d="M1081.64 305.23L1077.42 325.43" stroke="white" stroke-width="3" stroke-linecap="square"/>
<path d="M991.71 337.19L1005.57 361.62L1014.29 356.73" stroke="white" stroke-width="3" stroke-linecap="square"/>
<path d="M1036.54 353.29C1038.05 354.153 1039.38 355.305 1040.44 356.682C1041.51 358.059 1042.29 359.632 1042.74 361.312C1043.2 362.992 1043.32 364.745 1043.09 366.471C1042.87 368.197 1042.3 369.861 1041.43 371.369C1040.56 372.876 1039.4 374.196 1038.02 375.254C1036.64 376.312 1035.06 377.086 1033.38 377.532C1031.7 377.978 1029.94 378.088 1028.22 377.854C1026.49 377.62 1024.83 377.048 1023.33 376.17C1017.01 372.52 1021.23 366.48 1024.88 360.17C1028.53 353.86 1030.22 349.64 1036.54 353.29Z" fill="white"/>
<path d="M1066.7 329.65L1028.64 293.56L1019.64 284.99C1018.77 289.31 1017.19 293.456 1014.97 297.26C1006.97 311.13 969.07 330.87 948.39 308.53C931.53 290.31 960.89 288.68 971.39 280.45C987.86 267.5 993.76 249.5 1026.07 247.69C1064.76 245.53 1074.69 292.48 1074.69 292.48C1074.69 292.48 1058.8 295.39 1066.7 329.65Z" fill="#24272D"/>
<path d="M1061.83 391.36L1076.34 380.5L1070.92 402.83L1061.83 391.36Z" fill="#24272D"/>
<path d="M806.901 505.016L745.807 546.38L808.89 639.553L869.984 598.189L806.901 505.016Z" fill="#EF6E45"/>
<path fill-rule="evenodd" clip-rule="evenodd" d="M823.346 511.527L810.581 520.14C797.196 529.171 793.666 547.343 802.697 560.728L817.341 582.433C826.372 595.818 844.544 599.348 857.929 590.317L870.694 581.704C884.079 572.673 887.609 554.501 878.578 541.116L863.934 519.411C854.903 506.026 836.731 502.496 823.346 511.527Z" stroke="#EF6E45" stroke-width="14"/>
<path d="M939.74 494.48C939.74 494.48 927.19 486.58 921.74 479.6C915.84 472.03 906.24 459.09 890.22 469.48C874.2 479.87 834.22 506.98 832.11 520.72C830 534.46 854.11 570.9 870.49 565.27C886.87 559.64 924.97 527.94 924.97 527.94" fill="#3361C2"/>
<path d="M863.38 499.15C864.561 500.675 865.377 502.45 865.767 504.339C866.157 506.229 866.11 508.182 865.63 510.05C865.63 510.05 873.21 503.85 877.82 509.05C882.93 514.86 878.88 519.7 878.88 519.7C878.88 519.7 886.21 513.98 892.08 520.23C898.54 527.1 890.08 533.5 890.08 533.5C890.08 533.5 897.75 529.18 901.8 535.34C905.85 541.5 899.49 547.67 899.49 547.67" stroke="white" stroke-width="3" stroke-linecap="square"/>
<path d="M866.12 509.62L844.45 528.55" stroke="white" stroke-width="3" stroke-linecap="square"/>
<path d="M879.75 519.1L851.98 544" stroke="white" stroke-width="3" stroke-linecap="square"/>
<path d="M891.29 532.62L862.24 554.43" stroke="white" stroke-width="3" stroke-linecap="square"/>
<path d="M894.78 491.87L878.58 499.71C878.58 499.71 882.22 521.39 875.87 528.96C875.87 528.96 858.96 498.1 855.53 496.34C852.1 494.58 886.15 475.05 886.15 475.05" fill="#3361C2"/>
<path d="M893.97 490.87L877.77 498.71C877.77 498.71 883.08 518.52 876.77 526.09" stroke="white" stroke-width="3" stroke-linecap="square"/>
<path d="M796.72 573.71L811.47 577.4L813.45 562.33" stroke="white" stroke-width="31" stroke-linecap="round"/>
<path d="M1009.49 338.63C1012.22 338.63 1014.44 336.414 1014.44 333.68C1014.44 330.946 1012.22 328.73 1009.49 328.73C1006.76 328.73 1004.54 330.946 1004.54 333.68C1004.54 336.414 1006.76 338.63 1009.49 338.63Z" fill="white"/>
<path d="M982.87 351.79C985.604 351.79 987.82 349.574 987.82 346.84C987.82 344.106 985.604 341.89 982.87 341.89C980.136 341.89 977.92 344.106 977.92 346.84C977.92 349.574 980.136 351.79 982.87 351.79Z" fill="white"/>
<path d="M1389.61 1066.06L1261.26 908.38L1340.42 1066.06H1218.42L1111.72 896.16C1100.97 879.049 1094.76 859.482 1093.68 839.305C1092.59 819.127 1096.66 799.006 1105.51 780.84L1181.97 623.9L1345.2 529.61L1380.79 568.89C1401.49 591.744 1414.37 620.603 1417.55 651.275C1420.73 681.946 1414.05 712.834 1398.48 739.45L1355.74 812.56L1511.57 1066.06H1389.61Z" fill="#EF6E45"/>
<mask id="mask0" mask-type="alpha" maskUnits="userSpaceOnUse" x="1093" y="529" width="419" height="538">
<path fill-rule="evenodd" clip-rule="evenodd" d="M1389.61 1066.06L1261.26 908.38L1340.42 1066.06H1218.42L1111.72 896.16C1100.97 879.049 1094.76 859.482 1093.68 839.305C1092.59 819.127 1096.66 799.006 1105.51 780.84L1181.97 623.9L1345.2 529.61L1380.79 568.89C1401.49 591.744 1414.37 620.603 1417.55 651.275C1420.73 681.946 1414.05 712.834 1398.48 739.45L1355.74 812.56L1511.57 1066.06H1389.61Z" fill="white"/>
</mask>
<g mask="url(#mask0)">
<path d="M1141.2 907.24C1125.59 912.56 1111.11 914.56 1102.71 913.09C1098.78 912.4 1096.19 910.95 1095.43 908.73C1095.31 908.377 1095.24 908.011 1095.21 907.64V907.08C1095.22 906.865 1095.24 906.651 1095.28 906.44C1095.28 906.407 1095.28 906.373 1095.28 906.34C1092.61 898.34 1093.02 883.19 1096.88 866.43C1102.32 842.86 1112.56 825.09 1119.74 826.75C1125.64 828.11 1127.65 842.13 1125.17 860.15C1137.83 848.15 1149.75 842.03 1154.17 845.87C1158.85 849.87 1153.78 863.76 1142.69 878.93C1161.23 874.13 1176.33 874.54 1178.36 880.48C1180.73 887.46 1164.1 899.44 1141.2 907.24Z" fill="#FFBA5F"/>
<path d="M1130.91 741.36C1123.14 726.82 1118.82 712.85 1118.91 704.36C1118.91 700.36 1119.97 697.58 1122.04 696.47C1122.36 696.298 1122.69 696.167 1123.04 696.08H1123.21L1123.56 696.02C1123.77 696 1123.99 696 1124.2 696.02L1124.29 695.97C1131.72 692.05 1146.77 689.97 1163.94 691.1C1188.08 692.66 1207.27 699.89 1206.79 707.24C1206.4 713.24 1192.89 717.53 1174.71 718C1188.55 728.56 1196.57 739.32 1193.5 744.34C1190.27 749.61 1175.78 746.84 1159.02 738.34C1166.75 755.86 1168.78 770.82 1163.26 773.78C1156.82 777.17 1142.31 762.69 1130.91 741.36Z" fill="#FFBA5F"/>
<path d="M1394.66 598.16C1407.76 588.16 1420.86 581.65 1429.29 580.38C1433.23 579.78 1436.15 580.33 1437.58 582.19C1437.8 582.501 1437.99 582.836 1438.13 583.19L1438.19 583.35C1438.19 583.46 1438.26 583.58 1438.3 583.69C1438.36 583.896 1438.41 584.107 1438.44 584.32L1438.5 584.4C1443.57 591.1 1448.01 605.63 1449.68 622.75C1452.01 646.83 1447.95 666.93 1440.62 667.64C1434.62 668.22 1428.23 655.57 1424.85 637.7C1416.65 653.05 1407.31 662.7 1401.85 660.47C1396.13 658.13 1396.53 643.39 1402.22 625.47C1386.22 635.91 1371.72 640.32 1367.92 635.34C1363.46 629.48 1375.43 612.83 1394.66 598.16Z" fill="#FFBA5F"/>
<path d="M1247.97 625.04C1234.23 615.94 1223.79 605.7 1219.83 598.15C1217.97 594.62 1217.53 591.68 1218.83 589.72C1219.04 589.411 1219.28 589.128 1219.56 588.88L1219.69 588.78L1219.98 588.56C1220.15 588.432 1220.34 588.318 1220.53 588.22L1220.59 588.14C1225.26 581.14 1237.53 572.14 1253.16 565.01C1275.16 554.91 1295.46 552.16 1298.54 558.86C1301.06 564.36 1291.19 574.52 1275.42 583.56C1292.61 586.28 1304.78 591.94 1304.42 597.81C1304.09 603.99 1290.02 608.44 1271.24 608.93C1286.36 620.68 1295.24 632.88 1291.81 638.11C1287.76 644.24 1268.11 638.4 1247.97 625.04Z" fill="#FFBA5F"/>
<path d="M1503.97 992.92C1513.26 1006.53 1519.07 1019.92 1519.89 1028.44C1520.28 1032.44 1519.58 1035.3 1517.64 1036.62C1517.33 1036.83 1516.99 1037 1516.64 1037.12H1516.47L1516.13 1037.21C1515.92 1037.26 1515.71 1037.29 1515.5 1037.31L1515.41 1037.37C1508.41 1042.07 1493.71 1045.74 1476.52 1046.5C1452.35 1047.56 1432.52 1042.5 1432.18 1035.08C1431.91 1029.08 1444.88 1023.35 1462.9 1020.92C1448.01 1011.92 1438.9 1002.08 1441.38 996.77C1444.02 991.18 1458.72 992.36 1476.31 998.99C1466.73 982.4 1463.09 967.74 1468.31 964.21C1474.33 960.11 1490.32 972.94 1503.97 992.92Z" fill="#FFBA5F"/>
<path d="M1295.04 978.22C1309.84 985.49 1321.49 994.32 1326.39 1001.3C1328.68 1004.56 1329.5 1007.42 1328.46 1009.53C1328.29 1009.86 1328.08 1010.18 1327.84 1010.46L1327.72 1010.58L1327.46 1010.83C1327.3 1010.97 1327.13 1011.11 1326.95 1011.23V1011.32C1323.2 1018.84 1312.18 1029.32 1297.59 1038.41C1277.08 1051.23 1257.27 1056.56 1253.37 1050.31C1250.16 1045.17 1258.66 1033.84 1273.15 1022.85C1255.75 1022.35 1242.95 1018.29 1242.52 1012.42C1242.07 1006.26 1255.45 1000.05 1274.02 997.16C1257.52 987.44 1247.13 976.47 1249.89 970.85C1253.1 964.25 1273.34 967.56 1295.04 978.22Z" fill="#FFBA5F"/>
<path d="M1365.54 861.12C1380.26 853.7 1394.33 849.72 1402.85 850.02C1406.85 850.16 1409.6 851.23 1410.66 853.33C1410.83 853.662 1410.95 854.015 1411.03 854.38C1411.03 854.437 1411.03 854.493 1411.03 854.55C1411.03 854.67 1411.03 854.79 1411.08 854.91C1411.1 855.126 1411.1 855.344 1411.08 855.56C1411.08 855.59 1411.08 855.62 1411.08 855.65C1414.82 863.17 1416.51 878.27 1415 895.4C1412.86 919.5 1405.17 938.51 1397.83 937.86C1391.83 937.32 1387.83 923.71 1387.83 905.53C1376.94 919.1 1365.99 926.86 1361.05 923.67C1355.86 920.32 1358.97 905.9 1367.86 889.35C1350.16 896.65 1335.15 898.35 1332.33 892.73C1329.11 886.17 1343.97 872 1365.54 861.12Z" fill="#FFBA5F"/>
<path d="M1397.29 742.94C1399.75 759.24 1399.14 773.85 1396.2 781.85C1394.83 785.6 1392.94 787.85 1390.62 788.24C1390.25 788.29 1389.88 788.29 1389.51 788.24H1389.34L1388.98 788.17C1388.77 788.129 1388.56 788.068 1388.36 787.99H1388.26C1379.95 789.21 1365.07 786.11 1349.26 779.33C1327.04 769.78 1311.37 756.55 1314.26 749.78C1316.65 744.22 1330.8 744.73 1348.09 750.37C1338.59 735.79 1334.62 722.97 1339.19 719.27C1344 715.38 1356.73 722.83 1369.69 736.44C1368.27 717.34 1371.35 702.55 1377.55 701.62C1384.84 700.56 1393.68 719.02 1397.29 742.94Z" fill="#FFBA5F"/>
</g>
<path d="M1420.17 552.04C1422.01 552.83 1416.73 619.39 1383.71 618.39C1360.14 617.67 1341.01 599.27 1341.01 575.68C1341.01 564.355 1345.51 553.494 1353.52 545.487C1361.52 537.479 1372.39 532.98 1383.71 532.98C1388.71 532.98 1390.58 578.15 1390.58 578.15C1390.58 578.15 1398.64 537.51 1405.38 538.88C1408.23 539.45 1401.81 583.34 1401.81 583.34C1401.81 583.34 1412.62 548.81 1420.17 552.04Z" fill="#3361C2"/>
<path d="M1174.2 621.09L1336.87 527.02" stroke="white" stroke-width="14" stroke-linecap="square"/>
<path d="M1261.26 908.38L1227.15 866.82C1218.65 856.464 1212.87 844.149 1210.33 830.993C1207.79 817.837 1208.58 804.255 1212.62 791.48L1254.91 657.78" stroke="white" stroke-width="3" stroke-linecap="square"/>
<path fill-rule="evenodd" clip-rule="evenodd" d="M462.054 910.463L395.882 916.427C375.799 918.237 360.987 935.984 362.797 956.067L364.469 974.621C366.279 994.704 384.026 1009.52 404.109 1007.71L470.281 1001.74C490.363 999.933 505.176 982.186 503.366 962.103L501.694 943.548C499.884 923.466 482.136 908.653 462.054 910.463Z" stroke="#274992" stroke-width="20"/>
<path fill-rule="evenodd" clip-rule="evenodd" d="M638.178 894.588L572.006 900.552C551.924 902.362 537.111 920.109 538.921 940.192L540.593 958.746C542.403 978.829 560.15 993.642 580.233 991.832L646.405 985.868C666.487 984.058 681.3 966.31 679.49 946.228L677.818 927.673C676.008 907.591 658.26 892.778 638.178 894.588Z" stroke="#274992" stroke-width="20"/>
<path d="M796.54 830.26C796.54 830.26 805.37 890.56 674.03 902.37" stroke="#52A36F" stroke-width="20"/>
<path d="M791.41 773.26L795.69 820.76" stroke="#52A36F" stroke-width="15" stroke-linecap="round"/>
<path d="M301.308 897.627L549.681 875.242L555.869 943.903L307.496 966.288C302.988 966.695 298.444 966.209 294.123 964.859C289.802 963.509 285.79 961.322 282.314 958.421C278.839 955.52 275.969 951.964 273.869 947.954C271.768 943.944 270.478 939.56 270.071 935.052C269.251 925.947 272.081 916.889 277.939 909.87C283.797 902.851 292.203 898.447 301.308 897.627Z" fill="#274992"/>
<path d="M709.802 864.842L476.842 885.809C457.805 887.522 443.761 904.344 445.474 923.381C447.188 942.418 464.009 956.462 483.047 954.749L716.007 933.782C735.044 932.069 749.088 915.247 747.374 896.21C745.661 877.173 728.839 863.129 709.802 864.842Z" fill="#52A36F"/>
<path d="M693.39 862.06L479.16 881.37L422.03 722.41L405.53 676.52L351.65 526.59L351.46 526.07L584.5 505.07L630.61 656.24L644.67 702.35L693.39 862.06Z" fill="#FFBA5F"/>
<path d="M479.74 881.85L312.78 896.9L252.78 737.67L235.51 691.85L179.1 542.14L352.04 526.55L405.93 676.49L422.42 722.38L479.55 881.34L479.74 881.85Z" fill="#EF6E45"/>
<path d="M339.99 415.46L258.34 422.81L213.66 326.4L307.1 317.98L339.99 415.46Z" fill="#EF6E45"/>
<path d="M463.74 404.31L339.46 415.51L306.57 318.03L432.46 306.68L463.74 404.31Z" fill="#FFBA5F"/>
<path d="M429.26 407.41L424.8 519.99L319.77 529.46L307.81 418.36L429.26 407.41Z" fill="#EF6E45"/>
<path d="M661.81 385.93L639.3 500.13L424.23 519.51L428.69 406.94L661.81 385.93Z" fill="#FFBA5F"/>
<path fill-rule="evenodd" clip-rule="evenodd" d="M482.07 468.31C491.409 468.31 498.98 460.739 498.98 451.4C498.98 442.061 491.409 434.49 482.07 434.49C472.731 434.49 465.16 442.061 465.16 451.4C465.16 460.739 472.731 468.31 482.07 468.31Z" stroke="white" stroke-width="4" stroke-linecap="square"/>
<path d="M481.255 422.512L448.07 425.502L450.933 457.274L484.119 454.283L481.255 422.512Z" fill="white"/>
<path d="M523.08 423.62L584.99 418.04" stroke="white" stroke-width="4" stroke-linecap="square"/>
<path d="M519.03 436.1L580.94 430.52" stroke="white" stroke-width="4" stroke-linecap="square"/>
<path d="M329.87 332.57L391.78 326.99" stroke="white" stroke-width="4" stroke-linecap="square"/>
<path d="M336.94 344.04L398.85 338.46" stroke="white" stroke-width="4" stroke-linecap="square"/>
<path d="M514.13 448.65L551.13 445.31" stroke="white" stroke-width="4" stroke-linecap="square"/>
<path fill-rule="evenodd" clip-rule="evenodd" d="M406.53 579.83C415.869 579.83 423.44 572.259 423.44 562.92C423.44 553.581 415.869 546.01 406.53 546.01C397.191 546.01 389.62 553.581 389.62 562.92C389.62 572.259 397.191 579.83 406.53 579.83Z" stroke="white" stroke-width="4" stroke-linecap="square"/>
<path d="M438.42 546.56C444.6 546 445.32 553.96 451.51 553.4C457.7 552.84 456.98 544.88 463.17 544.32C469.36 543.76 470.08 551.73 476.27 551.17C482.46 550.61 481.75 542.65 487.94 542.09C494.13 541.53 494.85 549.5 501.04 548.94" stroke="white" stroke-width="4" stroke-linecap="square"/>
<path d="M448.64 565.561C454.83 565.011 455.55 572.971 461.74 572.411C467.93 571.851 467.21 563.891 473.4 563.331C479.59 562.771 480.31 570.741 486.49 570.181C492.67 569.621 491.97 561.661 498.16 561.101C504.35 560.541 505.07 568.501 511.27 567.941" stroke="white" stroke-width="4" stroke-linecap="square"/>
<path d="M422.03 722.41V722.42L252.78 737.67L235.51 691.85L405.53 676.53L422.03 722.41Z" fill="#EF977F"/>
<path d="M644.67 702.35L422.42 722.38L405.93 676.49L630.61 656.24L644.67 702.35Z" fill="#FFD097"/>
<path opacity="0.26" d="M422.03 722.42V722.41L405.53 676.53L405.93 676.49L422.42 722.38L422.03 722.42Z" fill="white"/>
<path d="M383.309 411.555L342.793 415.207L347.425 466.599L387.941 462.947L383.309 411.555Z" fill="#EF977F"/>
<path d="M644.843 790.116L554.808 798.23C516.815 801.654 488.792 835.229 492.217 873.221C495.641 911.214 529.215 939.237 567.208 935.813L657.243 927.698C695.235 924.274 723.258 890.699 719.834 852.707C716.41 814.714 682.835 786.691 644.843 790.116Z" fill="#52A36F"/>
<path d="M657.553 798.016L567.488 806.133C539.353 808.669 518.601 833.533 521.136 861.668L521.137 861.678C523.673 889.814 548.537 910.566 576.672 908.03L666.737 899.913C694.872 897.377 715.625 872.514 713.089 844.378L713.088 844.368C710.553 816.233 685.689 795.48 657.553 798.016Z" fill="#24272D"/>
<path d="M612.53 841.24C612.53 841.24 618.53 853.56 630.68 851.96" stroke="white" stroke-width="4"/>
<path d="M632.63 815.44L633.84 828.94" stroke="white" stroke-width="11" stroke-linecap="round"/>
<path d="M650.58 813.82L651.8 827.33" stroke="white" stroke-width="11" stroke-linecap="round"/>
<path d="M189.97 884.93C189.97 884.93 191.97 945.82 326.97 933.65" stroke="#274992" stroke-width="20"/>
<path d="M171.218 877.075L206.983 873.852L211.506 924.038C211.935 928.793 210.457 933.523 207.398 937.188C204.339 940.853 199.949 943.153 195.195 943.581C190.44 944.01 185.71 942.532 182.045 939.473C178.38 936.414 176.08 932.024 175.652 927.27L171.128 877.083L171.218 877.075Z" fill="#274992"/>
<path d="M183.38 828.1L187.65 875.52" stroke="#274992" stroke-width="15" stroke-linecap="round"/>
<path d="M777.812 822.405L813.577 819.182L818.1 869.368C818.529 874.123 817.051 878.853 813.992 882.518C810.933 886.183 806.543 888.483 801.788 888.911C797.034 889.34 792.304 887.862 788.639 884.803C784.974 881.744 782.674 877.354 782.245 872.6L777.722 822.413L777.812 822.405Z" fill="#319374"/>
<path d="M831.89 781.39L758.08 788.04L752.31 780.43L826.12 773.78L831.89 781.39Z" fill="#319374"/>
<path d="M342.05 871.23C342.05 871.23 344.14 932.1 475.48 920.23" stroke="#52A36F" stroke-width="20"/>
<path d="M336.91 814.22L341.19 861.72" stroke="#52A36F" stroke-width="15" stroke-linecap="round"/>
<path d="M347.319 929.824C342.564 930.252 337.834 928.775 334.169 925.716C330.504 922.657 328.204 918.267 327.776 913.512L323.253 863.326L359.068 860.098L363.596 910.344C364.007 915.083 362.526 919.792 359.476 923.442C356.426 927.092 352.055 929.386 347.319 929.824Z" fill="#319374"/>
<path d="M298.53 829.46L372.34 822.81L376.66 814.28L302.85 820.94L298.53 829.46Z" fill="#319374"/>
<path d="M223.86 836.19L150.04 842.84L144.28 835.23L218.09 828.58L223.86 836.19Z" fill="#274992"/>
<path d="M199.6 822.14L224.86 819.86" stroke="#24272D" stroke-width="3"/>
<path d="M169.02 849.14L144.01 851.39" stroke="#24272D" stroke-width="3"/>
<path d="M806.36 766.88L831.61 764.61" stroke="#24272D" stroke-width="3"/>
<path d="M775.78 793.88L750.77 796.14" stroke="#24272D" stroke-width="3"/>
<path d="M584.5 505.07L359.66 548.87L351.65 526.59L584.5 505.07Z" fill="#EF6E45"/>
</svg>
