<svg width="1691" height="1037" viewBox="0 0 1691 1037" fill="none" xmlns="http://www.w3.org/2000/svg">
<path d="M1690.45 456.2H1006.73C1006.73 456.2 1007.25 322.7 1092.61 322.7C1177.04 322.7 1208.68 414.32 1258.61 414.32C1308.54 414.32 1299.75 268.82 1387.44 268.82C1454.82 268.82 1512.66 387.01 1613.66 421.24C1678.53 443.25 1690.45 456.2 1690.45 456.2Z" fill="#F2F6F9"/>
<path d="M95.7402 166.8H763.05C763.05 166.8 730.14 66.24 661.45 66.24C610.01 66.24 597.6 109.82 548.22 109.82C498.84 109.82 465.76 0 391.09 0C312.53 0 273.77 125.63 202.91 139.4C115.91 156.29 95.7402 166.8 95.7402 166.8Z" fill="#F2F6F9"/>
<path d="M693.71 1036.35H1556.26C1556.26 1036.35 1513.72 915.21 1424.93 915.21C1358.44 915.21 1342.4 967.7 1278.57 967.7C1214.74 967.7 1171.98 835.4 1075.47 835.4C973.92 835.4 923.83 986.75 832.23 1003.33C719.78 1023.68 693.71 1036.35 693.71 1036.35Z" fill="#F2F6F9"/>
<path d="M722 861.66H0C0 861.66 23.61 750.97 91 750.97C149.15 750.97 198.35 816.97 247.38 816.97C296.41 816.97 320.87 670.79 416.64 670.79C505.73 670.79 577.27 824.2 647.07 837.74C707.24 849.41 722 861.66 722 861.66Z" fill="#F2F6F9"/>
<path d="M1514.51 684.69L1485.51 692.41C1484.25 714.932 1475.74 736.442 1461.24 753.724C1446.74 771.006 1427.04 783.132 1405.08 788.289C1383.12 793.447 1360.08 791.359 1339.41 782.338C1318.73 773.317 1301.53 757.847 1290.38 738.24L1285.91 735.43C1269.84 725.334 1258.44 709.268 1254.21 690.766C1249.99 672.264 1253.28 652.841 1263.38 636.77C1265.21 633.859 1268.12 631.792 1271.48 631.024C1274.83 630.255 1278.35 630.847 1281.27 632.67L1302.67 646.12C1306.61 636.481 1312.61 627.82 1320.25 620.74C1322.77 618.404 1326.12 617.164 1329.56 617.291C1333 617.419 1336.24 618.903 1338.59 621.42L1399.04 686.53H1417.76C1417.83 678.434 1420.79 670.628 1426.1 664.518C1431.41 658.409 1438.73 654.395 1446.74 653.201C1454.75 652.006 1462.92 653.708 1469.79 658.002C1476.65 662.295 1481.76 668.897 1484.19 676.62L1485.07 676.85L1514.51 684.69Z" fill="#F2F6F9"/>
<path d="M194.79 400.01L173.69 405.63C172.796 422.033 166.612 437.704 156.063 450.297C145.515 462.89 131.171 471.726 115.179 475.482C99.187 479.238 82.4087 477.711 67.3573 471.13C52.306 464.55 39.7919 453.27 31.6898 438.98L28.4398 436.98C16.7418 429.633 8.44133 417.94 5.36392 404.473C2.28652 391.007 4.68425 376.869 12.0298 365.17C13.3605 363.054 15.4749 361.55 17.9109 360.988C20.3468 360.426 22.9062 360.851 25.0298 362.17L40.5998 371.96C43.4692 364.944 47.8379 358.64 53.3997 353.49C54.3081 352.645 55.3742 351.987 56.537 351.554C57.6997 351.121 58.9364 350.922 60.1763 350.968C61.4162 351.013 62.635 351.303 63.7629 351.819C64.8908 352.336 65.9058 353.071 66.7498 353.98L110.75 401.37H124.38C124.383 395.451 126.512 389.73 130.378 385.247C134.244 380.765 139.59 377.819 145.445 376.946C151.299 376.073 157.272 377.33 162.278 380.489C167.284 383.648 170.989 388.5 172.72 394.16L173.37 394.33L194.79 400.01Z" fill="#F2F6F9"/>
<path d="M1221.07 163.54L1203.91 168.08C1203.16 181.4 1198.12 194.12 1189.54 204.339C1180.96 214.558 1169.31 221.728 1156.32 224.778C1143.33 227.828 1129.71 226.594 1117.48 221.262C1105.25 215.929 1095.07 206.783 1088.47 195.19L1085.82 193.53C1076.31 187.558 1069.56 178.053 1067.06 167.105C1064.55 156.156 1066.5 144.662 1072.47 135.15C1073.55 133.425 1075.28 132.2 1077.26 131.745C1079.25 131.289 1081.33 131.64 1083.06 132.72L1095.73 140.72C1098.06 135.022 1101.61 129.902 1106.13 125.72C1107.62 124.335 1109.6 123.599 1111.64 123.674C1113.67 123.749 1115.59 124.629 1116.98 126.12L1152.76 164.66H1163.83C1163.83 159.842 1165.55 155.183 1168.69 151.532C1171.84 147.88 1176.19 145.48 1180.95 144.768C1185.72 144.057 1190.58 145.081 1194.65 147.655C1198.73 150.229 1201.74 154.181 1203.14 158.79L1203.66 158.93L1221.07 163.54Z" fill="#F2F6F9"/>
<path d="M601.649 229.755L828.024 473.62C855.162 502.854 869.575 541.671 868.092 581.532C866.61 621.393 849.353 659.033 820.119 686.17C790.885 713.308 752.067 727.721 712.206 726.238C672.345 724.756 634.706 707.499 607.568 678.265L523.009 587.173C500.26 562.666 482.561 533.919 470.922 502.572C459.283 471.225 453.933 437.892 455.176 404.477C456.42 371.062 464.233 338.219 478.169 307.824C492.105 277.429 511.892 250.076 536.4 227.328C545.375 219 557.291 214.577 569.527 215.032C581.763 215.487 593.317 220.783 601.649 229.755Z" fill="#FFC774"/>
<mask id="mask0" mask-type="alpha" maskUnits="userSpaceOnUse" x="454" y="214" width="415" height="513">
<path fill-rule="evenodd" clip-rule="evenodd" d="M601.646 229.552L828.021 473.416C855.159 502.651 869.572 541.468 868.089 581.329C866.606 621.19 849.35 658.83 820.116 685.967C790.881 713.105 752.064 727.518 712.203 726.035C672.342 724.553 634.703 707.296 607.565 678.062L523.006 586.97C500.257 562.463 482.557 533.716 470.918 502.368C459.28 471.021 453.929 437.689 455.173 404.274C456.416 370.859 464.229 338.016 478.166 307.621C492.102 277.226 511.889 249.873 536.396 227.125C545.372 218.797 557.288 214.374 569.523 214.829C581.759 215.284 593.313 220.58 601.646 229.552Z" fill="white"/>
</mask>
<g mask="url(#mask0)">
<path d="M932.87 509.5L855.26 553.2" stroke="#FFA161" stroke-width="31" stroke-linecap="round"/>
<path d="M594.91 646.59L633.51 715.15" stroke="#FFA161" stroke-width="31" stroke-linecap="round"/>
<path d="M781.86 547.58L820.46 616.14" stroke="#FFA161" stroke-width="31" stroke-linecap="round"/>
<path d="M822.12 403.57L860.72 472.13" stroke="#FFA161" stroke-width="31" stroke-linecap="round"/>
<path d="M677.631 581.17L633.931 503.55" stroke="#FFA161" stroke-width="31" stroke-linecap="round"/>
<path d="M778.95 766.9L735.25 689.28" stroke="#FFA161" stroke-width="31" stroke-linecap="round"/>
<path d="M599.281 574.17L530.721 612.77" stroke="#FFA161" stroke-width="31" stroke-linecap="round"/>
<path d="M894.81 660.95L826.24 699.55" stroke="#FFA161" stroke-width="31" stroke-linecap="round"/>
<path d="M743.38 618.61L674.82 657.21" stroke="#FFA161" stroke-width="31" stroke-linecap="round"/>
<path d="M783.56 470.42L715 509.02" stroke="#FFA161" stroke-width="31" stroke-linecap="round"/>
<path d="M685.891 281.63L608.271 325.32" stroke="#FFA161" stroke-width="31" stroke-linecap="round"/>
<path d="M678.891 359.97L717.491 428.54" stroke="#FFA161" stroke-width="31" stroke-linecap="round"/>
<path d="M534.87 319.71L573.47 388.27" stroke="#FFA161" stroke-width="31" stroke-linecap="round"/>
<path d="M575.141 175.69L613.741 244.25" stroke="#FFA161" stroke-width="31" stroke-linecap="round"/>
<path d="M531.961 539.03L488.271 461.41" stroke="#FFA161" stroke-width="31" stroke-linecap="round"/>
<path d="M647.82 433.08L579.26 471.68" stroke="#FFA161" stroke-width="31" stroke-linecap="round"/>
<path d="M496.4 390.74L427.84 429.34" stroke="#FFA161" stroke-width="31" stroke-linecap="round"/>
<path d="M536.581 242.55L468.021 281.15" stroke="#FFA161" stroke-width="31" stroke-linecap="round"/>
</g>
<path d="M337.61 405.53L287.63 602.72L605.98 613.45L616.6 571.58L337.61 405.53Z" fill="#3361C2"/>
<path d="M901.12 935.88L771.65 916.01L789.11 869.24L841.22 881.33L901.12 935.88Z" fill="#24272D"/>
<path d="M1032.42 898.14L902.96 878.28L920.42 831.51L972.52 843.6L1032.42 898.14Z" fill="#24272D"/>
<path d="M743.68 416.08L856.8 387.02L999.98 561.43C1008.72 572.205 1015.2 584.622 1019.06 597.947C1022.92 611.272 1024.06 625.235 1022.43 639.01L997.05 847.53L904.27 846.53L932.15 628.63L794.93 532.63C769.79 510.63 753.13 479.69 748.06 445.63L743.68 416.08Z" fill="#EA6F57"/>
<path d="M749.38 216.74C787.76 198.19 850.71 196.74 878.38 203.28C906.05 209.82 934.17 320.38 934.17 320.38L997.54 410.38L935.47 450.26L861.28 343.85L890.74 317.54C890.74 317.54 863.82 359.19 856.91 389.48H728.97C728.97 389.48 737.09 329.48 739.36 295.16" fill="#24272D"/>
<path d="M1004.19 587.02C1070.9 587.02 1124.98 532.94 1124.98 466.23C1124.98 399.519 1070.9 345.44 1004.19 345.44C937.48 345.44 883.4 399.519 883.4 466.23C883.4 532.94 937.48 587.02 1004.19 587.02Z" fill="#3361C2"/>
<path d="M1124.98 466.23C1124.98 671.51 958.57 837.93 753.29 837.93C548.01 837.93 381.59 671.51 381.59 466.23" fill="#3361C2"/>
<path d="M880.001 252.54L898.761 298.84L878.891 349.58" stroke="white" stroke-width="3"/>
<path d="M729.51 389.25H845.94L945.94 594.47C952.01 607.004 955.526 620.621 956.283 634.527C957.04 648.433 955.023 662.351 950.35 675.47L876.43 882.64H771.84L838.29 635.96L753.21 515.22C733.6 487.149 724.389 453.12 727.16 418.99L729.51 389.25Z" fill="#EA6F57"/>
<path d="M920.31 413.68H928.73C932.164 413.609 935.595 413.969 938.94 414.75C945.18 416.08 947.47 420.61 957.94 421.12C969.77 421.71 961.27 432 955.57 433.12C951.12 433.96 945.76 431.75 942.17 434.51C943.17 437.11 943.36 442.82 956.67 454.06C964.29 460.49 977.67 462.26 974.67 478.18C970.5 490.35 951.53 491.07 946.31 488.93C931.06 482.68 919 469.93 912.71 459.58C909.853 454.599 907.389 449.403 905.34 444.04" fill="#EA6F57"/>
<path d="M895.281 361.52L951.38 403.93L896.45 462.6L768.38 375.13C768.38 375.13 724.38 269.08 754.87 239.28" fill="#24272D"/>
<path d="M892.61 141.33C913.393 141.33 930.24 119.813 930.24 93.27C930.24 66.7272 913.393 45.21 892.61 45.21C871.828 45.21 854.98 66.7272 854.98 93.27C854.98 119.813 871.828 141.33 892.61 141.33Z" fill="#24272D"/>
<path d="M835.81 226.45C841.408 226.447 846.852 224.618 851.316 221.239C855.779 217.86 859.018 213.117 860.54 207.73L884.43 123.43C885.451 120.151 885.805 116.701 885.471 113.283C885.137 109.865 884.122 106.549 882.486 103.53C880.85 100.51 878.625 97.8489 875.944 95.7031C873.263 93.5572 870.18 91.97 866.875 91.035C863.571 90.1001 860.113 89.8363 856.705 90.2593C853.297 90.6823 850.008 91.7835 847.032 93.4979C844.057 95.2124 841.455 97.5054 839.38 100.242C837.304 102.978 835.798 106.102 834.95 109.43L811.06 193.74C809.979 197.566 809.798 201.591 810.534 205.499C811.269 209.406 812.899 213.09 815.297 216.262C817.694 219.434 820.794 222.007 824.353 223.78C827.913 225.553 831.834 226.477 835.81 226.48V226.45Z" fill="#EA6F57"/>
<path d="M859.31 189.01L863.8 190.26C869.024 191.703 874.502 191.977 879.844 191.063C885.186 190.148 890.261 188.068 894.708 184.97C899.155 181.872 902.865 177.833 905.573 173.138C908.282 168.444 909.923 163.21 910.38 157.81L912.65 131.05C913.381 122.415 911.048 113.799 906.062 106.712C901.076 99.6248 893.754 94.5191 885.38 92.2902C875.923 89.7867 865.86 91.1414 857.403 96.0566C848.945 100.971 842.786 109.044 840.28 118.5L833.52 144.02C831.034 153.404 832.348 163.389 837.176 171.811C842.003 180.233 849.956 186.413 859.31 189.01Z" fill="#EA6F57"/>
<path d="M894.62 134.13L900.98 157.7L891.68 157.87" stroke="#25282D" stroke-width="3"/>
<path d="M883.401 143.29C885.891 143.29 887.911 141.271 887.911 138.78C887.911 136.289 885.891 134.27 883.401 134.27C880.91 134.27 878.891 136.289 878.891 138.78C878.891 141.271 880.91 143.29 883.401 143.29Z" fill="#24272D"/>
<path d="M905.09 143.29C907.581 143.29 909.6 141.271 909.6 138.78C909.6 136.289 907.581 134.27 905.09 134.27C902.599 134.27 900.58 136.289 900.58 138.78C900.58 141.271 902.599 143.29 905.09 143.29Z" fill="#24272D"/>
<path d="M882.11 166.8C882.11 166.8 876.57 166.49 874.29 161.68" stroke="#25282D" stroke-width="3"/>
<path d="M673.63 162.88C668.63 221.3 718.05 202.31 718.05 202.31C718.05 202.31 686.48 266.43 757.13 261.08C827.78 255.73 847.06 205.54 844.33 176.84C843.24 165.4 837.33 156.54 830.56 147.99C869.28 142.04 868.69 115.48 868.69 115.48C868.69 115.48 930.77 139.6 930.27 92.0301C929.77 44.4601 880.8 29.2101 851.86 29.7101C845.764 29.8375 839.722 30.886 833.94 32.8201C815.31 38.8801 800.88 48.7601 776.16 49.1501C707.86 50.2301 701.3 114.73 701.3 114.73C701.3 114.73 676.99 123.34 673.63 162.88Z" fill="#24272D"/>
<path d="M850.598 156.346L850.608 156.342C859.061 152.778 863.024 143.037 859.46 134.584L853.59 120.66C850.027 112.207 840.285 108.244 831.832 111.808L831.823 111.812C823.37 115.375 819.407 125.117 822.97 133.57L828.84 147.493C832.404 155.946 842.146 159.909 850.598 156.346Z" fill="#EA6F57"/>
<path d="M835.6 122.3L843.94 142.04" stroke="#25282D" stroke-width="3"/>
<path d="M1227.57 459.67L1122.88 487.55L1106.88 491.8C1102.66 491.802 1098.48 490.973 1094.58 489.359C1090.68 487.745 1087.14 485.379 1084.16 482.394C1081.17 479.41 1078.81 475.867 1077.2 471.968C1075.58 468.069 1074.76 463.89 1074.76 459.67H1227.57Z" fill="#FFC774"/>
<path d="M1020.13 427.54C1027.53 427.54 1033.52 421.545 1033.52 414.15C1033.52 406.755 1027.53 400.76 1020.13 400.76C1012.74 400.76 1006.74 406.755 1006.74 414.15C1006.74 421.545 1012.74 427.54 1020.13 427.54Z" fill="#FFC774"/>
<path d="M1202.62 404.109L1074.12 505.772L1139.37 588.242L1267.87 486.579L1202.62 404.109Z" fill="#EA6F57"/>
<path d="M1088.95 509.49L1174.75 500.91L1202.92 419.32" stroke="white" stroke-width="3"/>
<path d="M1153.69 514.91L1141.31 568" stroke="white" stroke-width="3"/>
<path d="M1193.82 483.16L1248.33 483.32" stroke="white" stroke-width="3"/>
<path d="M1227.57 459.67H1074.77C1074.77 455.45 1075.59 451.27 1077.2 447.37C1078.82 443.471 1081.18 439.927 1084.17 436.943C1087.15 433.958 1090.69 431.591 1094.59 429.978C1098.49 428.365 1102.67 427.536 1106.89 427.54L1122.89 431.8L1227.57 459.67Z" fill="#FFC774"/>
<path d="M919.67 379.95L839.77 320.44L820.72 265.45" stroke="white" stroke-width="3"/>
<path d="M788.87 389.14C788.87 389.14 768.54 377.28 763.28 361.78C758.02 346.28 737.28 278.39 737.28 278.39" stroke="white" stroke-width="3"/>
<path d="M849.44 615.48L838.29 635.94L849.44 650.11" stroke="white" stroke-width="3"/>
<path d="M397.762 273.91L679.583 450.902C713.362 472.116 737.331 505.881 746.215 544.767C755.1 583.654 748.173 624.477 726.959 658.256C705.745 692.036 671.98 716.004 633.094 724.889C594.207 733.774 553.384 726.847 519.605 705.632L414.325 639.514C386.005 621.73 361.466 598.542 342.109 571.273C322.752 544.005 308.956 513.19 301.509 480.589C294.061 447.989 293.109 414.24 298.706 381.271C304.302 348.303 316.338 316.759 334.127 288.442C340.643 278.082 351.005 270.732 362.937 268.007C374.869 265.282 387.394 267.405 397.762 273.91Z" fill="#FFC774"/>
<mask id="mask1" mask-type="alpha" maskUnits="userSpaceOnUse" x="295" y="265" width="455" height="463">
<path fill-rule="evenodd" clip-rule="evenodd" d="M397.762 272.91L679.583 449.902C713.363 471.116 737.331 504.881 746.216 543.767C755.101 582.654 748.174 623.477 726.959 657.256C705.745 691.036 671.981 715.004 633.094 723.889C594.208 732.774 553.385 725.847 519.605 704.632L414.326 638.514C386.006 620.73 361.467 597.542 342.11 570.273C322.752 543.005 308.956 512.19 301.509 479.589C294.062 446.989 293.109 413.24 298.706 380.271C304.303 347.303 316.339 315.759 334.127 287.442C340.643 277.082 351.006 269.732 362.937 267.007C374.869 264.282 387.395 266.405 397.762 272.91Z" fill="white"/>
</mask>
<g mask="url(#mask1)">
<path d="M790.711 449.16L727.73 512.14" stroke="#FFA161" stroke-width="31" stroke-linecap="round"/>
<path d="M502.14 672.19L557.78 727.82" stroke="#FFA161" stroke-width="31" stroke-linecap="round"/>
<path d="M655.53 526.49L711.16 582.13" stroke="#FFA161" stroke-width="31" stroke-linecap="round"/>
<path d="M655.53 376.96L711.16 432.59" stroke="#FFA161" stroke-width="31" stroke-linecap="round"/>
<path d="M564.19 586.91L501.21 523.93" stroke="#FFA161" stroke-width="31" stroke-linecap="round"/>
<path d="M711.78 738.5L648.8 675.51" stroke="#FFA161" stroke-width="31" stroke-linecap="round"/>
<path d="M486.86 601.26L431.22 656.9" stroke="#FFA161" stroke-width="31" stroke-linecap="round"/>
<path d="M794.83 605.26L739.2 660.9" stroke="#FFA161" stroke-width="31" stroke-linecap="round"/>
<path d="M637.6 605.26L581.97 660.9" stroke="#FFA161" stroke-width="31" stroke-linecap="round"/>
<path d="M636.39 451.73L580.76 507.36" stroke="#FFA161" stroke-width="31" stroke-linecap="round"/>
<path d="M491.49 296.2L428.51 359.19" stroke="#FFA161" stroke-width="31" stroke-linecap="round"/>
<path d="M505.85 373.54L561.48 429.18" stroke="#FFA161" stroke-width="31" stroke-linecap="round"/>
<path d="M356.31 373.54L411.94 429.18" stroke="#FFA161" stroke-width="31" stroke-linecap="round"/>
<path d="M356.31 224L411.94 279.64" stroke="#FFA161" stroke-width="31" stroke-linecap="round"/>
<path d="M412.56 585.54L349.58 522.56" stroke="#FFA161" stroke-width="31" stroke-linecap="round"/>
<path d="M495.61 452.31L439.98 507.95" stroke="#FFA161" stroke-width="31" stroke-linecap="round"/>
<path d="M338.38 452.31L282.75 507.95" stroke="#FFA161" stroke-width="31" stroke-linecap="round"/>
<path d="M337.17 298.77L281.54 354.41" stroke="#FFA161" stroke-width="31" stroke-linecap="round"/>
</g>
<path d="M472.96 320.34L682.23 452C682.23 452 705.72 468.6 716.53 485.47" stroke="white" stroke-width="3"/>
</svg>
