<svg width="1753" height="1093" viewBox="0 0 1753 1093" fill="none" xmlns="http://www.w3.org/2000/svg">
<path d="M923.67 414.02C1012.65 414.02 1084.78 341.889 1084.78 252.91C1084.78 163.931 1012.65 91.7998 923.67 91.7998C834.691 91.7998 762.56 163.931 762.56 252.91C762.56 341.889 834.691 414.02 923.67 414.02Z" fill="#E9EEF2"/>
<path d="M1136.58 876.19H710.75L872.21 240.11H975.12L1136.58 876.19Z" fill="#E9EEF2"/>
<path d="M1401.44 238.37V456.21H1249.21V293.54L1304.39 238.37H1401.44Z" fill="#E9EEF2"/>
<path d="M1304.39 238.37V293.54H1249.21L1304.39 238.37Z" fill="#DCE2E5"/>
<path d="M1325.33 351.29C1335.9 351.29 1344.46 342.725 1344.46 332.16C1344.46 321.595 1335.9 313.03 1325.33 313.03C1314.76 313.03 1306.2 321.595 1306.2 332.16C1306.2 342.725 1314.76 351.29 1325.33 351.29Z" fill="#DCE2E5"/>
<path d="M1350.61 406.16H1300.05L1319.22 330.64H1331.44L1350.61 406.16Z" fill="#DCE2E5"/>
<path d="M1366.56 273.09V490.93H1214.33V328.26L1269.51 273.09H1366.56Z" fill="#E9EEF2"/>
<path d="M1269.51 273.09V328.26H1214.33L1269.51 273.09Z" fill="#DCE2E5"/>
<path d="M1290.44 386.01C1301.01 386.01 1309.57 377.445 1309.57 366.88C1309.57 356.315 1301.01 347.75 1290.44 347.75C1279.87 347.75 1271.31 356.315 1271.31 366.88C1271.31 377.445 1279.87 386.01 1290.44 386.01Z" fill="#DCE2E5"/>
<path d="M1315.72 440.88H1265.16L1284.33 365.36H1296.55L1315.72 440.88Z" fill="#DCE2E5"/>
<path d="M551.57 489.85H551.58C562.024 489.85 570.49 481.384 570.49 470.94V288.23C570.49 277.786 562.024 269.32 551.58 269.32H551.57C541.127 269.32 532.66 277.786 532.66 288.23V470.94C532.66 481.384 541.127 489.85 551.57 489.85Z" fill="#DCE2E5"/>
<path d="M497.31 432.66C489.805 432.66 483.72 438.744 483.72 446.25C483.72 453.756 489.805 459.84 497.31 459.84H549.42C556.926 459.84 563.01 453.756 563.01 446.25C563.01 438.744 556.926 432.66 549.42 432.66H497.31Z" fill="#DCE2E5"/>
<path d="M518.24 393.43C510.734 393.43 504.65 399.514 504.65 407.02C504.65 414.526 510.734 420.61 518.24 420.61H554.44C561.945 420.61 568.03 414.526 568.03 407.02C568.03 399.514 561.945 393.43 554.44 393.43H518.24Z" fill="#DCE2E5"/>
<path fill-rule="evenodd" clip-rule="evenodd" d="M512.08 170.899C523.769 163.089 537.512 158.92 551.57 158.92C570.422 158.92 588.501 166.409 601.831 179.739C615.161 193.069 622.65 211.148 622.65 230C622.65 244.058 618.481 257.801 610.671 269.49C602.861 281.179 591.76 290.289 578.771 295.669C565.783 301.049 551.491 302.457 537.703 299.714C523.915 296.972 511.25 290.202 501.309 280.261C491.368 270.32 484.599 257.655 481.856 243.867C479.113 230.079 480.521 215.787 485.901 202.799C491.281 189.811 500.391 178.709 512.08 170.899ZM573.285 197.501C566.857 193.208 559.3 190.918 551.57 190.92C541.211 190.933 531.279 195.055 523.955 202.381C516.63 209.708 512.511 219.64 512.5 230C512.5 237.73 514.793 245.286 519.087 251.713C523.382 258.14 529.486 263.149 536.627 266.106C543.769 269.064 551.627 269.837 559.208 268.328C566.789 266.82 573.752 263.097 579.217 257.63C584.683 252.164 588.404 245.199 589.911 237.618C591.417 230.037 590.642 222.179 587.683 215.038C584.723 207.897 579.713 201.794 573.285 197.501Z" fill="#DCE2E5"/>
<path d="M1478.24 124.45C1487.25 124.45 1494.56 117.143 1494.56 108.13C1494.56 99.1163 1487.25 91.8096 1478.24 91.8096H1320.58C1311.57 91.8096 1304.26 99.1163 1304.26 108.13C1304.26 117.143 1311.57 124.45 1320.58 124.45H1478.24Z" fill="#E9EEF2"/>
<path d="M1445.22 154.95C1445.22 161.428 1450.47 166.68 1456.94 166.68C1463.42 166.68 1468.67 161.428 1468.67 154.95V109.99C1468.67 103.512 1463.42 98.2598 1456.94 98.2598C1450.47 98.2598 1445.22 103.512 1445.22 109.99V154.95Z" fill="#E9EEF2"/>
<path d="M1411.36 136.9C1411.36 143.378 1416.61 148.63 1423.09 148.63C1429.56 148.63 1434.81 143.378 1434.81 136.9V105.67C1434.81 99.1921 1429.56 93.9404 1423.09 93.9404C1416.61 93.9404 1411.36 99.1921 1411.36 105.67V136.9Z" fill="#E9EEF2"/>
<path fill-rule="evenodd" clip-rule="evenodd" d="M1236.29 57.1308C1246.37 50.3906 1258.23 46.792 1270.36 46.79C1278.41 46.7887 1286.39 48.374 1293.83 51.4556C1301.28 54.5371 1308.04 59.0544 1313.73 64.7496C1319.43 70.4447 1323.95 77.2062 1327.03 84.6477C1330.11 92.0893 1331.7 100.065 1331.7 108.12C1331.7 120.249 1328.1 132.107 1321.36 142.192C1314.63 152.278 1305.05 160.138 1293.84 164.781C1282.64 169.423 1270.31 170.638 1258.41 168.272C1246.51 165.907 1235.58 160.067 1227.01 151.49C1218.43 142.914 1212.59 131.987 1210.22 120.091C1207.85 108.195 1209.07 95.8637 1213.71 84.6569C1218.35 73.4502 1226.21 63.871 1236.29 57.1308ZM1286.66 83.733C1281.83 80.5102 1276.16 78.79 1270.36 78.79C1262.58 78.8006 1255.13 81.8941 1249.63 87.3922C1244.13 92.8904 1241.04 100.344 1241.03 108.12C1241.03 113.921 1242.75 119.592 1245.97 124.415C1249.2 129.238 1253.78 132.997 1259.14 135.217C1264.5 137.437 1270.39 138.018 1276.08 136.886C1281.77 135.755 1287 132.961 1291.1 128.859C1295.2 124.758 1297.99 119.531 1299.13 113.842C1300.26 108.153 1299.68 102.255 1297.46 96.8959C1295.24 91.5365 1291.48 86.9558 1286.66 83.733Z" fill="#E9EEF2"/>
<path d="M199.13 684.29C230.401 684.29 255.75 658.94 255.75 627.67C255.75 596.4 230.401 571.05 199.13 571.05C167.86 571.05 142.51 596.4 142.51 627.67C142.51 658.94 167.86 684.29 199.13 684.29Z" fill="#DCE2E5"/>
<path d="M155.06 203.55C198.309 203.55 233.37 168.489 233.37 125.24C233.37 81.9903 198.309 46.9297 155.06 46.9297C111.811 46.9297 76.75 81.9903 76.75 125.24C76.75 168.489 111.811 203.55 155.06 203.55Z" fill="#E9EEF2"/>
<path d="M291.44 947.06H106.82L142.04 796.27L152.45 751.71L176.82 647.37H221.44L245.81 751.71L256.22 796.27L291.44 947.06Z" fill="#DCE2E5"/>
<path d="M1613.21 273.75C1651.97 273.75 1683.4 242.325 1683.4 203.56C1683.4 164.795 1651.97 133.37 1613.21 133.37C1574.45 133.37 1543.02 164.795 1543.02 203.56C1543.02 242.325 1574.45 273.75 1613.21 273.75Z" fill="#DCE2E5"/>
<path d="M1729.06 448.42H1497.36L1585.21 222.7H1641.21L1729.06 448.42Z" fill="#DCE2E5"/>
<path d="M1486.75 759.44C1528.86 759.44 1563 725.302 1563 683.19C1563 641.078 1528.86 606.94 1486.75 606.94C1444.64 606.94 1410.5 641.078 1410.5 683.19C1410.5 725.302 1444.64 759.44 1486.75 759.44Z" fill="#E9EEF2"/>
<path d="M1587.52 978.18H1385.98L1462.4 677.13H1511.1L1587.52 978.18Z" fill="#E9EEF2"/>
<path fill-rule="evenodd" clip-rule="evenodd" d="M1706.27 580.21C1725.05 580.21 1740.27 564.988 1740.27 546.21C1740.27 527.432 1725.05 512.21 1706.27 512.21C1687.49 512.21 1672.27 527.432 1672.27 546.21C1672.27 564.988 1687.49 580.21 1706.27 580.21Z" stroke="#E9EEF2" stroke-width="10"/>
<path d="M1694.59 578.15L1670.11 649.13" stroke="#E9EEF2" stroke-width="10"/>
<path d="M1670.62 643.66L1690.42 650.67" stroke="#E9EEF2" stroke-width="10"/>
<path d="M1679.28 622.55L1695.96 628.52" stroke="#E9EEF2" stroke-width="10"/>
<path fill-rule="evenodd" clip-rule="evenodd" d="M343.79 82.1104C359.392 82.1104 372.04 69.4624 372.04 53.8604C372.04 38.2583 359.392 25.6104 343.79 25.6104C328.188 25.6104 315.54 38.2583 315.54 53.8604C315.54 69.4624 328.188 82.1104 343.79 82.1104Z" stroke="#E9EEF2" stroke-width="10"/>
<path d="M363.11 74.4902L406.6 119.24" stroke="#E9EEF2" stroke-width="10"/>
<path d="M402.73 116.81L415.35 104.75" stroke="#E9EEF2" stroke-width="10"/>
<path d="M390.31 102.48L400.99 92.3398" stroke="#E9EEF2" stroke-width="10"/>
<path fill-rule="evenodd" clip-rule="evenodd" d="M1244.25 701.68C1259.3 701.68 1271.5 689.48 1271.5 674.43C1271.5 659.38 1259.3 647.18 1244.25 647.18C1229.2 647.18 1217 659.38 1217 674.43C1217 689.48 1229.2 701.68 1244.25 701.68Z" stroke="#E9EEF2" stroke-width="10"/>
<path d="M1259.87 696.77L1293.44 746.72" stroke="#E9EEF2" stroke-width="10"/>
<path d="M1291.92 742.58L1278.03 752.09" stroke="#E9EEF2" stroke-width="10"/>
<path d="M1280.87 728.01L1269.17 736.07" stroke="#E9EEF2" stroke-width="10"/>
<path d="M3.54004 639.8L90.33 726.59" stroke="#E9EEF2" stroke-width="10"/>
<path d="M1647.55 3.54004L1734.34 90.33" stroke="#E9EEF2" stroke-width="10"/>
<path d="M322.04 487.74L408.84 574.53" stroke="#E9EEF2" stroke-width="10"/>
<path d="M1661.79 832.79L1748.59 919.58" stroke="#E9EEF2" stroke-width="10"/>
<path d="M623.2 42.0195L709.99 128.81" stroke="#E9EEF2" stroke-width="10"/>
<path d="M407.59 251.39L323.29 335.69" stroke="#E9EEF2" stroke-width="10"/>
<path d="M1297.36 911.61L1213.07 995.91" stroke="#E9EEF2" stroke-width="10"/>
<path d="M468.03 915.88L541.26 989.11" stroke="#E9EEF2" stroke-width="10"/>
<path d="M189.21 148.77H120.9V376.46H189.21V148.77Z" fill="#E9EEF2"/>
<path d="M1331.67 307.81V525.65H1179.44V362.98L1234.62 307.81H1331.67Z" fill="#E9EEF2"/>
<path d="M1234.62 307.81V362.98H1179.44L1234.62 307.81Z" fill="#DCE2E5"/>
<path d="M1255.56 420.73C1266.13 420.73 1274.69 412.165 1274.69 401.6C1274.69 391.035 1266.13 382.47 1255.56 382.47C1244.99 382.47 1236.43 391.035 1236.43 401.6C1236.43 412.165 1244.99 420.73 1255.56 420.73Z" fill="#DCE2E5"/>
<path d="M1280.84 475.6H1230.28L1249.45 400.08H1261.67L1280.84 475.6Z" fill="#DCE2E5"/>
<path d="M1234.62 307.81H1331.67" stroke="white" stroke-width="3" stroke-linecap="square"/>
<path d="M1331.67 493.75V307.81" stroke="white" stroke-width="3" stroke-linecap="square"/>
<path d="M1269.51 273.09H1366.56" stroke="white" stroke-width="3" stroke-linecap="square"/>
<path d="M1366.56 456.21V273.09" stroke="white" stroke-width="3" stroke-linecap="square"/>
<path d="M366.62 773.98C366.62 779.886 364.275 785.549 360.101 789.727C355.927 793.905 350.266 796.255 344.36 796.26H142.04L152.45 751.67H344.36C347.287 751.671 350.185 752.25 352.889 753.372C355.592 754.494 358.048 756.138 360.115 758.21C362.182 760.282 363.821 762.742 364.937 765.448C366.053 768.154 366.625 771.053 366.62 773.98Z" fill="#E9EEF2"/>
<path fill-rule="evenodd" clip-rule="evenodd" d="M366.422 704.361C380.191 695.161 396.38 690.25 412.94 690.25C435.146 690.253 456.441 699.075 472.143 714.777C487.845 730.479 496.667 751.774 496.67 773.98C496.67 790.54 491.759 806.729 482.559 820.498C473.359 834.267 460.282 844.999 444.982 851.336C429.682 857.674 412.847 859.332 396.605 856.101C380.363 852.87 365.444 844.896 353.734 833.186C342.024 821.476 334.05 806.557 330.819 790.315C327.588 774.073 329.246 757.238 335.584 741.938C341.921 726.638 352.653 713.561 366.422 704.361ZM437.232 737.625C430.042 732.818 421.589 730.252 412.94 730.25C401.344 730.261 390.227 734.871 382.026 743.069C373.826 751.268 369.213 762.384 369.2 773.98C369.2 782.629 371.764 791.083 376.569 798.274C381.374 805.465 388.203 811.07 396.193 814.38C404.183 817.69 412.975 818.557 421.458 816.87C429.94 815.184 437.732 811.02 443.848 804.905C449.964 798.791 454.13 791 455.818 782.517C457.507 774.035 456.642 765.243 453.334 757.252C450.026 749.261 444.422 742.431 437.232 737.625Z" fill="#E9EEF2"/>
<path d="M801.58 1046.52L845.98 681.13L866.98 777.13L850.81 1046.52H972.76L989.93 750.52C991.109 730.226 989.181 709.871 984.21 690.16L919.66 434.16L714.55 432.52L713.82 734.67L682.62 1046.52H801.58Z" fill="#274992"/>
<path d="M846.59 689.07L860.36 544.81" stroke="white" stroke-width="3" stroke-linecap="square"/>
<path d="M1080.5 163.36L1078.29 150.87C1077.64 144.778 1077.31 138.656 1077.29 132.53C1077.29 122.96 1082.48 111.02 1073.64 95.1496C1064.8 79.2796 1082.64 88.8696 1087.16 96.3596C1090.98 102.61 1091.02 116.69 1095.35 121.36C1097.15 120.064 1098.76 118.518 1100.12 116.77L1130.12 66.4796C1130.58 65.6663 1131.33 65.0482 1132.21 64.7395C1133.09 64.4307 1134.06 64.4521 1134.93 64.7996L1136.93 65.6096C1137.43 65.812 1137.89 66.1177 1138.27 66.5072C1138.65 66.8967 1138.94 67.3613 1139.13 67.871C1139.32 68.3806 1139.4 68.9242 1139.36 69.4665C1139.33 70.0088 1139.18 70.5379 1138.93 71.0196C1133.22 82.0196 1115.32 114.43 1115.93 114.66L1117 115.66L1153.41 66.7196C1153.95 65.9438 1154.76 65.3929 1155.68 65.1701C1156.6 64.9473 1157.57 65.068 1158.41 65.5096L1161.12 66.9596C1161.59 67.2051 1162 67.5434 1162.33 67.9537C1162.66 68.364 1162.9 68.8376 1163.04 69.3454C1163.18 69.8531 1163.22 70.3843 1163.14 70.9061C1163.07 71.4279 1162.89 71.9294 1162.62 72.3796C1155.62 84.0796 1128.62 121.78 1129.22 122.04L1130.6 123.1L1165.28 84.1996C1165.85 83.3837 1166.72 82.8195 1167.69 82.624C1168.67 82.4285 1169.69 82.6167 1170.53 83.1496L1172.61 84.4796C1173.04 84.7542 1173.42 85.1113 1173.71 85.5305C1174 85.9497 1174.21 86.4228 1174.32 86.9226C1174.43 87.4224 1174.44 87.9391 1174.35 88.4431C1174.26 88.9471 1174.08 89.4285 1173.8 89.8596L1141.36 128.67L1142.61 130.21L1171.73 104.08C1172.36 103.367 1173.23 102.909 1174.18 102.795C1175.12 102.681 1176.08 102.917 1176.86 103.46L1177.86 104.15C1178.69 104.735 1179.26 105.62 1179.44 106.617C1179.63 107.614 1179.42 108.645 1178.86 109.49C1174.86 115.56 1161.51 126.49 1151.51 139.26C1143.75 149.15 1140.42 158.05 1129.29 169.44C1124.59 174.27 1117.03 179.34 1112.89 182.2" fill="#3361C2"/>
<path d="M857.64 1046.52L834.58 1092.48H1041.93L955.56 1046.52H857.64Z" fill="#162C56"/>
<path d="M689.65 1046.52L666.6 1092.48H873.94L787.57 1046.52H689.65Z" fill="#162C56"/>
<path d="M1016.44 267.59C1016.44 267.59 937.44 238.9 835.93 241.13C716.27 243.76 659.34 329.3 634.93 384.87C632.683 389.968 631.738 395.544 632.18 401.097C632.622 406.651 634.436 412.007 637.46 416.686C640.484 421.365 644.623 425.219 649.505 427.902C654.387 430.586 659.859 432.015 665.43 432.06L919.66 434.16L945.09 348.41L1047.36 354.46C1061.38 355.291 1075.24 351.096 1086.45 342.629C1097.66 334.162 1105.49 321.976 1108.52 308.26L1137.17 178.67L1066.9 160.03L1016.44 267.59Z" fill="#EF6E45"/>
<mask id="mask0" mask-type="alpha" maskUnits="userSpaceOnUse" x="632" y="160" width="506" height="275">
<path fill-rule="evenodd" clip-rule="evenodd" d="M1016.44 267.59C1016.44 267.59 937.44 238.9 835.93 241.13C716.27 243.76 659.34 329.3 634.93 384.87C632.683 389.968 631.738 395.544 632.18 401.097C632.622 406.651 634.436 412.007 637.46 416.686C640.484 421.365 644.623 425.219 649.505 427.902C654.387 430.586 659.859 432.015 665.43 432.06L774.43 432.93L919.66 434.16L945.09 348.41L1047.36 354.46C1061.38 355.291 1075.24 351.096 1086.45 342.629C1097.66 334.162 1105.49 321.976 1108.52 308.26L1137.17 178.67L1066.9 160.03L1016.44 267.59Z" fill="white"/>
</mask>
<g mask="url(#mask0)">
<path d="M662.8 270.06L729.23 336.49" stroke="#FFA161" stroke-width="31" stroke-linecap="round"/>
<path d="M767.83 280.92L841.47 207.27" stroke="#FFA161" stroke-width="31" stroke-linecap="round"/>
<path d="M888.61 349.68L843.43 304.49" stroke="#FFA161" stroke-width="31" stroke-linecap="round"/>
<path d="M915.67 277.03L981.24 211.46" stroke="#FFA161" stroke-width="31" stroke-linecap="round"/>
<path d="M997.75 304.75L1073.26 380.26" stroke="#FFA161" stroke-width="31" stroke-linecap="round"/>
<path d="M1086.19 270.88L1160.55 196.51" stroke="#FFA161" stroke-width="31" stroke-linecap="round"/>
<path d="M1077.57 194.57L997.99 114.99" stroke="#FFA161" stroke-width="31" stroke-linecap="round"/>
<path d="M803.37 355.49L761.03 397.82" stroke="#FFA161" stroke-width="31" stroke-linecap="round"/>
<path d="M662.88 364.08L589.68 437.28" stroke="#FFA161" stroke-width="31" stroke-linecap="round"/>
<path d="M867.54 417.39L924.36 474.21" stroke="#FFA161" stroke-width="31" stroke-linecap="round"/>
<path d="M940.95 428.2L818.01 426.15" stroke="white" stroke-width="14" stroke-linecap="square"/>
</g>
<path d="M850.43 133.36L847.3 247.64" stroke="#3361C2" stroke-width="65" stroke-linecap="round" stroke-linejoin="round"/>
<path d="M868.43 216.08L874.51 216.21C881.581 216.36 888.599 214.95 895.063 212.079C901.527 209.208 907.279 204.947 911.909 199.6C916.539 194.253 919.933 187.951 921.85 181.143C923.767 174.334 924.16 167.187 923 160.21L917.27 125.67C915.417 114.507 909.69 104.354 901.095 96.995C892.499 89.6357 881.585 85.541 870.27 85.4303C863.951 85.3656 857.68 86.5464 851.817 88.905C845.954 91.2637 840.614 94.7542 836.1 99.1771C831.586 103.6 827.987 108.868 825.51 114.682C823.032 120.496 821.724 126.741 821.66 133.06L821.36 167.48C821.233 180.144 826.103 192.349 834.915 201.446C843.726 210.544 855.768 215.802 868.43 216.08Z" fill="#3361C2"/>
<path d="M812.424 178.114C818.283 185.94 829.374 187.536 837.197 181.679C845.02 175.822 846.613 164.731 840.755 156.905L834.744 148.876C828.885 141.05 817.794 139.454 809.971 145.311C802.147 151.168 800.555 162.26 806.413 170.085L812.424 178.114Z" fill="#3361C2"/>
<path d="M813.2 158.86L825.36 171.6" stroke="white" stroke-width="3" stroke-linecap="square"/>
<path d="M898.02 141.66L901.56 169.53L891.66 170.84" stroke="white" stroke-width="3" stroke-linecap="square"/>
<path d="M866.7 181.67C865.321 184.891 865.278 188.528 866.58 191.781C867.883 195.034 870.424 197.636 873.645 199.015C876.866 200.394 880.503 200.437 883.756 199.135C887.009 197.832 889.611 195.291 890.99 192.07C893.86 185.37 886.87 183.07 880.16 180.19C873.45 177.31 869.57 174.97 866.7 181.67Z" fill="white"/>
<path d="M839.79 169.45L848.63 117.75L850.72 105.48C854.014 108.408 857.767 110.773 861.83 112.48C876.58 118.76 918.72 111.87 921.83 81.6002C924.41 56.9102 899.93 73.2002 886.6 72.8902C865.67 72.3902 850.16 61.5102 823.21 79.4302C790.94 100.89 811.13 144.43 811.13 144.43C811.13 144.43 825.59 137.29 839.79 169.45Z" fill="#24272D"/>
<path d="M880.48 216.22L862.36 216.23L880.24 230.74L880.48 216.22Z" fill="#24272D"/>
<path d="M873.69 153.72C876.424 153.72 878.64 151.504 878.64 148.77C878.64 146.036 876.424 143.82 873.69 143.82C870.956 143.82 868.74 146.036 868.74 148.77C868.74 151.504 870.956 153.72 873.69 153.72Z" fill="white"/>
<path d="M909.67 153.72C912.404 153.72 914.62 151.504 914.62 148.77C914.62 146.036 912.404 143.82 909.67 143.82C906.936 143.82 904.72 146.036 904.72 148.77C904.72 151.504 906.936 153.72 909.67 153.72Z" fill="white"/>
<path d="M725.821 610.386L724.819 610.197C710.175 607.444 696.071 617.083 693.318 631.727L612.724 1060.3C609.97 1074.95 619.609 1089.05 634.253 1091.81L635.256 1091.99C649.9 1094.75 664.003 1085.11 666.757 1070.47L747.35 641.887C750.104 627.243 740.465 613.14 725.821 610.386Z" fill="#FFBA5F"/>
<path d="M630.125 1012.19L629.937 1013.19C627.183 1027.84 636.822 1041.94 651.466 1044.69L698.354 1053.51C712.998 1056.26 727.102 1046.63 729.856 1031.98L730.044 1030.98C732.798 1016.33 723.159 1002.23 708.515 999.477L661.627 990.66C646.983 987.906 632.879 997.545 630.125 1012.19Z" fill="#FFBA5F"/>
<path d="M661.871 935.856L661.682 936.859C658.929 951.503 668.568 965.606 683.212 968.36L745.303 980.036C759.947 982.79 774.051 973.151 776.805 958.507L776.993 957.505C779.747 942.861 770.108 928.757 755.464 926.003L693.372 914.327C678.728 911.573 664.625 921.212 661.871 935.856Z" fill="#FFBA5F"/>
<path fill-rule="evenodd" clip-rule="evenodd" d="M657.289 457.441C680.158 435.613 710.556 423.433 742.17 423.43C749.837 423.429 757.487 424.146 765.02 425.57C796.084 431.443 823.692 449.055 842.11 474.75C860.528 500.445 868.341 532.247 863.926 563.551C859.511 594.855 843.207 623.256 818.401 642.854C793.594 662.452 762.192 671.742 730.716 668.794C699.24 665.846 670.109 650.887 649.373 627.024C628.637 603.16 617.89 572.226 619.364 540.647C620.839 509.067 634.421 479.269 657.289 457.441ZM753.36 487.49C749.681 486.792 745.945 486.438 742.2 486.43H742.17C727.278 486.474 712.937 492.069 701.949 502.121C690.961 512.173 684.116 525.961 682.75 540.79C681.384 555.62 685.596 570.426 694.562 582.316C703.529 594.206 716.607 602.326 731.24 605.09C734.933 605.789 738.682 606.144 742.44 606.15C757.332 606.103 771.671 600.507 782.657 590.454C793.643 580.401 800.486 566.614 801.851 551.785C803.216 536.956 799.003 522.151 790.037 510.262C781.07 498.373 767.993 490.254 753.36 487.49Z" fill="#FFBA5F"/>
<path d="M775.88 427.51L793.94 443.08C793.94 443.08 787.37 489.85 808.3 489.85C808.3 489.85 807.47 497.26 811.58 498.48C815.69 499.7 829.22 483.6 829.22 483.6C829.22 483.6 845.63 479.6 850.55 464.82C855.47 450.04 860.4 414.36 855.88 411.08C851.36 407.8 803.78 400.82 803.78 400.82C803.78 400.82 783.68 400.82 775.88 427.51Z" fill="#3361C2"/>
<path d="M813.36 395.9L737.67 357.03" stroke="white" stroke-width="3" stroke-linecap="square"/>
<path d="M752.87 363.32L803.9 314.6" stroke="white" stroke-width="3" stroke-linecap="square"/>
<path d="M942.19 367.08L951.21 331.6" stroke="white" stroke-width="3" stroke-linecap="square"/>
<path d="M775.51 429.53C775.51 429.53 776.9 400.82 814.75 396.53" stroke="white" stroke-width="3" stroke-linecap="square"/>
<path d="M879.21 759.44L866.94 777.13L880.44 791.6" stroke="white" stroke-width="3" stroke-linecap="square"/>
<path d="M688.8 658.61C688.8 658.61 704.8 665.48 714.2 667.61" stroke="white" stroke-width="3" stroke-linecap="square"/>
<path d="M625.26 1055.49L637.57 991.08" stroke="white" stroke-width="3" stroke-linecap="square"/>
<path d="M640.65 977.95L646.19 949.24" stroke="white" stroke-width="3" stroke-linecap="square"/>
</svg>
